<svg xmlns="http://www.w3.org/2000/svg" viewBox="0 0 500 138"><g fill="#9CA22F"><path d="M316.8 60.8c-.3.3-.4.6-.3 1.1M316.8 60.8"/></g><g fill="#9CA22F"><path d="M316.7 60.4l.1-.1c-.1-.1-.1 0-.1.1zM316.7 60.4z"/><path d="M349 85.2c-.2-7.3-.5-14.6-1.1-21.9.1-1-3.2-7.5-4-9.3-2.8-6.3-14.2-11.1-14.2-11.1-4.3-.9-13.4-.4-13.4-.4-1.2.5-4.7 2.5-4.9 2.7l1.6.3c-.9.6-5.2 3.4-5.2 3.4-2.1 4.2-5.4 10.5-1.4 14.5 3 .4 9 .9 8.8.9.6 0 4-8.1 3.9-8.1.3-.3 4.9-1 5.3-.3 0 0 3.6 1 3.3.9 2.5 1.6 3.8 3.5 5 6.1.2-.3.6 1.1.6 1.1.2.9 1.1 3.6.9 4.5 0-.1 1.9 3.2 1.7 2.7 0 .3-1.4.2-1.3.5 0 0 0 1.5-.1 1.9 0 0-7.2-.8-7.1-.8-1.4.2-3.4 0-4.5.3-1.9.5-4.1 1.5-6.1 1.7 0 0-6.1 3.7-5.8 3.4-4.9 3.3-8.9 9.5-8.4 15.6.3-.3-.4 2.6-.4 2.6s1.2 3.9 2.4 5.8c0-.1 3.8 4.8 3.8 4.8l-.4 1.4c.8 1 2.2 2 2.2 2s7.1 4.1 7 4c4 2.4 8.3 3 12.9 2.9.2 0 1.5 1.6 1.4 1.6 1.5-.2 6.8-.9 6.7-1 1.7-1.9 6.6-6.6 7.7-8 0 0 .6-3.7.8-4.2l2.2-7.4s-.1-9-.1-13.2l.2.1z"/></g><path fill="#759029" d="M146.6 101.1c.2.2.8 0 1.7 0 .6 1.7 6.8 14.9 9.7 16 2.8 1.2 9.6 5 10.9 5.1-.6-.5 5.7.1 10.1-.2 2.4-.4 18.9-9.3 18.9-9.3.7-1 7.3-14.6 7.1-14.5.5-1.7.7-6.7.7-11.5.1-4.9.5-9.7.5-11.1-.1-2.2-.8-1-2.2-1.2l1.4-2.2s-.8-.7-.7-2.1c-.1-2.4-.6-4.8-.8-7.1.2 0-.4-4.3-1.2-5.6-.4 0-1.5-7.9-11.4-6.4-3.8-.5-5.1.7-5.1.7.3 1.3-.6 5.7-.7 6.8.2.7 2.4 1.6 2.3 2.5H186c-.3 2 1 2.8.8 4.5l-.2-.2c-.2.6-.4 1.8-.5 2.8 0-.3 1.8 3.6 1.8 3.6.2 2 1 6.9 1.2 11.3.3 4.5-.1 8.4-.5 9.8v-.1c-.4 2.2.9 5.1-.8 6.7-1.7 1.7-10.5 8.7-10.5 8.7l-6-3.6-4.3-1.2c-3.5-7.4-2.1-8.2-3.6-11 0 0-.5-5-.7-7.9 0-.4-2.7-4.9-2.7-4.9.4-1.3 1.8-4.8 1.8-4.8-.1-.9-.7-3-.7-4.5 0 0 .3-3.6.3-4.5.3-2.1 1.2-5.3.8-8.4l1.2-2-2.2-4.2-7.8-.9-5.9 6.1s-2.2 2.1-2.3 3.1c-.6 5.6-.2 14.9-.1 21.1-.2.1-1.3-.4-1.1 1.3-.2.5-.2 3 0 5.5-.3 0 2.3 13.3 2.6 13.8z"/><path fill="#759029" d="M211.1 54.8s-.2.8-.2 2.8c.8.8.8 7.5.7 7 .2 1.6 1.1 6 2.4 9.9 1.4 3.9 5.3 11.7 6.3 14.2.7 1.4 1.5 1.8 1.6 2.6 0-.1 3.6 3 3.6 3s-2 .5-2.1.6c0 .3.8 2 .3 2.3 0 0 1.2 4.4 1.4 6.2.3 1.8 0 3.9.1 3.8-.1.9-.6 3.2-2 4.7-1.4 1.6-4.4 3.1-5.4 3.4-.8.1-1.1 2.7-1.1 2.7s-1.5-.5-2.6-.3c-1.9.6-5.8 2.2-5.8 2.2l-4.8 2.4s-8.1 5.1-6.8 8.8c.3.7.5 1.7 1.7 2.3.5.3 2.5 0 2.5 0s2.9 1.4 5.3 1.8c-.4.1 3.4-1 4-1.1v.1c1.5-.2 3.2-1.4 3.2-1.4.5 0 1.2-2.1 1.7-2.3 1.1-.2 3.5-.1 3.5-.1 1.7-.8 6.2-2.3 11.3-5.9 2.5-1.8 5-4.6 6.4-7.3 1.4-2.7 2-5 2.2-6.2v.2c.9-3.9.9-9.2.3-13.8-.2-1.2-1.3-2.5-1.5-3.6 0 0 .3-3.2.1-3.9-.8-2.5-1.7-4.2-2.4-5.6-.1-1-1.6-3.1-3-5.6-.8-1.4-2.5-5-3.7-8.4-1.3-3.4-2-6.3-2-7.5-.8-1.2-.6-4-.6-4-.1-.6.7-3.7.7-3.7s5.7-5.9 6.8-6.4l3.4-.8s4.2-.1 6.5-.7l2.7.3c-.1 0 6.1-16.1-2.5-14 0 0-3.2.4-4.2.5-5.5.5-11.3 1.2-17.5 5-.2 0-8.7 9.6-8.7 9.6s-1.7 6.1-1.8 6.2zM393.1 105.6c-.2-.1-3.1-.4-5.7-.8-.6-.1-2.2.9-2.7.8-.7-.1-.2-1.3-.7-1.4-3.5-.9-7.2-2.1-10.2-4.2 0 0-7-7.3-7.7-15.2-.1-.6-.1-1.2 0-1.8.1-1.4 1.3-2.5 1.4-3.8.1-.9-.9-1.9-.4-2.9 1.6-3.7 7.3-8.5 7.3-8.5 2.2-2.3 8.3-4.2 8.3-4.2.4-.3 9.3-2.7 9.3-3l11.3.4 2.6-4.7s-1.2-5-2.9-6c-.2-.2-7.4-.8-9.2-.8-1.3 0-2.6 0-3.9.1-1.7 3.1-3.8 3.5-6 6.1-1.7-.2-4.2.9-4.4.1-.8-1.1-1.3-2.4-1.6-3.9-.7.2-1.3.4-1.7.7-1.6.8-4.8 3.3-6.6 3.4l.8.6-2.1.5-4.6 3.7-8.1 9.6-1.5 7.3.9 2.1c-.2.4-1.6.5-1.6.9-.7 3.2.9 7.3.6 10.4 0-.2.9 3.6.9 3.6l1.3-.2c.5 1.5 1.6 6.8 2.5 7.7 0 0 4.9 4.2 7 5.9.6.5 2.7.5 2.7.4.2.1-1.5.6-1.3.7 4.4 3.3 9.8 4.8 14.9 6.6.1.1.6 1.7.8 1.3 1.3-3.4.8-.9 1.2-.9 2.9.5 7.3 1.1 7.3 1.1l10.6-2s3.6-5.7 3.2-7.6c-1.2-4.7-12-2.1-12-2.1z"/><path fill="#788C11" d="M381.1 51.2c2.9-.9 5.8-1.3 8.8-1.5.3-.6.6-1.3.9-2.1.9-2.2 2.2-5.5 2.2-5.5l.6-7.4-2.5-4.5s-1.7.8-2.9.6c-7.1 2.4-12 13.6-10.4 21.3 1.5-.6 3.2-1 3.3-.9z"/><path fill="#374F03" d="M383.9 55.7c2.2-2.6 4.4-3 6-6.1-3 .2-5.9.7-8.8 1.5-.1-.1-1.8.3-3.2.8.3 1.4.8 2.8 1.6 3.9.2.8 2.7-.3 4.4-.1z"/><path fill="#9CA22F" d="M78.7 69.5v-.3c0-.1 0-.3-.1-.5 0 .1.1.7.1 1.2.1-.1.1-.2 0-.4zM78.7 68.7c0 .2 0 .4.1.5-.1-.4-.1-.6-.1-.5zM78.7 69.2v0z"/><path fill="#9CA22F" d="M78.7 69.5v.3c.1.7.2 1.1 0-.3z"/><path fill="#9CA22F" d="M78.8 69.9c0-.5-.1-1.1-.1-1.2-.2-1.9-.6-6.1-1-7.1.2.1-1.3-2.7-1.1-2.7.2.1-1.4-1.3-1.9-2.2-.8-1.2-2.6-1.8-3.6-3-.4-.5-2.3-3.7-2.7-4.6-.1-.3-5.2-1.1-5.3-2-.2-1.5-12.1-2.7-13.7-2.9-.3 0-.5-.1-.8-.1.1 2.8.3 8.1.5 9.2 0 0-.1 2.9.6 4.2-.2 2.5-.1 13.3.5 16.1.3 2.4 1.2 4.4.8 5.2.9 4.9 1.5 14.6 2.1 19.3 0 0 .6 5.4 1.2 10.4 6.1-3.5 12.2-6.9 16.7-12 6.6-7.5 8.5-16.9 7.8-26.6zM33 84.3s-1.3-4.7-1.4-6.1c0-2.4 3.1-3.7.8-3.3 0 0-.9-2.3-1.3-2-.4-2.3-1-21.2-1-21.2.1-.1.9-6.9 1.1-7.2 0-.2-.1-.3-.2-.4-7.2 1.1-13.6 3-19.8 8-1.2 1 .3.8-1.3 2.1-1.3 1.1-2 1.2-2.8 3-1.5 3.2-4 5.8-4.5 9.4.3.1 1.6 1.1 1.6.7-.1.3-2.3 3-2.1 1.1-3.1 12.6.3 29 11.6 36.6.8.6.9-.1 2.7 1.4.8.6 1.1 2.3 1.9 2.6.8.4.9-1.2 2.1-.8.9.3 2.7 1.4 3.6 1.7 3.1 1.2 6.7 1.2 8.8 1.1.7 0 2.4 0 4 .1-.3-3.9-1.1-11.1-1.2-12.7-.2.1-2.5-12.9-2.6-14.1z"/><path fill="#9CA22F" d="M46.9 110.3c-1.8.9-4 .7-5.9.8h-4.3c.1 1 .1 1.8.1 2.2-.2.8 1.4 2.9 1.3 4 0 1.8 1.5 9.8 1.5 9.8s.6 5.2 4.6 5.6c6.9.6 12.4-6.5 12.4-6.5l-1.9-4.4c.2-.4.4-5.6.4-5.6-.1-1.2-.4-4.4-.8-7.8-.3.2-.5.3-.8.5-1.4.8-6.9 1.4-6.6 1.4zM48.5 44v-1.7c-.5-1.4-1.6-6.1-1.8-7.3 0 0-1.7-2.8-1.8-3.5.1-1.1-1.3-5.2-2.2-7.7-.4-1.1-2.8-1-2.8-1s1.8-3 .8-4c-2.3-2.3-7.9.8-12.3 4.8 0 0-1 2 .4 4.9-.1 4.2.3 12.6.2 12.5.2 1.1 1.4 2.1 1.9 3.1 1.6-.3 3.3-.5 5-.7 1.9-.6 8.8.2 12.6.6z"/><path fill="#5F6709" d="M51 78.7c.4-.8-.5-2.8-.8-5.2-.6-2.8-.7-13.6-.5-16.1-.7-1.3-.6-4.2-.6-4.2-.2-1-.4-6.4-.5-9.2-3.8-.5-10.7-1.2-12.5-.6-1.7.2-3.4.4-5 .7.1.1.1.3.2.4-.2.3-1 7.1-1.1 7.2 0 0 .6 18.8 1 21.2.4-.3 1.3 2 1.3 2 2.3-.4-.8.8-.8 3.3.2 1.4 1.4 6.1 1.4 6.1.2 1.2 2.4 14.2 2.5 14.1.1 1.7 1 8.8 1.2 12.7h4.3c1.9-.2 4.1.1 5.9-.8-.3 0 5.2-.6 6.6-1.5.3-.2.5-.3.8-.5-.6-5-1.2-10.4-1.2-10.4-.7-4.6-1.3-14.3-2.2-19.2z"/><path fill="#9CA22F" d="M146.2 114.6c-1.9-3-4.9-6.2-6.3-9.6 0-.1-2.8-3-3.6-4.1-2.2-3-4.6-6-6.9-8.9-.9-1.1-6.1-6.3-6.1-6.3l5.9-1.3s6.8-5.1 8.3-9.1c-.5.9-1.8-1.9-1.5-1.7-.1-.1 2.1-3.2 2.1-3.8 0-3.3-.7-8.7-.7-8.7L129.2 51l-10.7-3.4-6.9-.5-5.9 1s-3.9 2.5-4 1.6c.5-.9 1.4-3.8.2-5.1-.6-.7-2.3-5-3.1-5.4-.8-.4-3.1-.2-3.1-.2s-5.7 1.2-6.8 1.6c-1.2.5-.5 2.7-.2 2.7 0-.2-2.2 1.1-2.3 2.3-.3 2.9-.7 6-.6 8.5.1 1.4-1.2 5.9.4 6.5 0 .4-.4 4.9-.5 4.4-.5 3.4-1.1 7.4-.7 10.9.2-.4.1 1.4.3 1.4 0 .9.8 4.8.3 6 0-.6 2.1 2.8 2.2 2.7.1.5-1.5.7-2 .9-.1-.2 1.6 7.7 1.5 7.7 0 1.8.7 12.5.4 12.8 0 .4 1.7-1.1 1.6-.3-.1 1.3-.7 4.1-.7 5.4-.9 0 .6 2.8.7 4.2.2 2.3 1.8 3.5 4.1 3.4 2.4-.1 11.3-3.2 11.3-3.2-.1-.3-.8-6.9-1-10.6-.5-7.2-.7-13.8-1-21 3.8 2.4 6.3 7.4 9.5 10.7 1.3 1.3 6 6.8 9.1 11.1l1.7 2.4s1.1-1.4 1.6-.5c1.2 1.9 2.9 5.4 4.1 7.3-.4 0 1.4 1.4 2.4 2.9 1.4 2.1 2.2 1.1 4.2.2 1.5-.6 10.5-4 10.5-4s.5-.4.4-.8z"/><path fill="#759029" d="M257.1 3.6s-1.7-.2-1.4-.3c-.3 0-3.2-.3-3.2-.3 0-.1.1.9-.2.8.1 0-.8-.4-1.1-.6l-.5 1c-1.1 0-5 .6-6 1.1v-.1c-1.5.8-6.5 3.8-6.5 3.8l-1.5 1.5c-.6.7-2.5 2.6-3.6 3.5-.3-.2-.6-.6-.9-.8-.5.4-1.9-1.7-2.5-2.3l-.8-.9h-1.8s-.2-1.3-1-2c-.5-.3-2.5-.9-2.6-.9 0 0-.4-.4-.9-.2l-1.1-.9c-.6.1-3.4.3-3.4.4-.8-.2-5.3-.6-5.6-.6-.1-.1.4 1.1.5 1.3 0 0-3.1-.7-3-.6-.3.6-5.2-.2-5.4.2 0 .2-2.5 3.2-2.5 3.2s-1 3.1-.4 5.7c.5 1.9 5.2 1.1 6.3 1 .1.1 2.3.3 2.4.3.3.2 5-.4 5.6-.2 1 0 4.1.9 4.5 1 .3-.1 2.7 2.5 3.1 3.1.5 0 3.8 2.4 3.8 2.6 0 .1 1 .8 1 .8.3 0 .5 1.1.5 1.1s.9 0 1 .1c1.3 1.9 3.9 4.4 3.9 4.4s1.5-.7 1.8-1c1.4-1.3 2.3-2.3 3-3.4.1 0 1.8-2.5 1.9-2.4 0 0 3.1-3.5 3.3-3.8-.2-.1.9-2 .9-2l1.3-.2c.1-.5 1.6-1.6 1.6-1.6h3l2.1-1.9.9.1s.6-.9.8-1.3c0-.3 4-2.6 5.4-4.6 1.2-1.6-2.7-4.1-2.7-4.1zM218 6.8"/><g><path fill="none" d="M297.5 107.1l-.1-.1.1.1z"/><path fill="#9CA22F" d="M260.1 87.7c.1-.5-2-1.4-2-2.1-.4-.2-.8-.6-1.2-.8.1 0-3.8-5.2-3.9-5.3 1.8-3.5 7.3-9.4 7.4-9.4.2-.1 1.2-.3 1.2-.3.2-.1.4-.3.7-.5 0-1.1-.1-2.1-.5-3 0 0 .3-5.3.1-6.2l-.5-2.1c-.1-.4-.2-1.6-.2-1.6.5-1.6-.2-5.6.8-6.4-1.1-1.7-3-1.4-4.8-1.8-4.1-.7-5.5-.7-9 1.5v.3c-.1.4 0 .8-.2 1.1-.2 2.3-1.1 6.9-1 8.2.1.8-.2 5.8-.2 5.9s.4 3.8.3 3.6c-.1 1.3-.4 7.3-.1 8.6.3-.2 0 2.9.7 4.6 0-.1 1.3 1.8 1.3 1.8.1.7-1 2.9-.7 3.4 0 0 1.2 4.8 1.3 4.7.1 1.2.3 9.3.6 9.2 0 0 1.4 1.5 1 1.8-1.2.8-1.1.1-1.1 1.1 0 2.2.5 6.5.3 8.7-.2 0-.2 7.4 1.8 7.7 2.1.3 3.7 1.7 5.7 2.3 2.5.7 5.5-1.4 5.5-1.3.2 0 .9-1.4 1.1-1.8-.1-.3-.1-1.1-.1-1.1.3-.6-.1-2.7-.2-4.2 0-.7-1.1-.7-1-.9 0 0 1-1.5 1-1.7 1-2.3-1.2-6.5.3-8.5-.1-3.5-.8-7.5-1-11.2l.1.1c0-.4-.1-.9-.1-1.3-1.1-1.4-1.9-2.4-1.9-2.5-.6.5-1.5-.6-1.5-.6z"/><path fill="#9CA22F" d="M297.3 105.3s-1.5-1.5-1.7-1.6c-.1-.4-.4-.5-.4-.9 0 0-9.4-5.9-12.7-10.3-.8-1-1.6-1.7-2.4-2.7-1.9-2.2-3.7-4.4-5.5-6.7-.9-1.1-3.5-3-3.5-4.3l1.1-.9c1.5-1.4 6-4.6 7.1-6 1.6-2 6.8-6.4 6.8-6.4.3-.5 1.8-1.4 2.2-2l-.8-1.5c.6-.3 2.2-.7 2.3-.8 0 0 4.2-4.3 4-4.1 2.1-1.7.3-3.9-.7-5.8-.7-1.5-2-2.6-3.6-3-1.8-.5-5.6.6-5.7.5 0 0-.1.2-.3.2-.9.7-3.1 1.5-4.2 2.7-.1-.1-.7.5-.9.9-.6-.1-1.6 1.8-2 1.6 0 0-.2 0-.4.4.4.7-.8.9-.8 1.1 0 .1-.3.3-.2.1-.7.4-3.7 2.6-4.2 3.3.3.2-.6.5-.6.5-.1.3-1.1 1.8-1.2 1.8 0 0-.9.9-.9 1 0 0-.4 1.1-.9.8 0 0-.4.2-.5.6 0 0-1.7 2.7-1.6 2.8-.4.3-1.8 1.7-2.9 2.6 0 1.8-.3 3.6-.3 5.1 0 1.7.9 5.3 1 5-.6 3.4.1 7.7.5 11.4 1.8 2.2 4.2 5.2 4.7 5.6.1-.3 2.8 3.4 4.2 5.3 0 0 1.4 1.8 1.5 1.8l.6.8c.3.3.6.5 1 .6 0 0 3.1 1.7 3.2 1.6.6.6 3.9 3.6 4.2 4.4 0 .4.2.5.2.5.4.2 2.6 2.1 2.6 2.3-.3.8 5.4.2 6.3-.2 3.5-1.7 5.6-6.5 5.6-6.5-.1 0-.1-.1-.1-.1l.1.1c.1-.1-.2-1.2-.2-1.6zM297.3 107z"/><path fill="#5F6709" d="M263 79.5c-.1.3-1-3.3-1-5 0-1.5.3-3.4.3-5.1-.2.2-.5.4-.7.5 0 0-1 .2-1.2.3-.1-.1-5.6 5.9-7.4 9.4.1 0 4 5.2 3.9 5.3.5.2.8.6 1.2.8 0 .7 2.1 1.6 2 2.1 0 0 .9 1.1 1.5.8 0 0 .8 1.1 1.9 2.5-.4-3.9-1.1-8.1-.5-11.6z"/></g><g><path fill="#D3003C" d="M458 46.8l-5.2 1.9-.8-.9-5-3.4-6.2-3-6.9.7-6.4 2.8-7.1 5.8-1.4 1.9-1.5.5-.4 2.1s.9 1.1 1.7 2.2c.8 1-2.1 0-2.1 0l-1.4 8.2 1.2 1.1.6 2.8 3.6 8 6.9 10.1 1.1 1.5 6.8 8.9 1.5 1.7 2.6 2.8 1.4.6 2.9 3.7 1.1 1.1 8.4 7.5 4 3.4.9-.7s-.9-.5.8-.6c1.7-.1.7-.5.7-.5l4.6-3.3.8-.5.6-.4 7.3-4.9 1.2-1.3 6-4.3 6.6-6.5-.4-.4 2-1.6 4-5.7.6-1 5.7-13.4.6-1.4.8-16.3-1.9-.4.2-1.7-6.9-9.2-.3-1-1 .2-1.6-.8-14.4-2.8s.2 1.5-.3 2.1c-.6.6-1.2-1.1-1.2-1.1l-12.1 4.6-2.7.9z"/><path fill="#FFF" d="M434.6 67.6s0 .3.1.9c.3.2.5 2.7.4 2.5l.3 1.6c.5.8 1 1.7 1.9 2.5.8.7 1.8.9 2.2.9-.1-.1.6-.2.8.1 0 0 .5-.2 1.5-.5.6-.3 1.4-1.4 1.5-1.3.1-.1 1-.8 1-.9 0 0 .9-1.4 1.2-1.4 0 0 .5-.5.6-.7 0 0 1.1-1.9 1.1-2.3 0 0 .2.1.1.1.4-.5 2.4-2.9 2.9-3.2.2-.1.4-.6.4-.6l.1.1c.1 0-.1-.4.1-.5.4-.3.7-.7 1.1-1.1 0 .1.7-.6.8-1 0 0-2-1.3-2-1.1l-1-.9s-.1-.5-.3-.4c.1 0-.7 0-.8.1-.3.1-1.3.6-1.3.6-.7.6-4 3.6-4 4.3l-1.8 2.3c-.2.3-.2.4-.3.6-.1-.1-.1.1-.1.1-.1.1 0 .1-.1.3-.2.4-.7-.3-.6-.7V66.3c-.1-.4.1-1 .2-1.4-.2 0-.3-.7-.3-.8v-1.3c0-.2-.2-2.4-.2-2.4h.1c-.1 0-.1.3-.1.1.1-.5.4-1 .4-1s-4.2.9-5.1.9h-.1s-.6 2.2-.6 3.4c-.1 0-.1.1-.1.1V65c-.1.1-.1.2-.2.2.3.1.2 2.3.2 2.4 0 0 0-.1 0 0zM469.2 64.1c-.1-1.8-.7-3.5-1-4-.1-.4-.7-1-.9-1.2h.1c-.1-.1-.4-.1-.8-.6-.7-.8-1.8-1.4-2.8-1.6 0-.1-2-.3-2.6 0 0 .1-.1.4-.2.9-.2 0 0-.1-.4-.1-2.6.6-4.6 2-6.1 3.8-.1 0 0 0 0-.1-.4.6-.8 1.1-1.1 1.7-.1.1-.2.1-.3.2.1 0-.4.8-.8 1.6s-.6 1.8-.7 1.8l.1.1c-.2.7-.2.2-.3.8.2.3-.2 1.2-.1 1.4 0 0 0 .4-.1.3.1.1 0 .4.1.6 0 .1 0-.1.1-.1l.1.5c0 .2-.1.3-.1 0 0 .3.1 1.1.4 1.9.3.9 1 1.9 1.8 2.7 1.8 1.6 3.9 1.8 4.6 1.8-.2-.1.8-.1 1.1.1l.3-.1c1.6-.3.4-.1 1.8-.3.8-.2 1.2-.5 1.6-.6-.1 0 .4-.4.6-.3.2-.1.8-.4.5-.4.1 0 .6-.2.6-.2.6-.4.9-.6 1.2-1 0 0 1-.9 1.3-1.4l-.1.2c.2-.3.8-1.3 1.1-2.2.4-1 .6-2 .6-2.3 0 0 .6-2.2.4-3.9z"/><g fill="#FFF"><path d="M483.4 71c-.1 0-.1 0 0 0zM471.2 61.3s0 .9.1 1c0 0-.1.3-.1.4h.1s-.4 3.4-.3 4.1c.1-.1.1.5.1.5l-.1.1c.2.8.1.2.1.9.1.4.3.7.4.8-.1 0 .1.8.3.7-.1.1-.7 1-.7 1 .1.2.2 1.1.2 1.1 0 .2 1 2.4 1.5 2.8.5.5 1.1.2 1.3.2l.6-.4.5.5c.3.2.7-.3 1.7 0s1.9.4 2.1.5l.4.2c.1 0 .5-.4.8-.3.5.1 1.3.2 1.2.2.1 0 1.1-.1 1.4-.3 0-.2.5-4.3.5-4.2 0-.1-.4-.7-.5-.6-.1 0-.8-.1-.9-.1.1 0-.3.3-.4.4-.2-.1-.9.2-.9.2-.3 0-1.3.4-2 .3-.7-.1-1.1.4-1.1.4-.8-.5-.8-.2-1-.6-.2-.4-.4-1.8-.6-2.3.1-.2 0-.7.1-.9 0 .1-.2-.3-.3-.8-.2-.6 0-3.2.2-3.8-.2-.3 0-.8-.1-1.1 0-.3.2-2.4.1-2.8-.1-.4.1-1.2.1-1.5-.2 0-.3-1.3-.3-1.3s-.2-.3-.3-.5c0-.4.1-.9-.1-1.4l.2-.3s-3.6.1-4.3.8c0 0-.2.6-.2.8v2.9h-.1l.1.8c-.1.1-.1.1-.2.1.5-.1.4 1.5.4 1.5z"/></g><g fill="#FFF"><path d="M441.3 92.9c.1.1.4.2.6.2-.2-.1-.4-.2-.6-.2zM451 95.6c-.1 0-.1 0 0 0zM441.7 84.2c.1 0 .1 0 .1-.1l-.1.1z"/><path d="M453.5 83.4s0-.3-.2-1.1c-.3-.2-.6-1.3-.9-1.5 0 0-.7-.7-.6-.7-.2-.1-.6-.6-.4-.5-.6-.5-2.5-1.5-4.4-1.4-1.9 0-3.6.8-4.2 1.2.2 0-.5.5-.9.5l-.2.2c-1 .9-.2.2-1.2 1.1-.6.6-.6 1-.9 1.3 0-.1-.1.5-.3.5 0 .4-.6 1.2-.7 1.3 0 0-.3.7-.3 1.1 0 0 0 .5-.2.6l.1-.4c-.2.6-.2 1-.2 1.5v-.2c-.1 1.7 1 4.5 1 4.4.1.2-.1.4-.1.3 1.4 2.5 3.5 4.1 6.3 4.5.4.1.9 0 .8 0 0 0 .8-.1 1.3-.1.9 0 2.4-.3 2.2-.2.1 0 1.8-.6 2.3-1 0-.2-.5-2.9-.5-2.9l-2 .2c-.5-.1-.8 0-1.1.2-.3 0-.6.1-.8.1l-.2.1c-.5.1-1.9.1-2.9-.3s-1.8-1.4-2-1.9c-.2-.3-.3-1.4-.3-1.4.3.1.1.1 0 .1h.9c2.4.3 4.2.6 6.7-.1.1 0 0 0-.1.1.7-.2 1.4-.5 2-1 .2-.1.3-.1.4-.1 1-.2 2-4.5 1.6-4.5z"/></g><g fill="#FFF"><path d="M455.9 97.2c-.1.1-.1.1 0 0-.1.1-.1.1 0 0-.1.2 0 0 0 0zM483.2 92.6v.1-.1"/><path d="M482.3 93.3c-.1-.3-.5-.8-.5-.8-.5-1.1-2.8-5-3.4-6l-1.8-3.1-2.5-4.5c-.1-.3-.3-.6-.4-.9-.2.1-.7.6-1.8 1.6-.3.3-.9.8-1.5 1.5l-1.4 1.6c-.8.9-1.2 1.7-1.5 2-.2.4-.8.8-.9.7 0 0-.7-.1-.9-.2-.6-.3-2.7-1.4-2.8-1.5-.2-.1-2-1.2-2.2-1.3-.5-.4-1.3-.9-2.3-1.1-.2-.1-.7-.3-.7-.3s-.4.5-.6 1.2c0 0-1.1 1.7-1.3 2.3 0 .2-.4 2.4-.4 2.4s-1.5 4.3-1.4 4.4v1.8h-.3c-.1.3-1.4 4-1.3 4.2l2.6 1.4c0-.1.3-.9.4-.9 0-.1.5-.7.5-.7.2-.5.8-2.3.9-2.8.2-.7.9-3.3.9-3.4.1-.4 0 0 0-.4.1-.4.9-2.9.9-3.1 0-.2.5-1.4.5-1.6l.3-.6s3 2.1 3.4 2.4c.1.1 2.1 1.1 2.5 1.2.4.1 1.3.1 1.4.1.1 0 .9-.3 1.2-.5.3-.2 1.3-1.1 1.3-1.1.1-.1 1.4-1.2 2.1-2l1.1-1.2s.9 1.1 1.2 1.4c0 0 1.5 2.2 1.8 2.5 0 0 2.2 4.1 2.5 4.8.1.3.7.9.8 1.2 0 0 1.3 2.8 1.6 3.1.2-.1 2.9-.2 3.1-.3 0 .1.1.3.1.3s0-.3-.1-.4c.2-.2-1-3.3-1.1-3.4z"/></g></g></svg>