<?xml version="1.0" encoding="utf-8"?>
<!-- Generator: Adobe Illustrator 18.0.0, SVG Export Plug-In . SVG Version: 6.00 Build 0)  -->
<!DOCTYPE svg PUBLIC "-//W3C//DTD SVG 1.1//EN" "http://www.w3.org/Graphics/SVG/1.1/DTD/svg11.dtd">
<svg version="1.1" id="Layer_1" xmlns="http://www.w3.org/2000/svg" xmlns:xlink="http://www.w3.org/1999/xlink" x="0px" y="0px"
	 viewBox="0 0 16 16" enable-background="new 0 0 16 16" xml:space="preserve">
<g>
	<path d="M7.2,13.1C7.1,13.1,7.1,13.1,7.2,13.1C7.1,13.2,7.2,13.2,7.2,13.1z"/>
	<path d="M6.7,14.6L6.7,14.6C6.7,14.5,6.7,14.5,6.7,14.6C6.7,14.5,6.7,14.5,6.7,14.6C6.7,14.5,6.6,14.6,6.7,14.6
		C6.6,14.6,6.7,14.6,6.7,14.6L6.7,14.6z"/>
	<path d="M6.7,14.5"/>
	<path d="M13.6,3.6c0-0.4-0.1-0.8-0.2-1c-0.1-0.3,0-0.2-0.1-0.5c0-0.1,0.1,0,0.1,0C13.3,2,13.1,1.8,13,1.7l0.1,0
		c-0.1-0.1-0.3-0.1-0.5-0.4c-0.1-0.1-0.1-0.1-0.2-0.2c0-0.2-0.4-0.6-0.4-0.6c-0.2-0.1-0.1-0.1-0.2-0.2c0,0-0.3-0.1-0.6-0.1
		C10-0.1,9.3,0,7.9,0.1c0,0-0.5,0-0.5,0c-0.4,0.1-2.8,0-2.8,0c0,0-1.1,1.1-1.1,1.1c-0.2,0.2,0,0.3,0,0.3c0,0-0.1,0-0.2,0.2
		c0,0.1-0.1,0.3-0.2,0.5C2.9,2.3,2.7,2.5,2.8,2.6c0,0-0.1,0.2-0.1,0.2c0,0.1-0.1,0.2-0.1,0.4c0,0.1-0.1,0.4-0.1,0.3
		C2.4,3.6,2.3,4.1,2.3,4.5c0,0.5,0,1,0.1,1.5l0,0.2l0.1,0.3c0,0.2,0.1,0.3,0.2,0.5C2.9,7.3,3,7.6,3.2,7.9C3.6,8.3,4,8.6,4.2,8.8
		C4.1,8.6,4.9,9.2,4.9,9.2c0.5,0.2,0.6,0.2,0.6,0.2c0,0,0.1,0.1,0.5,0.2c0.4,0.1,0.6,0.1,0.8,0.1c0,0.1,0,0.3,0,0.3c0,0,0,0,0,0.1
		c0.1,0,0,0.3,0.1,0.3l0,1.3c0.1,0.2,0,0,0,0.2C6.9,11.8,7,12,7,12c0,0,0,0.4,0,0.4c0,0.1,0,0.1,0,0.2v0c0,0,0.1,0.3,0.1,0.3
		c0,0,0.1,1.5,0.1,1.5c0,0-0.4,0.1-0.3,0.1c0,0-0.1,0-0.1,0c0,0-1,0.1-1.1,0.1c0,0-0.6-0.1-0.6-0.1c0,0-0.1,0-0.2,0.2
		c0,0.1-0.4,0.3-0.4,0.5c0,0.2,0.3,0.6,0.3,0.6c0,0,0.3,0.1,0.3,0.1c0,0,0.5,0,0.6,0c0,0,0.9,0,1,0l0,0c0.3,0,0.9,0,1.1,0
		c0,0,0.2,0,0.3,0c0,0,0.9,0,1,0.1c0.1-0.1,0.2,0,0.3,0c0,0,0.5,0.1,0.6,0.1l0,0c0.1,0,0.4-0.1,0.4-0.1l0.6,0.2l0,0
		c0,0,0.2-0.1,0.2-0.4c0-0.3-0.1-0.9-0.1-0.9s-0.1,0-0.1,0c0,0,0-0.1,0-0.1c-0.3-0.1-0.8-0.1-0.7-0.1c-0.1,0-0.2,0-0.2,0
		c0,0-0.4,0-0.4,0c0,0-0.3,0-0.3,0c0,0-0.1,0,0,0c-0.1,0-0.2,0-0.4,0c0,0,0,0,0-0.1c0-0.1,0-1,0-1c0,0-0.2-1.6-0.2-1.6
		c0-0.2,0,0-0.1-0.2c0-0.2,0-0.9,0-1.1c-0.1-0.1,0-0.2-0.1-0.3l0,0c0-0.1,0-0.2,0-0.4c0.3,0,0.5,0,0.6-0.1c0,0,0.8-0.1,1.1-0.3
		l-0.1,0c0.2-0.1,0.8-0.4,1.3-0.7c0.6-0.4,1-0.9,1.1-1.1c0,0,0.1,0.1,0,0.1c0.1-0.1,0.4-0.4,0.6-0.9c0.2-0.4,0.5-1,0.6-1.6
		C13.7,4.5,13.7,4,13.6,3.6z"/>
</g>
</svg>
