<?xml version="1.0" encoding="utf-8"?>
<!-- Generator: Adobe Illustrator 18.0.0, SVG Export Plug-In . SVG Version: 6.00 Build 0)  -->
<!DOCTYPE svg PUBLIC "-//W3C//DTD SVG 1.1//EN" "http://www.w3.org/Graphics/SVG/1.1/DTD/svg11.dtd">
<svg version="1.1" id="Layer_1" xmlns="http://www.w3.org/2000/svg" xmlns:xlink="http://www.w3.org/1999/xlink" x="0px" y="0px"
	 viewBox="0 0 841.9 595.3" enable-background="new 0 0 841.9 595.3" xml:space="preserve">
<g>
	<path d="M400.3,447.7l-1.4,1.1c-0.3-0.3-0.6-1.2-0.9-1.9c-0.1,0.8-0.2,1.4-0.3,1.8c0.5,0.2,1.9,0.4,2.9,0.6c0-0.4,0-0.9,0.1-1.1
		L400.3,447.7z"/>
	<path d="M397.6,448.8c-0.2-0.1-0.4-0.1-0.3-0.1C397.4,449.5,397.5,449.4,397.6,448.8z"/>
	<path d="M384,490.7l-0.8-1.5c0.3-0.3,1.1-0.6,1.6-0.9c-0.7-0.1-1.2-0.3-1.5-0.4c-0.2,0.5-0.5,1.9-0.7,2.9c0.3,0,0.8,0.1,0.9,0.1
		L384,490.7z"/>
	<path d="M383.2,488c0.1-0.2,0.1-0.4,0.1-0.3C382.6,487.7,382.8,487.9,383.2,488z"/>
	<path d="M584,174c-1.2-12.9-4-23.8-5.4-28.9c-1.7-8.6,2.7-2.6,3.1-2.6c-4.5-9.9-3.6-3.6-7.2-12.2c-0.8-2.5,1.8-0.3,2.7,1
		c-2-3.7-3.3-7.6-4.3-7.4c1.9,5.1-1.6,4.3-2.2,7c-1.7-3.6-3.6-7.1-5.8-10.6l1.7-0.5c-1.7-2.3-7.3-3.4-14.9-12.5
		c-1.6-1.7-3.6-3.1-5.4-4.7c-0.4-5.4-2.3-10.3-6.3-13.8l0.8-1.5l-4.7-0.9c-5.4-2.1-8.4-0.8-7.6-2.3l7.6,2c-5.5-1.8-1.4-1.8,1-2.1
		c-2.3-0.7-4.5-1.5-6.3-2.4c-1.3,0.4,0.7,0.9,1.4,1.4c-3.2-0.1-7.7,0.5-11.2-1.1c-5.7-1.3,0.2-2.8-6.5-4.3
		c-35.4-8.1-55.3-7-95.5-4.2c-1-0.6-15.3,0.2-14.2-0.2c-12.1,1.5-25.5-0.8-36.9,2.4c-3.4-0.1-43.4-2.4-44.5-2.8c1.1,0.5-0.9,1-18,9
		c-17.2,7.5-6.6,18.1-7,18.6l-6.5,2.8c-5.7,5.3,0.8,9-0.5,9.1c-1.2,0.2-2.5,0.3-6.9,6.5c-0.1,3.6-3.8,8.5-7.1,13.5
		c-3.4,5-6.4,10.2-6.3,12.9c-0.4-0.3-3,6.2-4.1,5.4c1.4,2.8-1.9,7-2.4,11.3c0.2,1.7,1-0.9,2-1.8c-0.7,3.2-1.1,6.4-1.6,9.5
		c-1.5,3.5-3,4.1-2.4,0.1c-1.5,6.1-3.7,18-3.9,31.9c-0.4,14,1.2,29.7,4,44.5l1.2,5.8l1.8,7.2c1.4,4.8,3.1,9.5,4.9,14
		c3.8,9,8.7,17.2,13.9,24c10.3,13.7,21,22,26.8,25.8c-1.8-3.5-9.3-8-9.8-12.5c6.4,3.9,7.9,7.5,11.4,8.1c-0.2,5.2,12.3,9.7,15,15.6
		l2.9-1.1l2.4,2.8c14.3,5.3,16,5,17.1,5.7c1.2,0.3,1.8,1.5,14,5.1c10.7,2.4,17.3,1.7,23.2,2c0.2,3.5,0.2,7.3,0.1,7.4l2,0.1
		c0.1,2.6-2.3,0.8-1.7,3.2c2.8,0.9-0.2,3.9,1.3,4.7c-0.2,0-0.3,1.1-1.2,1.1c1.6,0.3,0.4,1.2,0.8,1.9c0.4,0.2,0.4-0.2,0.9-0.4
		l0.6,1.7c-0.5,0.7-1.4,0.8-1.6,0.1c-0.5,4.4-1.4,25.3-0.5,29.9c1.1-0.6,0.3-2.1,2.1-2.7c1.1,1.2-0.3,1.8,0.8,2.3
		c-2.7,0.6-0.6,2.7-3.3,3.7l1.6,0.3l-0.9,0.7c1.8,5.4,0.8,1.2,0.6,6c0.3,2.8,2.5,4,1.7,5.6c0-0.2,0.9-0.9,1.4-0.2
		c-1.4,0.2,1,1.9-0.3,2.3c0.2,0.7,0.1,3,1.9,2.2c-0.9,0.4-1.2,2.5-2,1.3c-0.1,0.7-0.3,1.3,0.1,1.8l0.5-0.9c0.3,2.3-1.1,3.6,0.7,5.1
		l0.7-0.9c0.2,1.4,0.3,2.5-1.5,3.1l-0.6-1.4c0.1,2.3,0.3,3.7,1.3,5.6l0-0.7c1,1.2,2,5.3,3,9.1c0,0-0.2-0.1-0.2-0.1
		c0.1,0.3,0.2,0.2,0.3,0.4c0.2,0.7,0.4,1.3,0.6,2c-0.3-0.1-0.7-0.2-0.8-0.4c0.2,0.7-0.3,1.3,0.3,1.4c0.1-0.2,0.4-0.2,0.7-0.3
		c0.4,1.3,0.8,2.3,1.2,3.2c0.1-1.1,0.3-2.4,0.3-3.6c0.4,0,0.8,0,1.2-0.1l-0.2,2l-1.9-0.1c0,0.4,1.6,1.1,1.6,3.1c0,0,0,0.1,0,0.1
		l1.7,1.4c0-0.1,0-0.2-0.6-0.3c-0.4,5.9,0.1,31-0.2,34c-0.7-0.1-1-0.8-1.3-1.5c0,0.4,0.2,1.1-0.3,1.5c0.4-0.3,0.6,0,0.7,0.3
		c-0.5,0.1-1,0-1.5,0.3l0.6,0.1c-1.1,0.9-4.6,1.7-7.9,2.5c0,0,0.1-0.2,0.1-0.2c-0.2,0.1-0.2,0.2-0.4,0.3c-0.6,0.1-1,0.3-1.6,0.4
		c0.1-0.3,0.1-0.6,0.2-0.7c-0.6,0.1-1.1-0.4-1.2,0.3c0.2,0.1,0.1,0.5,0.2,0.7c-1.1,0.3-2,0.7-2.8,1.1c0.9,0.2,2,0.4,3.1,0.5
		c0,0.4,0,0.8,0.1,1.2l-1.7-0.3l0.1,8.5c-0.4-0.1-1.1,11.9-2.8,11.9c0,0-0.1,0-0.1,0l-1.2-8.8c0.1,0,0.2-5.2,0.3-5.8
		c-5-0.7-26.2-4.1-28.7-4.6c0.1-0.7,0.7-2.2,1.3-2.6c-0.4-0.1-0.9-0.5-1.2-1c0.6,1.2-1.2,0.4-0.7,0.9c-2.3,2.5-15.2-1-17.1,0.6
		c-0.1,0.8-4.1-1.1-5.3,4.7c-0.3,1.5-13.2,10.1-16.2,15.5c-4.5,8,4.7-7.3,3.7-2.3c-1.3,6.3,9.4,17.4,9.2,18.4
		c-0.7-0.1-1.3-0.3-1.5-0.6c0.1,0.7,1.4,1.2,2.1,0.9l0.3-1.5c1.6-0.3,0.3,1,1.8,1.1c0,1.3-1.5,1.4-2.8,1.3c1.1,0.3,2.2,1.4,2.8,0.1
		c1,0.7-0.3,1.5,0.9,2.2c0.9-0.3,2.2-1.4,3.2-0.5l0,0.2c2.3,1.5,14.5-0.9,16.5,0.6l-0.3,0.4c0.7,0.8,2.3-0.1,3.6,0.8
		c-0.4-0.3-0.6-1.2,0.2-1.3c1.5,0.9,23.8,1.5,24.9,2.6l1.2-1.2c5.5,0.7-5-2.1,0.2-2.2l-0.2,0.2c8.1-0.3,24.7,0.2,33-1.3
		c1.2,1.3,3,1,4.3,1.4c-0.7-0.5-0.4-1.4,0.1-1.3c3.2,0.2,1.7-0.4,2.8-0.9c0.8,0.7,1.6,1.3,2.3,1.7c5.1,2.9,1.1,0.3-1.6-1.9
		c0.3-0.1,0.4-0.1,0.9-0.2c4.8-1,22.9,0.8,27,2c2.3-1.7,5.1-0.3,7.3-1.3l-0.3,0.4c2.4-0.6,15.7,1.6,18.4,1.1l-0.4-0.3
		c2.4-1,2,1,3.8,1.7c-0.1-2,2-3.1,2.8-3.2L481,527c1.2-0.3,3.9-1.9,5.9-2l-0.1,1.1c1.7-1.1,4.7-0.4,5.8-0.4c2.6,0.6,6.5,2.9,10,1.8
		l1.9,3.4l0.4-0.3c-0.1,0,4.7-1.9,5.4-12.9c0.6-9.2,8.9-11.1-2.8-25.8l0.2-1.1l-1,0c-1.1-0.6-1.8,0.6-1.6-0.5l1.6,0.3
		c-1.1-0.4-0.3-0.9,0.2-1.5c-0.5-0.2-1-0.3-1.3-0.7c-0.3,0.4,0.1,0.5,0.3,0.7c-0.7,0.3-1.6,1.3-2.4,0.7c-1.2-0.2,0.1-1.8-1.3-2
		c-7.4-1.5-14.4-3.2-21.8-3.4c-0.2-0.5,0.1-0.4,0.3-0.6c-2.2,0.4-4.2,0.1-6.2,0.5c-0.5-0.5-0.6-1.2-0.8-1.7
		c0.3,0.9-11.2,0.5-11.3,0.3l-0.2,2c-2.2-0.1-0.5-2.3-2.6-1.9c-0.9,2.8-3.3-0.4-4.1,1.1c0-0.2-0.9-0.3-0.9-1.2
		c-0.4,1.5-1,0.3-1.7,0.7c-0.2,0.4,0.1,0.5,0.3,0.9l-1.4,0.5c-0.5-0.5-0.6-1.4,0-1.6c-1.6-0.3-5.9-0.8-10.5-1.3
		c0-0.6-0.1-1.2,0.2-1.8c-0.3,0.5-1.2,0.8-1.3-0.1c0.8-1.9,0-28.1,1-29.5l-1.2-1.3c0.3-6.5-1.8,6.1-2.2-0.1l0.2,0.2
		c-0.8-9.6-1.3-29.1-3.3-38.9c1.2-1.6,0.8-3.6,1.1-5.2c-0.5,0.9-1.4,0.6-1.3-0.1c0-4.8-0.9-0.3-1.5-5.2c-1.3-5.6-0.6-27,0.3-32
		c-1.9-2.6-0.6-6-1.8-8.5l0.4,0.3c-0.4-1.5-0.2-6.8,0-11.8c7.7-0.3,13-0.2,18.6-3.1l-4.3-0.4c6.7-1.2,12.1-2.5,15.4-0.4l-6.7,2.2
		c11.2-2.2,17.9-4.2,26.5-8.6l-3.2,1c5.4-3.1,22.9-10.2,38.6-21.2c15.9-10.6,29.2-25.3,31.7-30.9l-5.2,2.3c1.9-2.8,3.7-5.5,5.4-8.3
		c-0.7,0.8,2,8.2,0.7,8.5c3.7-3.9,11.2-12.4,18.4-24.8c7.1-12.4,13.4-28.9,15.8-45.7C585.7,200.8,585.1,187.3,584,174z"/>
</g>
</svg>
