<svg xmlns="http://www.w3.org/2000/svg" viewBox="0 0 497.87 497.87"><path d="M477.6 228.6H424c-9.8-80-74-143.6-154.7-153V20.2C269.3 9 260 0 249 0c-11.3 0-20.4 9-20.4 20.3v55c-81.3 9-146.2 72.8-156 153.3H20.2C9 228.6 0 237.6 0 249s9 20.3 20.3 20.3h52c9 81.5 74.2 146.4 156.3 155.4v52.8c0 11.3 9 20.4 20.3 20.4 11.2 0 20.3-9.2 20.3-20.5v-53c81.4-9.6 146-74.2 155-155.2h53.2c11.3 0 20.4-9 20.4-20.4s-9.2-20.4-20.4-20.4zM269.3 383.4v-67c0-11.3-9-20.4-20.4-20.4-11.3 0-20.4 9-20.4 20.4v67.2C169 375 122 328.3 113.3 269.3h68.2c11.2 0 20.3-9 20.3-20.4s-9-20.4-20.3-20.4h-68c9.5-58 56.2-103.7 115-112.2v65c0 11.4 9.2 20.4 20.4 20.4s20.3-9 20.3-20.3v-65c58.2 9 104.2 54.5 113.5 112h-66.4c-11.3 0-20.3 9.2-20.3 20.4s9.2 20.3 20.4 20.3h66.8c-8.6 58.5-55 105-114 114z"/></svg>
