<?xml version="1.0" encoding="utf-8"?>
<!-- Svg Vector Icons : http://www.onlinewebfonts.com/icon -->
<!DOCTYPE svg PUBLIC "-//W3C//DTD SVG 1.1//EN" "http://www.w3.org/Graphics/SVG/1.1/DTD/svg11.dtd">
<svg version="1.1" xmlns="http://www.w3.org/2000/svg" xmlns:xlink="http://www.w3.org/1999/xlink" x="0px" y="0px" viewBox="0 0 1000 1000" enable-background="new 0 0 1000 1000" xml:space="preserve">
<metadata> Svg Vector Icons : http://www.onlinewebfonts.com/icon </metadata>
<g><g transform="translate(0.000000,512.000000) scale(0.100000,-0.100000)"><path d="M4818.1,4992.7C4730,4964,4548,4787.8,2456,2699.6C867.8,1113.4,178.1,412.2,151.3,356.6C93.9,237.9,84.3,90.4,124.5-43.7c34.5-113,42.1-120.7,2297-2379.3c1586.2-1588.2,2287.4-2277.8,2343-2304.6c116.9-55.6,264.4-67.1,400.4-28.7l113,32.5l2266.3,2264.4C9132.3-873.3,9822-170.2,9848.8-114.6c55.6,116.9,67.1,264.4,28.7,400.4l-32.5,113L7580.6,2665.1C5864.1,4381.6,5295.1,4939.1,5230,4969.8C5115,5025.3,4940.7,5034.9,4818.1,4992.7z M6421.6,1404.6c398.5-331.4,722.2-607.3,724.2-613c0-11.5-1450.2-1231.8-1477.1-1241.4c-9.6-3.8-17.2,155.2-17.2,367.8v375.5h-498.1h-498.1V-750.6v-1044.1h-498.1h-498.1v1532.6v1532.6h996.2h996.2l1.9,53.6c0,28.7,0,197.3,0,373.6c-1.9,251,3.8,321.8,23,316.1C5689.7,2009.9,6025,1736,6421.6,1404.6z"/></g></g>
</svg>