<?xml version="1.0" encoding="UTF-8" standalone="no"?>
<!-- Generated by IcoMoon.io -->
<svg viewBox="0 0 32 32" width="32" xmlns="http://www.w3.org/2000/svg" version="1.1" height="32">
    <path d="m15.813 17.125l0.188 0.125c-0.063-0.063-0.125-0.125-0.188-0.125zm-15.688 4.375l-0.125 0.375c0.063 0.25 0.375 0.5 0.563 0.75-0.063-0.125 0.188-0.188 0.313 0 0.875 1.25 3.313 1.625 3.313 1.625s3.563 0.125 5.188-1.188l-0.063 0.063c1.563-0.875 5.188-2.375 5.188-2.375s0.313 0.063 0.5 0.125c-0.125 0-0.063-0.063 0.063-0.063 2.375 0.563 4.313 2.375 6.688 3h-0.063c1.375 0.438 2.813 1.125 4.25 0.938h-0.063c0.75-0.125 1-0.125 1.625-0.375 0.313-0.063 0.875-0.5 1.25-0.75v0.125c1.125-0.938 2.125-1.875 3.125-2.938v-0.125c0.125-0.125 0.063 0-0.688-0.25-0.063-0.063 0.188-0.5 0.063-0.563-0.688-0.5-1.688-0.875-1.75-0.813 0 0-0.688 0.563-0.813 0.563-0.563 0.688-1.688 1.5-2.625 1.688v-0.063c-0.25 0.125-0.5 0.125-0.75 0.125l-0.125-0.125-1.563-0.313-0.688 0.125-0.563-0.625s-0.563-0.188-0.438-0.188c-1.438-0.875-3-1.875-4.563-2.375 0.063 0.063-0.25 0.438-0.25 0.438l-0.625-0.688c-0.938-0.188-1.75-0.125-2.688-0.188 0.063 0 0.188 0.063 0.063 0.125-0.125-0.188-1 0.25-1 0.25-0.125-0.125-1.313 0.5-1.5 0.375l-0.75 0.688c-0.375 0.25-2.625 1.688-2.625 1.688 0.063 0-0.25-0.25-0.188-0.25-0.938 0.438-2.25 1.063-2.938 0.75-0.125-0.063-1.125-0.25-1.313-0.438-0.313-0.25-1-0.75-1-0.625-0.375-0.188-0.438-0.688-0.688-0.938zm30.688-6.25c-0.125-0.063 0.125-0.5 0.063-0.625-0.75-0.438-1.688-0.813-1.75-0.75 0 0-0.688 0.5-0.75 0.563-0.563 0.688-1.688 1.438-2.563 1.625v-0.063c-0.25 0.125-0.438 0.125-0.688 0.125-0.063 0-0.125-0.125-0.125-0.125l-1.563-0.313-0.625 0.125-0.563-0.625s-0.563-0.188-0.438-0.188c-1.188-0.688-2.688-1-4-1.5-0.188 0.125-0.063-0.125-0.188 0-0.313 0.375-0.688 0.75-1.063 1.063-0.375 0.375 0.688 0.75 0.438 1.188 2.313 0.813 0.75 0.875 2.625 1.375l2.188 1.25c1.313 0.438 2.313 1.313 3.813 1.063h0.188c0.75-0.125 0.625-0.063 1.875-0.375v0.063c0-0.125 0.563-0.5 0.938-0.75h-0.125c1.125-0.938 1.125-1.125 2.125-2.125l0.313-0.688c0.188-0.188 0.625-0.063-0.125-0.313zm0.312-5.437c0.063-0.063-0.375-0.5-0.5-0.625-0.688-0.438-1.625-0.813-1.688-0.813 0 0-0.688 0.5-0.813 0.625-0.5 0.625-1.625 1.375-2.5 1.625v-0.063c-0.25 0.063-0.5 0.063-0.75 0.063l-0.063-0.063-1.563-0.313-0.375 0.688-0.313-0.938s-1.125-0.438-1-0.438c-0.563-0.375-1.188-0.563-1.875-0.813-0.063 0.063-0.188 0.125-0.313 0.125-0.125 0.25-0.313 0.438-0.625 0.5 0.063 0.188 0.125 0.313 0.125 0.5 0 0.5 0.063 1.25 0 1.75 0.125 0 0.188-0.063 0.5 0l2.25 1.188c1.25 0.375 2 0.75 3.5 0.75h0.625c0.75 0 0.75 0.313 0.75 0v0.063c1.25-0.125 1.125-0.5 1.438-0.75l0.938-0.375c1.063-0.938 0.5-0.688 1.5-1.688v-0.563c0.125-0.125-0.5 0.125 0.75-0.438zm-14.187-0.188l-0.313-0.563-0.125-0.938-1.375-1.438c-0.563-0.313-1-0.375-1.625-0.625 0.063 0-1.125-0.125-1.188-0.063 0 0-1.438 0.25-1.688 0.375l-2.188 1.625 0.063 0.125c0.063 0-0.688 0.25-0.625 0.25-0.438 0.688-2.5 4.063-2.5 4.063l0.375 0.188-0.25 0.125-1.625-0.75v0.063l-0.25-0.25-0.938-0.625-0.313 0.125-0.563 0.375-0.188 0.5 0.063 0.438-0.063 0.25c0.063 0.063 1 4.75 1 4.75s0.125 1 0.813 1l0.938-0.25s0.313-0.5 0.313-0.5l1.25-2.125c0.063-0.063 0.188-0.188 0.313-0.375 0.25 0.25 0.563 0.5 0.688 0.5 0.063 0 0.188-0.188 0.438-0.375 1.125 0.75 2.625 0.438 3.875 0.063 0.063 0-0.125 0.313-0.188 0.375 1.125-0.438 2.188-1.313 3.313-1.75l0.125-0.188 1.625-1.188 0.875-1.063-0.063-1.688zm-2.75-0.812l-0.063 0.375-0.125 0.188s-0.125 0-0.188 0.063l-0.125 0.188h-0.25-0.25-0.313s-0.438-0.188-0.5-0.5c0 0 0-0.25 0.063-0.313s0.188-0.375 0.25-0.5c0.125-0.188 0.188-0.188 0.375-0.25 0-0.063 0.313-0.188 0.313-0.188s0.25 0 0.25 0c0.125 0.063 0.313 0.25 0.313 0.25s0.063 0 0.063 0 0.125 0.188 0.188 0.188l0.125-0.063c-0.125 0.125-0.125 0.5-0.125 0.563z"/>
</svg>
