<?xml version="1.0" encoding="utf-8"?>
<!-- Generator: Adobe Illustrator 18.0.0, SVG Export Plug-In . SVG Version: 6.00 Build 0)  -->
<!DOCTYPE svg PUBLIC "-//W3C//DTD SVG 1.1//EN" "http://www.w3.org/Graphics/SVG/1.1/DTD/svg11.dtd">
<svg version="1.1" id="Layer_1" xmlns="http://www.w3.org/2000/svg" xmlns:xlink="http://www.w3.org/1999/xlink" x="0px" y="0px"
	 viewBox="0 0 16 16" enable-background="new 0 0 16 16" xml:space="preserve">
<g>
	<path d="M15.6,10.2c0,0,0.1-0.3,0-0.3c-0.3-0.2-0.8-0.4-0.9-0.4c0,0-0.3,0.3-0.4,0.3c-0.3,0.3-0.8,0.7-1.3,0.8c0,0,0,0,0,0
		c-0.1,0-0.3,0-0.4,0c0,0-0.1,0-0.1,0l-0.8-0.2l-0.3,0l-0.3-0.3c0,0-0.3-0.1-0.2-0.1c-0.7-0.4-1.5-1-2.3-1.2c0,0-0.1,0.2-0.1,0.2
		L8.3,8.8c-0.5-0.1-0.9,0-1.3-0.1c0,0,0.1,0,0,0c0-0.1-0.5,0.1-0.5,0.1c-0.1,0-0.7,0.3-0.8,0.2L5.3,9.4C5.1,9.6,4,10.3,4,10.3
		c0,0-0.1-0.1-0.1-0.1c-0.5,0.2-1.1,0.5-1.5,0.4c-0.1,0-0.6-0.1-0.7-0.2C1.6,10.2,1.3,10,1.3,10C1.1,9.9,1,9.6,0.9,9.5L0,10.8L0,11
		c0,0.1,0.2,0.2,0.3,0.3c0,0,0.1-0.1,0.2,0c0.4,0.6,1.6,0.8,1.6,0.8s1.8,0,2.6-0.6l0,0c0.8-0.4,2.6-1.2,2.6-1.2s0.2,0,0.3,0.1
		c0,0,0-0.1,0-0.1c1.2,0.3,2.1,1.2,3.3,1.5h0c0.7,0.2,1.4,0.6,2.1,0.5c0.4-0.1,0.5,0,0.8-0.2v0c0.2-0.1,0.5-0.3,0.6-0.4v0
		c0.5-0.5,1.1-1,1.6-1.5v0C16,10.3,16,10.3,15.6,10.2z"/>
	<path d="M13,12.4C13,12.4,12.9,12.4,13,12.4C12.9,12.4,12.9,12.4,13,12.4L13,12.4z"/>
	<path d="M8.5,7.9c1.2,0.4,0.4,0.5,1.3,0.7l1.1,0.7c0.6,0.2,1.2,0.6,1.9,0.5h0.1c0.4-0.1,0.3,0,0.9-0.2v0c0,0,0.3-0.3,0.5-0.4
		l-0.1,0c0.5-0.5,0.6-0.6,1.1-1.1l0.1-0.4c0.1-0.1,0.3,0-0.1-0.1c-0.1,0,0.1-0.3,0-0.3c-0.3-0.2-0.8-0.4-0.8-0.4
		c0,0-0.4,0.3-0.4,0.3c-0.3,0.3-0.8,0.7-1.3,0.8v0c-0.1,0-0.2,0-0.4,0c0,0,0,0,0,0l-0.8-0.2l-0.3,0l-0.3-0.3c0,0-0.3-0.1-0.2-0.1
		c-0.6-0.4-1.4-0.5-2-0.8c-0.1,0.1,0-0.1-0.1,0C8.7,7,8.5,7.1,8.3,7.3C8.1,7.5,8.6,7.6,8.5,7.9z"/>
	<path d="M9.4,5.8c0.1,0,0.1,0,0.3,0l1.1,0.6c0.7,0.2,1,0.4,1.8,0.4h0.3c0.4,0,0.4,0.2,0.4,0v0c0.6,0,0.5-0.3,0.7-0.4l0.5-0.2
		c0.5-0.5,0.3-0.4,0.8-0.9l0-0.3c0-0.1-0.3,0.1,0.3-0.2c0,0-0.2-0.3-0.2-0.3c-0.4-0.2-0.8-0.4-0.9-0.4c0,0-0.3,0.3-0.4,0.3
		c-0.3,0.3-0.8,0.7-1.3,0.8v0c-0.1,0.1-0.2,0.1-0.3,0.1c0,0,0-0.1,0-0.1l-0.8-0.1l-0.2,0.3L11.3,5c0,0-0.6-0.2-0.5-0.2
		c-0.3-0.2-0.6-0.3-0.9-0.4c0,0-0.1,0-0.1,0.1C9.6,4.5,9.5,4.6,9.4,4.7c0,0.1,0,0.1,0,0.3C9.4,5.2,9.5,5.5,9.4,5.8z"/>
	<path d="M0.8,6.4c0,0,0.5,2.4,0.5,2.4s0,0.5,0.4,0.5l0.5-0.2l0.1-0.3l0.6-1c0,0,0.1-0.1,0.2-0.2C3.3,7.8,3.4,8,3.5,8
		c0,0,0.1-0.1,0.2-0.2C4.3,8.1,5,8,5.6,7.8c0,0-0.1,0.2-0.1,0.2c0.6-0.2,1.1-0.6,1.6-0.9L7.3,7L8,6.4l0.5-0.5l0-0.9V4.8L8.3,4.5
		L8.3,4.1L7.6,3.3C7.3,3.2,7,3.1,6.8,3c0,0-0.5,0-0.6,0c0,0-0.7,0.1-0.9,0.2L4.2,4l0,0.1c0,0-0.3,0.1-0.3,0.1c-0.2,0.3-1.3,2-1.3,2
		l0.2,0.1L2.8,6.4L2,6v0h0L1.8,5.9L1.3,5.6l-0.2,0L0.9,5.8L0.8,6.1l0,0.2L0.8,6.4z M6.2,4.4c0,0,0.1-0.2,0.1-0.3
		C6.4,4.1,6.4,4,6.5,4C6.5,4,6.7,4,6.7,4c0,0,0.1,0,0.1,0C6.9,4,7,4,7,4s0,0,0,0c0,0,0.1,0.1,0.1,0.1l0.1,0C7.1,4.2,7.1,4.4,7.1,4.4
		l0,0.2L7,4.7c0,0-0.1,0-0.1,0L6.8,4.8c0,0-0.1,0-0.1,0c0,0,0,0-0.1,0c0,0-0.1,0-0.1,0c0,0-0.2-0.1-0.3-0.3C6.2,4.5,6.2,4.4,6.2,4.4
		z"/>
</g>
</svg>
