<?xml version="1.0" encoding="utf-8"?>
<!-- Generator: Adobe Illustrator 18.0.0, SVG Export Plug-In . SVG Version: 6.00 Build 0)  -->
<!DOCTYPE svg PUBLIC "-//W3C//DTD SVG 1.1//EN" "http://www.w3.org/Graphics/SVG/1.1/DTD/svg11.dtd">
<svg version="1.1" id="Layer_1" xmlns="http://www.w3.org/2000/svg" xmlns:xlink="http://www.w3.org/1999/xlink" x="0px" y="0px"
	 viewBox="0 0 16 16" enable-background="new 0 0 16 16" xml:space="preserve">
<path d="M14.2,6c0,0,0.6-0.1-0.1-0.4c-0.5-0.2-1-1-1-1c-0.1-0.1-0.2-0.2-0.3-0.3l0,0l0-0.1l0.1,0V3.9c0,0,0-0.2,0-0.2
	c0-0.1,0-0.2,0-0.2l0,0c0-0.1,0-2.4,0-2.7c0,0,0,0,0,0l-0.5-0.2c0,0-0.8,0.1-1.2,0.3c0,0-0.1,0.1-0.1,0.1c0,0.1,0,0.3,0,0.3l0.1,1.2
	c-0.3-0.3-0.5-0.6-0.5-0.6S9.7,0.8,8.6,0c0,0-0.4,0.2-0.4,0.2c-1,0.3-1.8,1.4-2.1,1.6C5.3,2.4,5.3,2.6,4.7,3C4.4,3.5,3.8,4,3.1,4.4
	c-0.5,0.7-1.3,1.1-2,1.7C1.2,6.3,0.3,7,0.5,7.3c0.2,0.4,1.5,0.4,1.4,0.4c0,0,0.3,0,0.8-0.1c0,0.3,0.1,0.7,0.1,1
	c0.1,4.5-0.1,3.4,0,5.9c0.1,1.5,0.2,0.8,1.3,1.1c0.7,0.2,0,0.4,0.9,0c0,0,0.7,0,0.9,0.1l0.3,0c0-0.2,0-0.5,0.1-0.7
	C6.6,14.9,6,14,6.3,13.6c0-0.1,0.3-0.3,0.3-0.3c0,0-0.2-0.1-0.2-0.2c0,0,0-0.1,0-0.1c0-0.2,0-0.8,0-0.8c0.1-0.1,0.2-0.3,0.3-0.3
	c0,0,0.5,0.2,1.1,0.2c0.8,0,1-0.1,1.5,0c0.5,0.1,0.3,1.7,0.2,1.7c-0.1,0.4-0.1,1.3-0.1,1.7c0,0.2,0.3,0.2,0,0.3
	c-0.1,0-0.1,0.3-0.1,0.3c0.2,0,0.4-0.1,0.7-0.2c0.1,0,0.6,0.1,0.6,0.1c0.1-0.1,0.4-0.2,0.8-0.2c0.8,0.1,0.4,0.1,0.7,0
	c0,0,0.4,0,0.6,0.1c0.1-0.1,0.7,0,1-0.4c0.2-0.3,0.1-0.9,0.2-1.7c0,0.1,0.2-4.1-0.2-6.1c0-0.1,0-0.1,0-0.2c0.9,0,1.8-0.1,1.8-0.1
	S16.3,6.9,14.2,6z M12.4,10c0,0,0,0.1-0.1,0.2c0,0,0,0.2,0,0.2l-0.1,0.4l-0.1,0l0,0.1l0,0.1c0,0-0.2,0.3-1.6-0.1
	c-0.5-0.1-0.2-0.6-0.2-0.6l0-1.1c0-0.1,0-0.2,0.1-0.4c0,0,0.1-0.1,0.1-0.1c0.5-0.1,1.4-0.1,1.4-0.1l0.5,0.3c0,0,0,0,0,0
	C12.5,9.3,12.4,9.8,12.4,10L12.4,10z"/>
</svg>
