<?xml version="1.0" encoding="utf-8"?>
<!-- Generator: Adobe Illustrator 18.0.0, SVG Export Plug-In . SVG Version: 6.00 Build 0)  -->
<!DOCTYPE svg PUBLIC "-//W3C//DTD SVG 1.1//EN" "http://www.w3.org/Graphics/SVG/1.1/DTD/svg11.dtd">
<svg version="1.1" id="Layer_1" xmlns="http://www.w3.org/2000/svg" xmlns:xlink="http://www.w3.org/1999/xlink" x="0px" y="0px"
	 viewBox="0 0 841.9 595.3" enable-background="new 0 0 841.9 595.3" xml:space="preserve">
<path d="M594.8,237.3c-0.6-1.4,18.3-3.5-2.1-12.1c-14.6-6.1-29-29.5-29.4-29.8c-3.5-3.2-6.6-6.4-9.9-9.6l-0.7-1.2l0.7-2l2.1,0.1
	l0-9.3c0,0-0.8-4.6-1-5.6c0.8-1.8,0.9-4.5,0.9-4.5l-1.4-1.4c0-4.1,0.6-71.6-0.2-81.2c-0.2-0.1-0.6-0.4-0.6-0.4l-15.1-5.6
	c0,0-23.9,3.3-35.2,7.9c-0.9,1.1-1.8,2.1-2.8,3c0.1,4.3,0.1,8-0.2,9.4l1.6,35.9c-8.4-10.1-14.8-18.3-14.8-18.3s-26.6-31.6-60.3-54.8
	c-0.9-0.6-12.1,6.6-13.1,6.9c-30.2,8.9-54.8,41.4-63.1,47.4c-22.4,16.3-23.7,25-42.5,34.3c-7,15.9-26.8,31.1-46.8,44
	c-13.8,21.2-37.6,31.8-59.7,51.7c2.4,4-24.4,25.5-19.1,36.1c5.7,11.3,43.5,11.7,43,11.8c0.3,0,9.7-0.6,23.1-1.5
	c-0.8,7.8,3.2,20.5,3.4,30.9c2.9,134.2-2.4,100.8,1,177.3c1.9,44.6,4.5,24.5,37.7,33.9c19.7,5.6-1.1,11.9,25.6,1.3
	c0,0,20.6,1.1,27.2,2.7l10,1.3c0.6-7.4,1.1-14.7,1.5-21.3c11.2-10.8-5.5-35.7,2.7-48.4c-0.1-1.7,7.9-9.7,7.9-9.7
	c0.9-1.2-6.6-1.9-6.5-5.8c0-1.3-0.1-2-0.1-2.6c0.4-6.5,1.3-23.4,0.9-24.9c1.5-2.4,7.1-10,8.5-10.2c-0.6,0.3,14.5,6,32,4.9
	c23.3-1.3,31-3.4,45.4-0.1c13.7,3.2,7.7,50.5,6.4,50.3c-2.8,12.8-1.9,38.7-3.3,51.6c-0.7,6.2,9.4,4.6,0.4,8.5
	c-2.8,1.2-3.7,7.5-3,8.2c6.2-0.3,12.7-1.8,19.7-5.5c4.4,0.6,19.1,4.3,19.1,4.3c3.7-2.2,13.1-5.4,24.1-4.7c24.6,1.7,12.2,4.3,21.3-1
	c0,0,12.3,0.5,17.3,2.3c4.3-2.1,20.5,0.2,28.5-13.2c5.3-8.9,3.6-26.2,5-51.2c-0.9,1.5,5.1-123.7-6.3-182.7c-0.4-2.3-0.7-3.6-0.9-4.5
	c26.3-0.6,53.8-3,53.8-3S657.5,266.1,594.8,237.3z M541,357.6c0,0-0.7,3.1-2,5c0.1,1.1-0.1,6.6-0.1,6.6l-2,10.7l-2.3-0.5l-1.3,2.2
	l0.9,3c0,0-6.6,8.7-48.7-1.7c-13.6-3.4-5.8-17.5-7.4-18l-0.2-34.4c0.6-1.5,1.4-5.8,2.2-10.8c1.4-0.8,2.6-1.8,3.8-2.9
	c14-2.9,42.3-1.5,42.3-1.5l16.2,9.7c0,0,0.4,0.4,0.6,0.6c-1.2,11.3-2.6,25.5-3.4,30.3L541,357.6z"/>
</svg>
