<?xml version="1.0" encoding="utf-8"?>
<!-- Generator: Adobe Illustrator 18.0.0, SVG Export Plug-In . SVG Version: 6.00 Build 0)  -->
<!DOCTYPE svg PUBLIC "-//W3C//DTD SVG 1.1//EN" "http://www.w3.org/Graphics/SVG/1.1/DTD/svg11.dtd">
<svg version="1.1" id="Layer_1" xmlns="http://www.w3.org/2000/svg" xmlns:xlink="http://www.w3.org/1999/xlink" x="0px" y="0px"
	 viewBox="0 0 16 16" enable-background="new 0 0 16 16" xml:space="preserve">
<g>
	<g>
		<path d="M0,5L0,5.3c0,0.1,0.2,0.3,0.3,0.5c0-0.1,0.1-0.1,0.2,0c0.4,0.8,1.7,1,1.7,1S3.9,6.8,4.7,6l0,0c0.8-0.5,2.6-1.4,2.6-1.4
			s0.2,0.1,0.3,0.1c-0.1,0,0-0.1,0-0.1C8.7,5,9.7,6.1,10.9,6.4h0C11.5,6.7,12.2,7.1,13,7h-0.1c0.4-0.1,0.5-0.1,0.8-0.3v0
			c0.2-0.1,0.5-0.3,0.6-0.5v0.1c0.6-0.6,1.1-1.2,1.6-1.8V4.5c0.1-0.1,0,0-0.4-0.2c-0.1,0,0.1-0.3,0-0.4c-0.4-0.3-0.9-0.5-0.9-0.5
			c0,0-0.4,0.3-0.4,0.4c-0.3,0.4-0.9,0.9-1.3,1c0,0,0,0,0,0c-0.1,0.1-0.3,0.1-0.4,0.1c0,0-0.1-0.1-0.1-0.1l-0.8-0.2l0,0l-0.3,0.1
			l-0.3-0.4c0,0-0.3-0.1-0.2-0.1c-0.7-0.5-1.5-1.2-2.3-1.5c0.1,0.1-0.1,0.3-0.1,0.3L8.2,2.7C7.8,2.6,7.4,2.6,6.9,2.6
			c0,0,0.1,0,0,0.1C6.9,2.5,6.4,2.8,6.4,2.8C6.4,2.7,5.8,3.1,5.7,3L5.3,3.4C5.1,3.6,4,4.4,4,4.4c0,0-0.1-0.2-0.1-0.2
			C3.4,4.5,2.7,4.9,2.4,4.7C2.3,4.7,1.8,4.6,1.7,4.5C1.6,4.3,1.2,4,1.2,4.1C1.1,4,1,3.7,0.9,3.5L0,5z"/>
	</g>
	<g>
		<path d="M0,8.3L0,8.5C0,8.6,0.1,8.8,0.2,9c0-0.1,0.1-0.1,0.2,0c0.4,0.8,1.7,1,1.7,1S3.9,10,4.7,9.2l0,0c0.8-0.5,2.6-1.4,2.6-1.4
			s0.2,0.1,0.3,0.1c-0.1,0,0-0.1,0-0.1c1.2,0.4,2.2,1.5,3.4,1.8h0c0.7,0.3,1.4,0.7,2.1,0.6h-0.1c0.4-0.1,0.5-0.1,0.8-0.3v0
			c0.2-0.1,0.5-0.3,0.6-0.5v0.1c0.6-0.6,1.2-1.2,1.2-1.2c0.1-0.1,0.1-0.2,0-0.8c0-0.1,0.1-0.8,0-0.8c-0.4-0.3-0.8-0.1-0.9,0
			c0,0-0.4,0.3-0.4,0.4c-0.3,0.4-0.9,0.9-1.3,1c0,0,0,0,0,0c-0.1,0.1-0.3,0.1-0.4,0.1c0,0-0.1-0.1-0.1-0.1l-0.8-0.2l0,0L11.5,8
			l-0.3-0.4c0,0-0.3-0.1-0.2-0.1C10.2,7,9.5,6.3,8.7,6c0.1,0.1-0.3-0.2-0.3-0.2L8.2,5.9C7.8,5.8,7.4,5.8,6.9,5.8c0,0,0.1,0,0,0.1
			C6.9,5.7,6.4,6,6.4,6C6.4,5.9,5.8,6.3,5.7,6.2L5.3,6.6C5.1,6.8,4,7.6,4,7.6c0,0-0.1-0.2-0.1-0.2C3.4,7.7,2.7,8.1,2.4,7.9
			C2.3,7.9,1.8,7.8,1.7,7.7C1.6,7.5,1.2,7.2,1.2,7.3c-0.2-0.1-0.4,0.2-0.5,0L0,8.3z"/>
	</g>
	<g>
		<path d="M0.4,11.5L0.7,12c0,0.1-0.6,0-0.5,0.2c0-0.1,0.1-0.1,0.2,0c0.4,0.8,1.7,1,1.7,1s1.8,0.1,2.6-0.7l0,0C5.4,12,7.2,11,7.2,11
			s0.2,0.1,0.3,0.1c-0.1,0,0-0.1,0-0.1c1.2,0.4,2.2,1.5,3.4,1.8h0c0.7,0.3,1.4,0.7,2.1,0.6h-0.1c0.4-0.1,0.5-0.1,0.8-0.3v0
			c0.2-0.1,0.5-0.3,0.6-0.5v0.1c0.6-0.6,1.1-1.2,1.6-1.8l-0.6-0.2c0.1-0.1,0-0.3,0.1-0.7C15.3,10,15.1,9.7,15,9.7
			c0,0-0.7,0.6-0.7,0.6c-0.3,0.4-0.9,0.9-1.3,1c0,0,0,0,0,0c-0.1,0.1-0.3,0.1-0.4,0.1c0,0-0.1-0.1-0.1-0.1l-0.8-0.2l0,0l-0.3,0.1
			l-0.3-0.4c0,0-0.3-0.1-0.2-0.1c-0.7-0.5-1.5-1.2-2.3-1.5C8.7,9.3,8.4,9,8.4,9L8.2,9.1C7.8,9,7.4,9,6.9,9c0,0,0.1,0,0,0.1
			C6.9,8.9,6.4,9.2,6.4,9.2C6.4,9.1,5.8,9.5,5.7,9.4L5.3,9.8c-0.2,0.2-1.3,1-1.3,1c0,0-0.1-0.2-0.1-0.2c-0.5,0.3-1.1,0.6-1.5,0.5
			c-0.1-0.1-0.6-0.2-0.7-0.3c-0.2-0.2-0.5-0.4-0.5-0.4c-0.2-0.1-0.8,0.3-0.9,0.1L0.4,11.5z"/>
	</g>
</g>
</svg>
