<?xml version="1.0" encoding="UTF-8" standalone="no"?>
<!-- Generated by IcoMoon.io -->
<svg viewBox="0 0 32 32" width="32" xmlns="http://www.w3.org/2000/svg" version="1.1" height="32">
    <path d="m0.125 8.125l-0.125 0.5c0.063 0.188 0.375 0.5 0.563 0.875-0.063-0.125 0.188-0.188 0.313 0 0.875 1.563 3.313 2 3.313 2s3.563 0.125 5.188-1.438l-0.063 0.063c1.563-1 5.188-2.875 5.188-2.875s0.313 0.125 0.5 0.125c-0.125 0-0.063-0.125 0.063-0.063 2.375 0.75 4.313 2.875 6.688 3.563h-0.063c1.375 0.5 2.813 1.438 4.25 1.188h-0.063c0.75-0.188 1-0.188 1.625-0.5v0.063c0.313-0.188 0.875-0.625 1.25-0.938v0.125c1.125-1.188 2.125-2.375 3.125-3.625v-0.063c0.125-0.25 0.063 0-0.688-0.313-0.063-0.063 0.188-0.625 0.063-0.688-0.688-0.563-1.688-1.063-1.75-1 0 0-0.688 0.625-0.813 0.75-0.563 0.75-1.688 1.75-2.625 1.938v-0.063c-0.25 0.125-0.5 0.125-0.75 0.125-0.063 0-0.125-0.125-0.125-0.125l-1.563-0.375-0.688 0.125-0.563-0.75s-0.563-0.25-0.438-0.188c-1.438-1-3-2.313-4.563-2.938 0.063 0.188-0.25 0.563-0.25 0.563l-0.625-0.813c-0.938-0.25-1.75-0.125-2.688-0.25 0.063 0 0.188 0.063 0.063 0.125-0.125-0.188-1 0.313-1 0.313-0.125-0.125-1.313 0.563-1.5 0.5l-0.75 0.75c-0.375 0.313-2.625 2.063-2.625 2.063 0.063 0-0.25-0.313-0.188-0.313-0.938 0.563-2.25 1.25-2.938 0.875-0.125-0.063-1.125-0.313-1.313-0.5-0.313-0.313-1-0.813-1-0.75-0.375-0.25-0.438-0.813-0.688-1.125zm0 6.438l-0.125 0.5c0.063 0.188 0.375 0.5 0.563 0.875-0.063-0.063 0.188-0.188 0.313 0 0.875 1.563 3.313 2 3.313 2s3.563 0.125 5.188-1.438h-0.063c1.563-1 5.188-2.875 5.188-2.875s0.313 0.125 0.5 0.188c-0.125-0.063-0.063-0.188 0.063-0.125 2.375 0.75 4.313 2.938 6.688 3.625h-0.063c1.375 0.5 2.813 1.375 4.25 1.125h-0.063c0.75-0.188 1-0.125 1.625-0.5v0.063c0.313-0.125 0.875-0.625 1.25-0.875v0.063l2.438-2.438c0.125-0.188 0.188-0.375 0.063-1.5 0-0.125 0.125-1.563-0.063-1.625-0.688-0.563-1.625-0.188-1.688-0.063 0 0-0.688 0.625-0.813 0.75-0.563 0.813-1.688 1.75-2.625 1.938v-0.063c-0.25 0.125-0.5 0.125-0.75 0.188-0.063-0.063-0.125-0.188-0.125-0.188l-1.563-0.375-0.688 0.125-0.563-0.75s-0.563-0.25-0.438-0.188c-1.438-1-3-2.313-4.563-2.875 0.063 0.125-0.5-0.5-0.5-0.5l-0.375 0.125c-0.938-0.188-1.75-0.125-2.688-0.188 0.063 0 0.188 0.063 0.063 0.063-0.125-0.188-1 0.313-1 0.313-0.125-0.063-1.313 0.625-1.5 0.5l-0.75 0.75c-0.375 0.375-2.625 2.063-2.625 2.063 0.063 0-0.25-0.313-0.188-0.313-0.938 0.563-2.25 1.25-2.938 0.938-0.125-0.125-1.125-0.313-1.313-0.5-0.313-0.313-1-0.875-1-0.75-0.375-0.25-0.688 0.25-1 0zm0.813 6.375l0.625 1c0.063 0.188-1.188 0.063-1 0.438-0.063-0.125 0.188-0.25 0.313 0 0.875 1.5 3.313 2 3.313 2s3.563 0.063 5.188-1.5l-0.063 0.063c1.563-1 5.188-2.813 5.188-2.813s0.313 0.063 0.5 0.125c-0.125-0.063-0.063-0.125 0.063-0.125 2.375 0.75 4.313 2.938 6.688 3.625h-0.063c1.375 0.5 2.813 1.375 4.25 1.125h-0.063c0.75-0.188 1-0.125 1.625-0.5v0.063c0.313-0.125 0.875-0.563 1.25-0.875v0.063c1.125-1.125 2.125-2.313 3.125-3.563l-1.063-0.438c0.063-0.188 0.063-0.5 0.125-1.313-0.25-0.375-0.813-0.938-0.813-0.813 0 0-1.313 1.125-1.438 1.25-0.563 0.813-1.688 1.75-2.625 1.938v-0.063c-0.25 0.125-0.5 0.125-0.75 0.188-0.063-0.063-0.125-0.188-0.125-0.188l-1.563-0.375-0.688 0.125-0.563-0.75s-0.563-0.25-0.438-0.188c-1.438-1-3-2.313-4.563-2.875 0.063 0.125-0.5-0.438-0.5-0.438l-0.375 0.063c-0.938-0.188-1.75-0.063-2.688-0.188 0.063 0 0.188 0.063 0.063 0.125-0.125-0.25-1 0.25-1 0.25-0.125-0.063-1.313 0.625-1.5 0.5l-0.75 0.75c-0.375 0.375-2.625 2.063-2.625 2.063 0.063 0-0.25-0.313-0.188-0.313-0.938 0.563-2.25 1.25-2.938 0.938-0.125-0.125-1.125-0.313-1.313-0.5-0.313-0.313-1-0.875-1-0.75-0.375-0.25-1.5 0.5-1.75 0.188z"/>
</svg>
