<?xml version="1.0" encoding="utf-8"?>
<!-- Generator: Adobe Illustrator 18.0.0, SVG Export Plug-In . SVG Version: 6.00 Build 0)  -->
<!DOCTYPE svg PUBLIC "-//W3C//DTD SVG 1.1//EN" "http://www.w3.org/Graphics/SVG/1.1/DTD/svg11.dtd">
<svg version="1.1" id="Layer_1" xmlns="http://www.w3.org/2000/svg" xmlns:xlink="http://www.w3.org/1999/xlink" x="0px" y="0px"
	 viewBox="0 0 16 16" enable-background="new 0 0 16 16" xml:space="preserve">
<g>
	<g>
		<path d="M15.6,10.1L15.6,10.1C15.7,10,15.7,10,15.6,10.1z"/>
		<path d="M4.6,11.9L4.6,11.9L4.6,11.9z"/>
		<path d="M4.6,11.9C4.6,11.9,4.5,11.9,4.6,11.9C4.3,11.9,4.6,11.9,4.6,11.9z"/>
		<path d="M15.6,10C15.6,10,15.6,10.1,15.6,10C15.6,10.3,15.6,10.1,15.6,10z"/>
		<path d="M4.3,11.3L4.3,11.3L4.3,11.3z"/>
		<path d="M13.5,11.1L13.5,11.1C13.6,11.1,13.6,11.1,13.5,11.1z"/>
		<path d="M4.3,11.3L4.3,11.3C4.2,11.3,4.3,11.3,4.3,11.3z"/>
		<path d="M13.5,11.1L13.5,11.1C13.4,11.2,13.5,11.1,13.5,11.1z"/>
	</g>
	<path d="M16,8.9c0-0.1-0.1-0.3-0.1-0.4c0-0.1,0-0.4,0-0.5c0,0-0.3-0.3-0.3-0.4c0.1-0.1-2.9-2.8-2.9-2.9c0-0.1-0.4-0.4-0.5-0.5
		s-0.4-0.3-0.5-0.4c-0.4-0.2-0.8-0.3-1.3-0.3c-0.1,0,0,0-0.1,0.1c-0.1,0-0.1,0-0.2,0.1C10,3.9,9.8,4,9.7,4.1c0,0,0,0.1,0.1,0.1
		c0,0-0.2,0.1-0.1,0C9.3,4.5,8.9,5.3,8.9,5.8c-0.3,0-0.4-0.2-0.4-0.2C8,5.3,8,5.4,7.5,5.4L6.9,5.9L6.5,5.8c0-0.2,0-0.5-0.1-0.6
		c0-0.5-0.2-0.9-0.5-1.2C5.8,4,5.8,4,5.7,4C5.6,4,5.6,3.9,5.5,3.9C5.4,3.8,5.2,3.7,5,3.7c0,0-0.1,0.1,0,0.1c0,0-0.2-0.1-0.1-0.1
		c-1-0.1-2.1,0.9-2.2,1c0,0.1-0.1,0.1-0.1,0.1c0,0.1-1.9,1.7-2.2,2.3c-0.1,0.1,0,0.1-0.1,0.2c0,0.1-0.1,0.3-0.1,0.4S0.1,7.9,0.1,8
		C0,8.3,0,8.6,0,8.7c0,0.1,0.1,0.7,0.1,0.7c0,0.1,0,0.3,0.1,0.5c0,0,0.1,0.4,0.2,0.5c0.4,0.5,0.6,0.9,1.1,1.3c0.8,0.5,2.2,0.5,3,0.3
		c0.1,0,0.6-0.2,0.7-0.3l0.2-0.1c0,0,0.1-0.1,0.2-0.2c0.1-0.1,0.2-0.2,0.2-0.3C6,11,6.2,10.9,6.3,10.8l0.1-0.4c0,0,0.1-0.4,0.1-0.8
		c0.1,0,0.1,0,0.1,0H7c0.6-0.4,1,0.1,1.5-0.2c0.1,0,0.3,0.1,0.3,0.1c0.1,0,0.2-0.1,0.4-0.1l0,0c0,0.4,0,0.7,0.1,0.9
		c0,0.1,0.1,0,0.1,0.2c0,0.1,0,0.2,0,0.3s0.1-0.1,0.2,0c0.1,0.1,0.1,0.2,0.2,0.3c0.1,0.2,0.4,0.4,0.6,0.5C10.5,11.7,11,12,11,12
		c0.1,0.1,0.3,0.2,0.4,0.2c0,0,0.4,0.2,0.5,0.2c0.6,0,1.5-0.1,2.1-0.3c0.8-0.3,1.2-1.3,1.6-2c0.1-0.1,0.1-0.1,0-0.1
		c0.1-0.1,0.3-0.5,0.3-0.6L16,9.1C16,9.1,16,9,16,8.9z M5.8,9.4c0,0.1,0,0.8-0.1,0.8s-0.1,0.3-0.1,0.3c-0.1,0-0.3,0.2-0.3,0.2
		c-0.1,0.1-0.1,0.2-0.2,0.2C5.1,11,5,11.1,5,11.1l-0.2,0.1c-0.1,0-0.4,0.1-0.5,0.1s-0.2,0-0.1,0c-0.7,0.1-1.7,0.3-2.2-0.1
		c-0.4-0.3-0.5-0.7-0.8-1c-0.1-0.1-0.1-0.4-0.1-0.4c0,0,0-0.2-0.1-0.3c0,0,0-0.4,0-0.5S0.9,8.7,1,8.5c0-0.1,0.1-0.2,0.1-0.2
		C1.1,8.2,1,8.2,1,8.1s0.2,0,0.2-0.1c0.1-0.1,0-0.1,0.1-0.2C1.7,7.1,3,6.6,3.8,6.7c-0.1,0,0.1,0,0.1,0c0.2,0,0.4,0.1,0.7,0.2
		C4.8,7,4.8,7,4.8,7.1c0.1,0.1,0.1,0,0.2,0.1C5.4,7.6,5.6,8,5.8,8.6C5.8,8.7,5.8,9.1,5.8,9.4z M8.7,8.2v0.3v0.1L8.6,8.7L8.5,8.8
		L8.4,8.9c0,0-0.1,0.1-0.1,0L8.1,9c0.1,0-0.1,0,0,0C7.9,9,7.6,9.1,7.4,8.9C7.2,8.8,7.2,8.7,7.1,8.5C7,8.5,7,8.4,7,8.4V8.3
		c0,0,0-0.1,0-0.2S6.9,8,7,7.9V7.8c0,0,0,0,0-0.1s0,0,0,0c0-0.1,0-0.1,0-0.1c0.2-0.3,0.7-0.4,1-0.4v0.1l0,0c0.1,0,0.1,0.1,0.3,0.1
		c0.1,0,0.1,0,0.1,0.1s0,0,0.1,0C8.7,7.7,8.7,7.8,8.8,8C8.7,7.9,8.7,8.1,8.7,8.2z M14.9,9.2c0,0.1,0,0.8-0.1,0.8s-0.1,0.3-0.1,0.3
		c-0.1,0-0.3,0.2-0.3,0.2c-0.1,0.1-0.1,0.2-0.2,0.2c-0.1,0-0.1,0.1-0.1,0.1L14,11c-0.1,0-0.4,0.1-0.5,0.1s-0.2,0-0.1,0
		c-0.6,0.1-1.6,0.3-2.2-0.1c-0.4-0.3-0.5-0.7-0.8-1c-0.1-0.1-0.1-0.4-0.1-0.4c-0.1-0.1-0.1-0.2-0.1-0.4c0,0-0.1-0.4-0.1-0.5
		s-0.1-0.3,0-0.5c0-0.1,0.1-0.2,0.1-0.2c0-0.1,0.1-0.2,0.1-0.3c0.1-0.1,0-0.1,0.1-0.2c0.5-0.5,1.8-1,2.6-0.9c-0.1,0,0.1,0,0.1,0
		c0.2,0,0.4,0.1,0.6,0.2c0.1,0,0.1,0.1,0.2,0.2C14,7.1,14,7,14,7.1c0.4,0.4,0.6,0.9,0.8,1.4C15,8.5,15,9,14.9,9.2z"/>
</g>
</svg>
