<?xml version="1.0" encoding="UTF-8" standalone="no"?>
<!-- Generated by IcoMoon.io -->
<svg viewBox="0 0 32 32" width="32" xmlns="http://www.w3.org/2000/svg" version="1.1" height="32">
 <path d="m31.25 18.125s0.063 0 0.063-0.063l-0.063 0.063zm-22.125 3.625h0.063c0.063-0.063 0.063-0.063-0.063 0zm0.063 0h-0.063c-0.438 0.125 0 0 0.063 0zm22.125-3.687c0 0.063-0.063 0.063-0.063 0.063-0.125 0.375 0 0 0.063-0.063zm-22.625 2.562h-0.063 0.063zm18.375-0.312h-0.125c-0.25 0.063 0.063 0 0.125 0zm4.875-4.5c0-0.25-0.188-0.5-0.188-0.75 0-0.125 0.063-0.75 0.063-0.938 0-0.063-0.625-0.688-0.563-0.75 0.125-0.25-5.875-5.688-5.875-5.75 0.063-0.188-0.813-0.938-0.938-1-0.25-0.25-0.813-0.75-1.063-0.75-0.813-0.438-1.5-0.688-2.5-0.5-0.188 0 0 0.063-0.25 0.125-0.188 0.063-0.25 0-0.438 0.125-0.313 0.25-0.625 0.313-0.875 0.625 0 0 0.063 0.188 0.063 0.125 0 0.063-0.313 0.188-0.25 0-0.625 0.625-1.25 2.125-1.438 3.188-0.5 0-0.813-0.438-0.813-0.438-1-0.5-0.875-0.375-1.938-0.25l-1.125 0.875-0.813-0.25c0-0.375 0-1.063-0.125-1.188-0.188-0.938-0.438-1.688-1.188-2.313-0.063-0.125-0.063 0.063-0.25-0.125-0.125-0.063-0.125-0.188-0.313-0.25-0.375-0.063-0.688-0.25-1.063-0.25 0 0-0.125 0.125-0.063 0.125-0.063 0-0.375-0.188-0.125-0.188-2-0.188-4.25 1.813-4.375 2.063-0.063 0.063-0.25 0.125-0.25 0.188-0.063 0.063-3.688 3.313-4.438 4.688-0.125 0.125 0.063 0.125-0.188 0.438-0.125 0.188-0.25 0.5-0.25 0.688-0.063 0.188-0.25 0.5-0.25 0.625-0.188 0.563-0.125 1.125-0.063 1.438 0 0.25 0.125 1.438 0.125 1.375 0.063 0.313 0.063 0.625 0.25 0.938 0-0.063 0.188 0.875 0.438 1.063 0.75 0.938 1.25 1.813 2.25 2.5 1.5 0.938 4.313 0.938 6.063 0.563 0.188 0 1.188-0.438 1.375-0.5 0 0.063 0.438-0.25 0.438-0.25 0 0.063 0.188-0.25 0.375-0.313 0.188-0.188 0.25-0.438 0.438-0.688 0.063-0.063 0.625-0.438 0.813-0.5 0-0.063 0.063-0.875 0.25-0.938 0.125-0.063 0.25-0.875 0.25-1.563h0.25l0.875 0.063c0.875-0.875 1.688 0.25 2.75-0.375 0.125 0 0.625 0.063 0.625 0.063 0.063 0 0.375-0.188 0.688-0.188h0.063c-0.063 0.688 0 1.375 0.25 1.938 0 0.125 0.125 0 0.25 0.438 0 0.125-0.063 0.438 0 0.563 0 0.125 0.25-0.125 0.375 0s0.25 0.5 0.375 0.625c0.25 0.438 0.75 0.75 1.063 0.938 0.188 0.188 1.188 0.75 1.188 0.75 0.25 0.188 0.5 0.438 0.875 0.438-0.063-0.063 0.813 0.313 1.063 0.313 1.25 0 3.063-0.125 4.25-0.563 1.625-0.5 2.375-2.5 3.25-4 0.063-0.188 0.063-0.188 0.063-0.125 0.125-0.25 0.5-1 0.5-1.188 0 0.063 0.125-0.563 0.125-0.5s-0.063-0.313-0.063-0.5zm-20.375 0.937c0 0.188 0 1.625-0.188 1.625-0.125 0-0.188 0.688-0.25 0.688-0.063 0.063-0.5 0.313-0.5 0.375-0.188 0.188-0.25 0.375-0.375 0.438s-0.25 0.313-0.25 0.25l-0.375 0.25c-0.125 0-0.75 0.188-0.938 0.25h-0.063c-1.313 0.25-3.313 0.563-4.438-0.125-0.75-0.5-1.063-1.375-1.563-2.063-0.188-0.125-0.313-0.813-0.313-0.75-0.188-0.188-0.188-0.438-0.188-0.688 0 0.063-0.125-0.813-0.125-1-0.063-0.25-0.125-0.625 0.063-1.063 0.063-0.063 0.125-0.313 0.188-0.438s-0.188-0.125-0.125-0.25c0-0.125 0.25-0.125 0.25-0.25 0.188-0.25 0.063-0.25 0.188-0.375 0.813-1.438 3.438-2.313 5.125-2.188-0.25 0 0.25 0.063 0.25 0.063 0.438 0 0.875 0.25 1.313 0.375 0.25 0.063 0.25 0.188 0.438 0.313 0.188 0.188 0.188 0 0.313 0.188 0.875 0.75 1.188 1.75 1.5 2.75 0.063 0.25 0.063 1.188 0.063 1.625zm5.875-2.375c0 0.063 0 0.625-0.063 0.688v0.25c-0.063 0-0.25 0.063-0.25 0.125s-0.063 0.188-0.125 0.188l-0.125 0.125s-0.125 0.125-0.125 0.063c-0.063 0.063-0.375 0.063-0.375 0.063 0.125 0-0.188 0.063 0 0-0.5 0.125-1.25 0.25-1.688 0-0.313-0.25-0.375-0.5-0.563-0.813-0.063-0.063-0.125-0.313-0.125-0.313-0.063-0.063-0.063-0.125-0.063-0.25 0 0-0.063-0.313-0.063-0.375s0-0.25 0-0.375c0-0.063 0.063-0.125 0.063-0.125 0-0.063-0.063-0.063-0.063-0.125s0.125-0.063 0.125-0.125c0.063-0.063 0.063-0.063 0.063-0.125 0.313-0.563 1.313-0.875 1.938-0.813-0.125 0 0.063 0.125 0.063 0.125s0.063-0.063 0.063-0.063c0.188 0 0.25 0.125 0.5 0.125l0.125 0.125s0.063 0 0.125 0.063c0.313 0.313 0.438 0.625 0.5 1.063 0.063 0 0.063 0.313 0.063 0.5zm12.437 2.063c0 0.188 0 1.688-0.188 1.688-0.063 0-0.125 0.625-0.188 0.625-0.125 0.063-0.5 0.375-0.563 0.375-0.125 0.188-0.188 0.375-0.313 0.5-0.125 0-0.25 0.25-0.25 0.25s-0.375 0.188-0.375 0.188c-0.125 0.063-0.75 0.188-0.938 0.25-0.125 0-0.375 0.063-0.125 0-1.313 0.25-3.313 0.563-4.375-0.125-0.75-0.5-1.063-1.313-1.625-2.063-0.125-0.125-0.313-0.75-0.313-0.75-0.125-0.188-0.125-0.438-0.188-0.688 0 0.063-0.063-0.813-0.063-1-0.063-0.25-0.125-0.625 0-1.063 0.063-0.063 0.188-0.313 0.25-0.438 0-0.125 0.063-0.375 0.188-0.5 0.125-0.25 0.063-0.25 0.125-0.313 0.875-1.5 3.438-2.375 5.188-2.25-0.25 0 0.25 0.063 0.25 0.063 0.438 0 0.813 0.25 1.25 0.438 0.25 0 0.25 0.125 0.5 0.25 0.188 0.25 0.125 0 0.25 0.188 0.938 0.813 1.25 1.75 1.5 2.813 0.063 0.188 0.063 1.125 0 1.563z"/>
</svg>
