<!-- Generated by IcoMoon.io -->
<svg version="1.1" xmlns="http://www.w3.org/2000/svg" width="32" height="32" viewBox="0 0 32 32">
<path d="M22.688 21c0 0.063 0 0.063 0 0 0 0.063 0 0.063 0 0.125h0.063zM22.625 20.875c0 0.125-0.125 0.125-0.125 0.125 0.063 0.063 0.125 0 0.125 0.063 0 0-0.063 0-0.063 0s0 0.063 0.063 0.063c0-0.063 0-0.063 0.063-0.125-0.063-0.063-0.063-0.125-0.063-0.125zM21.813 15.125c0 0-0.063-0.063 0 0zM22.75 21.125c0.063 0.125 0.125 0.25 0.063 0.188 0 0 0.063 0 0.063-0.063 0 0 0-0.063 0-0.063 0-0.063-0.063-0.063-0.125-0.063zM22.25 5.063c0-1.438-1.875 0.563-1.875 0.563s-0.25 0.125-0.25 0.125c0 0 0 0.125 0 0.125-0.188 0.375-0.5 0.875-0.625 1.25 0 0-0.063 0-0.063 0 0 0.188-0.063 0.25-0.063 0.375 0 0 0 0-0.063 0 0.063 0-0.125 0.625-0.188 0.625l0.25 0.063c-0.063 0.125-0.5 0.688-0.5 0.625-0.063 0.188-0.25 1.313-0.25 1.375-0.063-0.25-0.125-0.688-0.125-0.625v-0.063c-0.063 0.125-0.313 0.875-0.313 0.875s0 0-0.063 0c0-0.5 0-1.125-0.125-1.438 0.063-0.063 0.063-0.188 0.063-0.25 0 0.063-0.125 0-0.188-0.25 0-0.313-0.875-2.938-0.875-3.125-0.125-0.188-0.125-0.25-0.125-0.438h-0.25l0.188-0.188-0.813-0.188c0 0-0.625 1.375-0.688 1.375 0 0 0.063 0.625 0.063 0.625l-0.188 1.75 0.188 0.188-0.188 0.125c0 0 0 1 0 1.375-0.063-0.063-1.125-1.313-1.125-1.313l-0.25-0.625-0.563-0.25-2-2.25-0.563-0.188 0.125-0.188c-0.938-1-0.688 1.5-0.688 1.5l-0.063 0.25c0 0 0.063 0 0.063 0 0.188 0.375 0.5 1.313 0.5 1.313 0.063 0.125 0.75 1.125 0.75 1.125l0.813 1.313h-0.5c0.063 0.063 0.438 0.688 0.625 0.688h-0.313l0.063 0.063c0 0 0.563 1.5 0.563 1.5s0.625 0.313 0.313 0.188c0.188 0.063 0.313 0.75 0.313 0.75l2 0.563 1.938-0.188 2.438 0.188c0 0 0.813-0.125 0.813-0.125 0.063 0 0.563-1.438 0.625-1.5 0 0-0.063 0-0.063-0.063 0.063-0.063 0.375-1.313 0.438-1.375l-0.375 0.063 0.25-0.438c0 0 0.313-1.125 0.313-1.625 0.125-0.063 0.125-0.25 0.125-0.25l-0.188-0.813 0.125-2.75-0.063-0.375c0 0 0.063-0.063 0.063-0.125zM29.188 15.625c0-1.438-1.313 0.563-1.313 0.563s0.125 0.125 0.063 0.125c0 0 0.188 0.063 0.188 0.125-0.188 0.375-0.438 0.875-0.5 1.25 0 0.188-0.063 0.25-0.063 0.375-0.063 0-0.063 0-0.125 0 0.063 0-0.063 0.625-0.125 0.625l0.188 0.063c-0.063 0.125-0.438 0.625-0.438 0.625-0.125 0.188-0.25 1.313-0.313 1.375-0.063-0.25-0.125-0.688-0.125-0.625v-0.063c0 0.063-0.25 0.813-0.25 0.813s0 0-0.063 0c-0.063-0.5-0.063-1.063-0.188-1.375 0.063-0.125 0.063-0.188 0.063-0.25-0.063 0.063-0.063 0-0.125-0.25s-0.938-2.875-0.938-3.125c-0.063-0.188-0.063-0.25-0.063-0.438l-0.25-0.063 0.125-0.125-0.813-0.188c0 0-0.688 1.313-0.688 1.375 0 0 0.063 0.625 0.063 0.625l-0.125 1.75 0.125 0.188-0.125 0.125c0 0 0 1 0 1.375-0.063-0.063-1.188-1.375-1.188-1.375l-0.25-0.563-0.438-0.25-2-2.25-0.563-0.188 0.125-0.25c-0.938-0.938-0.688 1.5-0.688 1.563l-0.063 0.188c0 0 0.063 0 0.063 0.063 0.188 0.375 0.5 1.313 0.5 1.313 0.063 0.125 0.75 1.125 0.75 1.125l0.813 1.25h-0.5c0.063 0.125 0.438 0.75 0.625 0.75h-0.313l0.063 0.063c0 0 0.563 1.5 0.563 1.5s0.625 0.313 0.313 0.188c0.188 0 0.313 0.75 0.313 0.75l2 0.5 1.938-0.125 2.438 0.188c0 0 0.875-0.125 0.813-0.125 0.063 0 0.563-1.438 0.625-1.5 0 0-0.063 0-0.063-0.063 0.063-0.063 0.375-1.375 0.438-1.375l-0.375 0.125 0.25-0.375c0 0 0.313-1.188 0.313-1.688 0.125-0.063 0.125-0.25 0.125-0.25l-0.188-0.813 0.125-2.75-0.063-0.375c0 0-0.5-0.063-0.563-0.125zM13.875 16.375c0-1.438-1.563 0.563-1.563 0.563s-0.063 0.125-0.063 0.125c0 0 0.125 0.063 0.125 0.125-0.188 0.375-0.5 0.875-0.563 1.25 0 0.188-0.063 0.25-0.063 0.375-0.063 0-0.063 0-0.125 0 0.063 0-0.063 0.625-0.125 0.625l0.188 0.063c-0.063 0.125-0.438 0.625-0.438 0.625-0.125 0.188-0.25 1.313-0.313 1.375-0.063-0.25-0.063-0.688-0.063-0.625v-0.063c-0.063 0.063-0.313 0.813-0.313 0.813s0 0-0.063 0c-0.063-0.5-0.063-1.063-0.125-1.375 0-0.125 0-0.188 0-0.25 0 0.063-0.063 0-0.125-0.25s-0.938-2.875-0.875-3.125c-0.125-0.188-0.125-0.25-0.125-0.438l-0.25-0.063 0.125-0.125-0.813-0.188c0 0-0.688 1.313-0.688 1.375 0 0 0 0.625 0 0.625l-0.125 1.75 0.125 0.188-0.125 0.125c0 0 0 1 0 1.375-0.063-0.063-1.125-1.375-1.125-1.375l-0.25-0.563-0.563-0.25-2-2.25-0.563-0.188 0.188-0.125c-1-1-0.625 1.5-0.688 1.563l-0.125 0.188c0 0 0.125 0 0.125 0.063 0.188 0.313 0.5 1.25 0.5 1.25 0.125 0.063 0.813 1.063 0.813 1.063l0.813 1.313h-0.5c0 0.125 0.438 0.688 0.563 0.688h-0.313l0.063 0.125c0 0 0.625 1.5 0.625 1.5s0.563 0.313 0.313 0.125c0.125 0.063 0.25 0.75 0.25 0.75l2 0.563 2-0.125 2.375 0.188c0 0 0.875-0.125 0.875-0.125s0.5-1.5 0.563-1.5c0 0-0.063 0-0.063-0.063 0.063-0.063 0.438-1.375 0.5-1.438l-0.375 0.188 0.25-0.438c0 0 0.375-1.125 0.375-1.625 0.063-0.063 0.063-0.25 0.063-0.25l-0.188-0.813 0.125-2.75v-0.375c0 0-0.375-0.063-0.375-0.125zM6.875 8.125c0-0.875-0.625 0.313-0.625 0.313s0.125 0.063 0.125 0.063c0 0 0.125 0.063 0.125 0.125-0.125 0.188-0.188 0.5-0.313 0.75 0 0.063 0 0.125 0 0.188 0 0-0.063 0-0.063 0 0.063 0 0 0.375-0.063 0.375l0.063 0.063c0 0.063-0.25 0.375-0.25 0.375 0 0.063-0.125 0.75-0.125 0.813-0.063-0.125-0.063-0.375-0.063-0.375 0 0.063-0.188 0.5-0.188 0.5 0-0.313-0.063-0.688-0.063-0.875 0.063-0.063 0-0.063 0.063-0.125 0 0.063-0.063 0-0.125-0.188 0-0.125-0.5-1.75-0.5-1.875-0.063-0.125-0.063-0.125-0.063-0.25l-0.188-0.063 0.125-0.063-0.5-0.125c0 0-0.375 0.813-0.375 0.875 0 0 0 0.313 0 0.313l-0.125 1.063 0.125 0.125h-0.125c0 0 0 0.625 0 0.875 0-0.063-0.688-0.813-0.688-0.813l-0.188-0.313-0.25-0.188-1.25-1.313-0.313-0.125 0.063-0.125c-0.625-0.563-0.438 0.938-0.438 1l-0.063 0.063c0 0 0.063 0 0.063 0.063 0.125 0.188 0.313 0.75 0.313 0.75 0.063 0.063 0.125-0.125 0.125-0.125 0.063 0 0.75 1.5 0.75 1.5v0.25c0 0 0.313 1.063 0.313 1 0 0 0.375 0.25 0.188 0.188 0.125 0.063 0.25 0.5 0.25 0.5l1.188 0.313 1.188-0.063 1.438 0.125c0 0 0.5-0.063 0.5-0.063s0.375-0.875 0.375-0.938c0 0-0.063 0-0.063 0 0.063-0.063 0.25-0.813 0.25-0.813h-0.25l0.125-0.25c0 0 0.25-0.688 0.25-1 0 0 0-0.125 0-0.125l-0.125-0.5 0.125-1.625-0.063-0.25c0 0-0.5-0.063-0.5-0.063zM32 6.875c0-0.75-1.188 0.375-1.188 0.375s-0.188 0.063-0.188 0.063c0 0 0 0.063-0.063 0.063-0.125 0.25-0.313 0.5-0.375 0.75 0 0-0.063 0-0.063 0 0 0.063 0 0.125 0 0.188 0 0-0.063 0-0.063 0 0.063 0-0.063 0.313-0.125 0.313l0.125 0.063c0 0.063-0.25 0.438-0.25 0.375-0.063 0.063-0.188 0.813-0.188 0.813 0-0.188 0-0.438 0-0.375s-0.25 0.5-0.25 0.5c0-0.313 0-0.625 0-0.875 0 0 0-0.063 0-0.125 0 0.063 0 0-0.063-0.125-0.063-0.188-0.563-1.75-0.5-1.875-0.063-0.063-0.063-0.125-0.063-0.188h-0.125l0.063-0.125-0.5-0.063c0 0-0.375 0.75-0.375 0.75s0.063 0.375 0.063 0.375l-0.125 1.063 0.125 0.063-0.188 0.125c0 0 0 0.625 0 0.813 0-0.063-0.625-0.813-0.625-0.813l-0.188-0.375-0.25-0.125-1.188-1.313-0.313-0.063 0.063-0.125c-0.563-0.563-0.375 0.875-0.375 0.875l-0.125 0.125c0 0 0.063 0 0.063 0.063 0.125 0.188 0.25 0.75 0.25 0.75 0.063 0.063 0.438 0.25 0.438 0.25l0.438 0.375h-0.25c0 1.438 0.25 0.75 0.313 0.813l-0.188 0.188v0.188c0 0 0.375 0.875 0.375 0.875s0.313 0.188 0.188 0.125c0.063 0 0.188 0.438 0.188 0.438l1.125 0.313 1.188-0.125 1.375 0.125c0 0 0.5 0 0.5 0s0.375-0.875 0.375-0.875c0 0-0.063 0-0.063 0 0.063-0.063 0.188-0.813 0.25-0.813l-0.25 0.063 0.125-0.25c0 0 0.25-0.625 0.25-0.938 0-0.063 0-0.188 0-0.188l-0.125-0.438 0.125-1.563 0.125-0.375c0 0 0.125-0.063 0.125-0.063z"></path>
</svg>
