<?xml version="1.0" encoding="utf-8"?>
<!-- Generator: Adobe Illustrator 18.0.0, SVG Export Plug-In . SVG Version: 6.00 Build 0)  -->
<!DOCTYPE svg PUBLIC "-//W3C//DTD SVG 1.1//EN" "http://www.w3.org/Graphics/SVG/1.1/DTD/svg11.dtd">
<svg version="1.1" id="Layer_1" xmlns="http://www.w3.org/2000/svg" xmlns:xlink="http://www.w3.org/1999/xlink" x="0px" y="0px"
	 viewBox="0 0 16 16" enable-background="new 0 0 16 16" xml:space="preserve">
<g>
	<g>
		<path d="M0.7,8.9L0.7,8.9C0.7,8.9,0.7,8.9,0.7,8.9z"/>
	</g>
	<g>
		<path d="M11.3,11C11.3,11,11.3,11,11.3,11C11.3,11,11.3,11,11.3,11L11.3,11L11.3,11z"/>
		<path d="M11.2,10.9C11.2,11,11.2,11,11.2,10.9C11.2,11,11.2,11,11.2,10.9L11.2,10.9c0,0.1,0,0.1,0,0.1C11.2,11,11.2,11,11.2,10.9
			C11.2,11,11.2,10.9,11.2,10.9z"/>
		<path d="M11.3,11.1C11.3,11.1,11.3,11.2,11.3,11.1C11.3,11.2,11.3,11.2,11.3,11.1L11.3,11.1C11.3,11.1,11.3,11.1,11.3,11.1z"/>
		<path d="M11.3,11.1C11.3,11.1,11.3,11.1,11.3,11.1C11.3,11.1,11.3,11.1,11.3,11.1L11.3,11.1z"/>
	</g>
	<path d="M5.2,3L5.2,3C5.2,3,5.2,3,5.2,3z"/>
	<path d="M11,2.9L11,2.9c0-0.7-1,0.3-1,0.3L9.9,3.2c0,0,0,0.1,0,0.1C9.9,3.5,9.7,3.7,9.6,3.9h0c0,0.1,0,0.1,0,0.2c0,0,0,0-0.1,0
		c0,0-0.1,0.3-0.1,0.3l0.1,0c0,0.1-0.2,0.3-0.2,0.3C9.3,4.9,9.2,5.5,9.2,5.5c0-0.1-0.1-0.4-0.1-0.3v0C9.1,5.2,9,5.6,9,5.6s0,0,0,0
		c0-0.3,0-0.6-0.1-0.7c0-0.1,0-0.1,0-0.1c0,0-0.1,0-0.1-0.1c0-0.2-0.5-1.5-0.5-1.6C8.3,2.9,8.3,2.9,8.3,2.8l-0.1,0l0.1-0.1L7.8,2.6
		c0,0-0.3,0.7-0.4,0.7l0,0.3L7.4,4.5l0.1,0.1L7.4,4.6c0,0,0,0.5,0,0.7c0,0-0.6-0.7-0.6-0.7L6.7,4.4L6.4,4.2l-1-1.1L5.1,3l0.1-0.1
		l0,0C4.7,2.4,4.8,3.6,4.8,3.7L4.8,3.8c0,0,0.1,0,0.1,0C4.9,4,5.1,4.5,5.1,4.5C5.1,4.5,5.5,5,5.5,5l0.4,0.7H5.6C5.7,5.7,5.9,6,5.9,6
		H5.8l0,0.1l0.3,0.8c0,0,0.3,0.2,0.2,0.1c0.1,0,0.2,0.4,0.2,0.4l1,0.3l1-0.1l1.2,0.1l0.4-0.1c0,0,0.3-0.7,0.3-0.8c0,0,0,0,0,0
		c0,0,0.2-0.7,0.2-0.7l-0.2,0l0.1-0.2c0,0,0.2-0.6,0.2-0.8c0.1,0,0.1-0.1,0.1-0.1l-0.1-0.4l0.1-1.4l0-0.2c0,0,0,0,0-0.1L11,2.9
		L11,2.9z"/>
	<path d="M14.6,8.2L14.6,8.2c0-0.7-0.7,0.3-0.7,0.3s0.1,0.1,0,0.1c0,0,0.1,0.1,0.1,0.1c-0.1,0.2-0.2,0.4-0.3,0.6l0,0
		c0,0.1,0,0.1,0,0.2c0,0,0,0-0.1,0c0,0-0.1,0.3-0.1,0.3l0.1,0c0,0.1-0.2,0.3-0.2,0.3c-0.1,0.1-0.1,0.7-0.2,0.7
		c0-0.1-0.1-0.4-0.1-0.3v0c0,0.1-0.2,0.4-0.2,0.4s0,0,0,0c0-0.3,0-0.6-0.1-0.7c0-0.1,0-0.1,0-0.1c0,0-0.1,0-0.1-0.1
		c0-0.1-0.5-1.5-0.5-1.6c-0.1-0.1-0.1-0.1-0.1-0.2l-0.1,0l0.1-0.1L12,8c0,0-0.4,0.7-0.4,0.7l0,0.3l-0.1,0.9l0.1,0.1L11.6,10
		c0,0,0,0.5,0,0.7c0,0-0.6-0.7-0.6-0.7l-0.1-0.3l-0.2-0.1l-1-1.1L9.3,8.4l0.1-0.1l0,0C8.9,7.8,9.1,9,9.1,9.1L9,9.2c0,0,0.1,0,0.1,0
		c0.1,0.2,0.2,0.7,0.2,0.7c0.1,0.1,0.4,0.6,0.4,0.6l0.4,0.7H9.9c0,0.1,0.2,0.4,0.3,0.4H10l0,0.1l0.3,0.8c0,0,0.3,0.2,0.2,0.1
		c0.1,0,0.2,0.4,0.2,0.4l1,0.3l1-0.1l1.2,0.1c0,0,0.5-0.1,0.4-0.1c0,0,0.3-0.7,0.3-0.8c0,0,0,0,0,0c0,0,0.2-0.7,0.2-0.7l-0.2,0.1
		l0.1-0.2c0,0,0.2-0.6,0.2-0.8c0.1,0,0.1-0.1,0.1-0.1l-0.1-0.4L15,8.5l0-0.2C14.9,8.3,14.6,8.3,14.6,8.2L14.6,8.2L14.6,8.2z"/>
	<path d="M6.7,8.6L6.7,8.6c0-0.7-0.8,0.3-0.8,0.3l0,0.1C5.9,9,6,9,6,9.1C5.9,9.2,5.7,9.5,5.7,9.7l0,0c0,0.1,0,0.1,0,0.2
		c0,0,0,0-0.1,0c0,0-0.1,0.3-0.1,0.3l0.1,0c0,0.1-0.2,0.3-0.2,0.3c-0.1,0.1-0.1,0.7-0.2,0.7c0-0.1-0.1-0.4-0.1-0.3v0
		c0,0.1-0.2,0.4-0.2,0.4s0,0,0,0c0-0.3,0-0.6-0.1-0.7c0-0.1,0-0.1,0-0.1c0,0-0.1,0-0.1-0.1c0-0.1-0.5-1.5-0.5-1.6
		C4.4,8.7,4.4,8.6,4.4,8.5l-0.1,0l0.1-0.1L3.9,8.3c0,0-0.3,0.7-0.4,0.7l0,0.3l-0.1,0.9l0.1,0.1l-0.1,0.1c0,0,0,0.5,0,0.7
		c0,0-0.6-0.7-0.6-0.7l-0.1-0.3L2.5,10l-1-1.1L1.2,8.8l0.1-0.1l0,0C0.8,8.2,1,9.5,0.9,9.5L0.9,9.6c0,0,0.1,0,0.1,0
		c0.1,0.2,0.3,0.6,0.3,0.6c0.1,0.1,0.4,0.6,0.4,0.6L2,11.5H1.8c0,0.1,0.2,0.4,0.3,0.4H1.9l0,0.1l0.3,0.8c0,0,0.3,0.2,0.2,0.1
		c0.1,0,0.2,0.4,0.2,0.4l1,0.3l1-0.1l1.2,0.1c0,0,0.5-0.1,0.4-0.1c0,0,0.3-0.7,0.3-0.8c0,0,0,0,0,0c0,0,0.2-0.7,0.2-0.7l-0.2,0.1
		l0.1-0.2c0,0,0.2-0.6,0.2-0.8c0.1,0,0.1-0.1,0.1-0.1l-0.1-0.4l0.1-1.4l0-0.2C6.9,8.7,6.7,8.7,6.7,8.6L6.7,8.6L6.7,8.6z"/>
	<path d="M3.2,4.4L3.2,4.4c0-0.4-0.3,0.2-0.3,0.2s0.1,0,0.1,0c0,0,0.1,0,0.1,0.1C2.9,4.8,2.9,4.9,2.8,5.1l0,0c0,0.1,0,0.1,0,0.1h0
		c0,0,0,0.2-0.1,0.2l0.1,0c0,0-0.1,0.2-0.1,0.2C2.7,5.6,2.6,6,2.6,6c0-0.1,0-0.2,0-0.2l0,0c0,0-0.1,0.3-0.1,0.3l0,0
		c0-0.2,0-0.3,0-0.4c0,0,0-0.1,0-0.1c0,0,0,0-0.1-0.1c0-0.1-0.3-0.9-0.3-1c0-0.1,0-0.1,0-0.1L2,4.3l0.1-0.1L1.8,4.2
		c0,0-0.2,0.4-0.2,0.4l0,0.2L1.6,5.4l0.1,0.1l-0.1,0c0,0,0,0.3,0,0.4c0,0-0.4-0.4-0.4-0.4L1.1,5.3L1,5.2L0.4,4.5L0.2,4.5l0-0.1l0,0
		C-0.1,4.1,0,4.9,0,4.9L0,5c0,0,0,0,0,0c0.1,0.1,0.2,0.4,0.2,0.4c0,0,0.1-0.1,0.1-0.1c0,0,0.4,0.7,0.4,0.7v0.2c0,0,0.2,0.5,0.2,0.5
		c0,0,0.2,0.1,0.1,0.1C0.9,6.8,1,7.1,1,7.1l0.6,0.2l0.6-0.1L3,7.3l0.3-0.1c0,0,0.2-0.4,0.2-0.5h0c0,0,0.1-0.4,0.1-0.4l-0.1,0
		l0.1-0.1c0,0,0.1-0.4,0.1-0.5c0,0,0-0.1,0-0.1L3.5,5.4l0.1-0.8l0-0.1l-0.3,0L3.2,4.4L3.2,4.4z"/>
	<path d="M16,3.8L16,3.8C16,3.4,15.4,4,15.4,4l-0.1,0c0,0,0,0,0,0.1c-0.1,0.1-0.2,0.3-0.2,0.4h0c0,0.1,0,0.1,0,0.1h0
		c0,0,0,0.2-0.1,0.2l0.1,0c0,0-0.1,0.2-0.1,0.2c0,0.1-0.1,0.4-0.1,0.4c0-0.1,0-0.2,0-0.2l0,0c0,0-0.1,0.3-0.1,0.3l0,0
		c0-0.2,0-0.3,0-0.4c0,0,0-0.1,0-0.1c0,0,0,0-0.1-0.1c0-0.1-0.3-0.9-0.3-0.9c0,0,0-0.1,0-0.1h-0.1l0.1-0.1l-0.3-0.1l-0.2,0.4l0,0.2
		l-0.1,0.5l0.1,0.1l-0.1,0.1c0,0,0,0.3,0,0.4c0,0-0.3-0.4-0.3-0.4l-0.1-0.2l-0.2-0.1L12.7,4l-0.2-0.1l0-0.1l0,0
		c-0.3-0.3-0.2,0.5-0.2,0.5l-0.1,0.1c0,0,0,0,0,0c0.1,0.1,0.1,0.4,0.1,0.4c0,0,0.2,0.1,0.2,0.1l0.2,0.2h-0.2c0,0.7,0.2,0.4,0.2,0.4
		l-0.1,0.1v0.1L13,6.1c0,0,0.2,0.1,0.1,0.1c0.1,0,0.1,0.2,0.1,0.2l0.6,0.2l0.6-0.1l0.7,0.1l0.3,0l0.2-0.4h0c0,0,0.1-0.4,0.1-0.4
		l-0.1,0l0.1-0.1c0,0,0.1-0.3,0.1-0.5c0,0,0-0.1,0-0.1l-0.1-0.2L15.7,4l0.1-0.2l0.1,0L16,3.8L16,3.8z"/>
</g>
</svg>
