<?xml version="1.0" encoding="UTF-8" standalone="no"?>
<!-- Generated by IcoMoon.io -->
<svg viewBox="0 0 32 32" width="32" xmlns="http://www.w3.org/2000/svg" version="1.1" height="32">
    <path d="m22.688 21v0 0.125h0.063zm-0.063-0.125c0 0.125-0.125 0.125-0.125 0.125 0.063 0.063 0.125 0 0.125 0.063h-0.063s0 0.063 0.063 0.063c0-0.063 0-0.063 0.063-0.125-0.063-0.063-0.063-0.125-0.063-0.125zm-0.812-5.75s-0.063-0.063 0 0zm0.937 6c0.063 0.125 0.125 0.25 0.063 0.188 0 0 0.063 0 0.063-0.063v-0.063c0-0.063-0.063-0.063-0.125-0.063zm-0.5-16.062c0-1.438-1.875 0.563-1.875 0.563s-0.25 0.125-0.25 0.125v0.125c-0.188 0.375-0.5 0.875-0.625 1.25h-0.063c0 0.188-0.063 0.25-0.063 0.375h-0.063c0.063 0-0.125 0.625-0.188 0.625l0.25 0.063c-0.063 0.125-0.5 0.688-0.5 0.625-0.063 0.188-0.25 1.313-0.25 1.375-0.063-0.25-0.125-0.688-0.125-0.625v-0.063c-0.063 0.125-0.313 0.875-0.313 0.875s0 0-0.063 0c0-0.5 0-1.125-0.125-1.438 0.063-0.063 0.063-0.188 0.063-0.25 0 0.063-0.125 0-0.188-0.25 0-0.313-0.875-2.938-0.875-3.125-0.125-0.188-0.125-0.25-0.125-0.438h-0.25l0.188-0.188-0.813-0.188s-0.625 1.375-0.688 1.375l0.063 0.625-0.188 1.75 0.188 0.188-0.188 0.125v1.375c-0.063-0.063-1.125-1.313-1.125-1.313l-0.25-0.625-0.563-0.25-2-2.25-0.563-0.188 0.125-0.188c-0.938-1-0.688 1.5-0.688 1.5l-0.063 0.25h0.063c0.188 0.375 0.5 1.313 0.5 1.313 0.063 0.125 0.75 1.125 0.75 1.125l0.813 1.313h-0.5c0.063 0.063 0.438 0.688 0.625 0.688h-0.313l0.063 0.063 0.563 1.5s0.625 0.313 0.313 0.188c0.188 0.063 0.313 0.75 0.313 0.75l2 0.563 1.938-0.188 2.438 0.188 0.813-0.125c0.063 0 0.563-1.438 0.625-1.5 0 0-0.063 0-0.063-0.063 0.063-0.063 0.375-1.313 0.438-1.375l-0.375 0.063 0.25-0.438s0.313-1.125 0.313-1.625c0.125-0.063 0.125-0.25 0.125-0.25l-0.188-0.813 0.125-2.75-0.063-0.375s0.063-0.063 0.063-0.125zm6.938 10.562c0-1.438-1.313 0.563-1.313 0.563s0.125 0.125 0.063 0.125 0.188 0.063 0.188 0.125c-0.188 0.375-0.438 0.875-0.5 1.25 0 0.188-0.063 0.25-0.063 0.375h-0.125c0.063 0-0.063 0.625-0.125 0.625l0.188 0.063c-0.063 0.125-0.438 0.625-0.438 0.625-0.125 0.188-0.25 1.313-0.313 1.375-0.063-0.25-0.125-0.688-0.125-0.625v-0.063c0 0.063-0.25 0.813-0.25 0.813s0 0-0.063 0c-0.063-0.5-0.063-1.063-0.188-1.375 0.063-0.125 0.063-0.188 0.063-0.25-0.063 0.063-0.063 0-0.125-0.25s-0.938-2.875-0.938-3.125c-0.063-0.188-0.063-0.25-0.063-0.438l-0.25-0.063 0.125-0.125-0.813-0.188s-0.688 1.313-0.688 1.375l0.063 0.625-0.125 1.75 0.125 0.188-0.125 0.125v1.375c-0.063-0.063-1.188-1.375-1.188-1.375l-0.25-0.563-0.438-0.25-2-2.25-0.563-0.188 0.125-0.25c-0.938-0.938-0.688 1.5-0.688 1.563l-0.063 0.188s0.063 0 0.063 0.063c0.188 0.375 0.5 1.313 0.5 1.313 0.063 0.125 0.75 1.125 0.75 1.125l0.813 1.25h-0.5c0.063 0.125 0.438 0.75 0.625 0.75h-0.313l0.063 0.063 0.563 1.5s0.625 0.313 0.313 0.188c0.188 0 0.313 0.75 0.313 0.75l2 0.5 1.938-0.125 2.438 0.188s0.875-0.125 0.813-0.125c0.063 0 0.563-1.438 0.625-1.5 0 0-0.063 0-0.063-0.063 0.063-0.063 0.375-1.375 0.438-1.375l-0.375 0.125 0.25-0.375s0.313-1.188 0.313-1.688c0.125-0.063 0.125-0.25 0.125-0.25l-0.188-0.813 0.125-2.75-0.063-0.375s-0.5-0.063-0.563-0.125zm-15.313 0.75c0-1.438-1.563 0.563-1.563 0.563s-0.063 0.125-0.063 0.125 0.125 0.063 0.125 0.125c-0.188 0.375-0.5 0.875-0.563 1.25 0 0.188-0.063 0.25-0.063 0.375h-0.125c0.063 0-0.063 0.625-0.125 0.625l0.188 0.063c-0.063 0.125-0.438 0.625-0.438 0.625-0.125 0.188-0.25 1.313-0.313 1.375-0.063-0.25-0.063-0.688-0.063-0.625v-0.063c-0.063 0.063-0.313 0.813-0.313 0.813s0 0-0.063 0c-0.063-0.5-0.063-1.063-0.125-1.375v-0.25c0 0.063-0.063 0-0.125-0.25s-0.938-2.875-0.875-3.125c-0.125-0.188-0.125-0.25-0.125-0.438l-0.25-0.063 0.125-0.125-0.813-0.188s-0.688 1.313-0.688 1.375v0.625l-0.125 1.75 0.125 0.188-0.125 0.125v1.375c-0.063-0.063-1.125-1.375-1.125-1.375l-0.25-0.563-0.563-0.25-2-2.25-0.563-0.188 0.188-0.125c-1-1-0.625 1.5-0.688 1.563l-0.125 0.188s0.125 0 0.125 0.063c0.188 0.313 0.5 1.25 0.5 1.25 0.125 0.063 0.813 1.063 0.813 1.063l0.813 1.313h-0.5c0 0.125 0.438 0.688 0.563 0.688h-0.313l0.063 0.125 0.625 1.5s0.563 0.313 0.313 0.125c0.125 0.063 0.25 0.75 0.25 0.75l2 0.563 2-0.125 2.375 0.188 0.875-0.125s0.5-1.5 0.563-1.5-0.063 0-0.063-0.063c0.063-0.063 0.438-1.375 0.5-1.438l-0.375 0.188 0.25-0.438s0.375-1.125 0.375-1.625c0.063-0.063 0.063-0.25 0.063-0.25l-0.188-0.813 0.125-2.75v-0.375s-0.375-0.063-0.375-0.125zm-7-8.25c0-0.875-0.625 0.313-0.625 0.313s0.125 0.063 0.125 0.063 0.125 0.063 0.125 0.125c-0.125 0.188-0.188 0.5-0.313 0.75v0.188h-0.063c0.063 0 0 0.375-0.063 0.375l0.063 0.063c0 0.063-0.25 0.375-0.25 0.375 0 0.063-0.125 0.75-0.125 0.813-0.063-0.125-0.063-0.375-0.063-0.375 0 0.063-0.188 0.5-0.188 0.5 0-0.313-0.063-0.688-0.063-0.875 0.063-0.063 0-0.063 0.063-0.125 0 0.063-0.063 0-0.125-0.188 0-0.125-0.5-1.75-0.5-1.875-0.063-0.125-0.063-0.125-0.063-0.25l-0.188-0.063 0.125-0.063-0.5-0.125s-0.375 0.813-0.375 0.875v0.313l-0.125 1.063 0.125 0.125h-0.125v0.875c0-0.063-0.688-0.813-0.688-0.813l-0.188-0.313-0.25-0.188-1.25-1.313-0.313-0.125 0.063-0.125c-0.625-0.563-0.438 0.938-0.438 1l-0.063 0.063s0.063 0 0.063 0.063c0.125 0.188 0.313 0.75 0.313 0.75 0.063 0.063 0.125-0.125 0.125-0.125 0.063 0 0.75 1.5 0.75 1.5v0.25s0.313 1.063 0.313 1c0 0 0.375 0.25 0.188 0.188 0.125 0.063 0.25 0.5 0.25 0.5l1.188 0.313 1.188-0.063 1.438 0.125 0.5-0.063s0.375-0.875 0.375-0.938h-0.063c0.063-0.063 0.25-0.813 0.25-0.813h-0.25l0.125-0.25s0.25-0.688 0.25-1v-0.125l-0.125-0.5 0.125-1.625-0.063-0.25-0.5-0.063zm25.125-1.25c0-0.75-1.188 0.375-1.188 0.375s-0.188 0.063-0.188 0.063 0 0.063-0.063 0.063c-0.125 0.25-0.313 0.5-0.375 0.75h-0.063v0.188h-0.063c0.063 0-0.063 0.313-0.125 0.313l0.125 0.063c0 0.063-0.25 0.438-0.25 0.375-0.063 0.063-0.188 0.813-0.188 0.813v-0.375s-0.25 0.5-0.25 0.5v-0.875-0.125c0 0.063 0 0-0.063-0.125-0.063-0.188-0.563-1.75-0.5-1.875-0.063-0.063-0.063-0.125-0.063-0.188h-0.125l0.063-0.125-0.5-0.063-0.375 0.75s0.063 0.375 0.063 0.375l-0.125 1.063 0.125 0.063-0.188 0.125v0.813c0-0.063-0.625-0.813-0.625-0.813l-0.188-0.375-0.25-0.125-1.188-1.313-0.313-0.063 0.063-0.125c-0.563-0.563-0.375 0.875-0.375 0.875l-0.125 0.125s0.063 0 0.063 0.063c0.125 0.188 0.25 0.75 0.25 0.75 0.063 0.063 0.438 0.25 0.438 0.25l0.438 0.375h-0.25c0 1.438 0.25 0.75 0.313 0.813l-0.188 0.188v0.188s0.375 0.875 0.375 0.875 0.313 0.188 0.188 0.125c0.063 0 0.188 0.438 0.188 0.438l1.125 0.313 1.188-0.125 1.375 0.125h0.5s0.375-0.875 0.375-0.875h-0.063c0.063-0.063 0.188-0.813 0.25-0.813l-0.25 0.063 0.125-0.25s0.25-0.625 0.25-0.938v-0.188l-0.125-0.438 0.125-1.563 0.125-0.375 0.125-0.063z"/>
</svg>
