<?xml version="1.0" encoding="UTF-8" standalone="no"?>
<!-- Generated by IcoMoon.io -->
<svg viewBox="0 0 32 32" width="32" xmlns="http://www.w3.org/2000/svg" version="1.1" height="32">
    <path d="m8.063 7.938c0-0.063-0.063-0.563-0.125-0.688l-0.063-0.25s-0.125-0.125-0.188-0.188c-0.063-0.125-0.188-0.188-0.313-0.25 0-0.063-0.188-0.313-0.188-0.438 0 0-0.375-0.063-0.438-0.125 0-0.125-0.938-0.25-1.125-0.25-0.25-0.063-0.875-0.125-1.063-0.063-0.75 0.125-1.438 0.188-2 0.75 0 0.063 0.063 0.063-0.063 0.188s-0.125 0.125-0.25 0.25c-0.125 0.313-0.375 0.5-0.375 0.813 0 0 0.188 0.125 0.188 0.063 0 0.063-0.188 0.25-0.188 0.125-0.25 1.063 0 2.5 1 3.125 0 0.063 0 0 0.188 0.125 0.063 0 0.063 0.188 0.125 0.25 0.063 0 0.125-0.125 0.188-0.063 0 0 0.188 0.063 0.25 0.125 0.25 0.125 0.563 0.125 0.75 0.125h0.625c0.125 0 0.375 0 0.5-0.063-0.063 0 0.375-0.063 0.563-0.125 0.5-0.313 1.063-0.625 1.375-1.063 0.563-0.688 0.688-1.5 0.625-2.375 0-0.25 0.063 0.25 0 0zm13.562 10.937c0-0.125-0.063-0.938-0.125-1.125 0.063 0-0.188-0.375-0.125-0.375 0 0-0.25-0.188-0.25-0.25-0.125-0.188-0.375-0.25-0.5-0.438-0.063-0.063-0.313-0.5-0.375-0.563 0-0.063-0.688-0.188-0.688-0.25 0-0.25-1.688-0.375-1.875-0.438-0.5-0.063-1.563-0.188-1.813-0.063-1.25 0.125-2.313 0.313-3.313 1.188-0.188 0.125 0.063 0.063-0.188 0.313-0.25 0.125-0.25 0.125-0.438 0.375-0.188 0.438-0.563 0.813-0.563 1.25l0.188 0.125s-0.313 0.375-0.313 0.125c-0.375 1.688 0.063 3.938 1.625 4.938 0.063 0.125 0.063 0 0.313 0.188 0.125 0.125 0.188 0.313 0.25 0.375 0.125 0.063 0.188-0.125 0.313-0.125 0.125 0.063 0.375 0.25 0.5 0.25 0.438 0.188 0.875 0.188 1.188 0.188h1.188c0.25 0 0.5 0 0.75-0.125 0 0 0.75-0.063 0.938-0.188 0.813-0.5 1.75-0.938 2.375-1.688 0.813-1.063 1.063-2.375 0.938-3.688 0-0.438 0.063 0.438 0 0zm-8.5-6.125c-0.25-0.063-1-0.063-1-0.063-1 0.438-0.25 0.188-1 0-1.188-0.25-1.125 0.063-1.438-1.063-0.625-2.5-0.25-1.438-0.625-6-0.188-1.75 1.688-1.438 1.813-1.5 1.375-0.25 1-0.125 1.75-0.125l1.25-0.313c1.25-0.063 2.188 0.188 3.5-0.063-0.063-0.125 3.188-0.438 3.5 0.813 0.5 2 0.625 5.5 0.688 5.438 0 2.188-0.875 2.188-1.125 2.25h-0.625c-0.313 0.188 0.063 0.063-0.75 0.063-0.438 0-0.75 0.188-0.875 0.188 0 0-0.563-0.063-0.688-0.063-1.313 0.75-2.25-0.563-3.375 0.438zm10.938 4.188c0.063-0.188 0-0.75 0-0.75-0.313-0.688-0.125-0.125 0-0.688 0.188-0.875-0.063-0.875 0.813-1.063 1.813-0.5 2.25-0.188 5.563-0.438 1.313-0.125 1.063 1.25 1.188 1.375 0.188 1 0 0.688 0 1.25l0.25 0.938c0.063 0.938-0.125 0.438 0 1.375 0.125 0 0.313 2.375-0.625 2.563-1.438 0.375-5.188 0.5-5.125 0.5-1.563 0-1.563-0.625-1.688-0.813 0.063-0.125 0.063-0.438 0.063-0.438-0.125-0.25-0.063 0.125-0.063-0.563 0-0.313-0.063-0.563-0.125-0.625 0 0 0.063-0.438 0.063-0.5-0.563-0.938 0.375-0.5-0.375-1.313zm5.5-8.813c-0.188-0.375-0.188-0.813-0.438-1.25-0.25-0.5-0.5-1.063-0.5-1.063s-0.625-1.25-1.188-1.188c-0.5 0-1.188 0.813-1.313 1-0.188 0.25-0.25 0.5-0.5 0.75-0.125 0.438-0.313 0.875-0.625 1.25-0.188 0.625-0.5 1.25-0.813 1.813 0.063 0.125-0.313 0.75-0.313 1.063 0.125 0.375 0.688 0.375 0.688 0.375s1.688-0.125 1.813-0.125c0.188 0.125 2.563 0.125 2.813 0.063 0.438 0.063 1.313 0 1.313 0s0.438-0.313-0.438-1.188c-0.5-0.188 0-0.188-0.063-0.375-0.063-0.5-0.438-1.125-0.438-1.125zm-21.75 10.688c-0.25-0.5-0.313-1.188-0.563-1.625-0.313-0.688-0.75-1.563-0.75-1.563s-0.875-1.688-1.563-1.625c-0.688 0.063-1.625 1.188-1.813 1.375-0.313 0.313-0.375 0.625-0.75 1-0.188 0.625-0.438 1.25-0.875 1.75-0.313 0.813-0.625 1.688-1.125 2.5 0 0.125-0.5 1-0.438 1.438 0.125 0.438 0.938 0.5 0.875 0.563 0 0 2.313-0.25 2.5-0.25 0.25 0.063 3.563 0.188 3.875 0.063 0.563 0.188 1.813 0 1.813 0s0.625-0.375-0.625-1.625c-0.75-0.188-0.063-0.25-0.063-0.5 0.063-0.625-0.5-1.5-0.5-1.5z"/>
</svg>
