<?xml version="1.0" encoding="utf-8"?>
<!-- Generator: Adobe Illustrator 18.0.0, SVG Export Plug-In . SVG Version: 6.00 Build 0)  -->
<!DOCTYPE svg PUBLIC "-//W3C//DTD SVG 1.1//EN" "http://www.w3.org/Graphics/SVG/1.1/DTD/svg11.dtd">
<svg version="1.1" id="Layer_1" xmlns="http://www.w3.org/2000/svg" xmlns:xlink="http://www.w3.org/1999/xlink" x="0px" y="0px"
	 viewBox="0 0 16 16" enable-background="new 0 0 16 16" xml:space="preserve">
<g>
	<g>
		<path d="M4,5c0,0,0-0.3,0-0.3l0-0.1c0,0,0,0-0.1-0.1c0,0-0.1-0.1-0.1-0.1c0,0-0.1-0.1-0.1-0.2c0,0-0.2,0-0.2-0.1
			c0-0.1-0.5-0.1-0.5-0.1c-0.1,0-0.4,0-0.5,0c-0.4,0-0.7,0.1-1,0.4c0,0,0,0,0,0.1c0,0-0.1,0-0.1,0.1C1.1,4.6,1,4.7,1,4.8
			c0,0,0.1,0,0.1,0c0,0-0.1,0.1-0.1,0C0.9,5.5,1,6.2,1.5,6.5c0,0,0,0,0.1,0c0,0,0,0.1,0.1,0.1s0,0,0.1,0c0,0,0.1,0,0.1,0.1
			c0.1,0,0.3,0,0.3,0c0.1,0,0.3,0,0.3,0c0.1,0,0.2,0,0.2,0c0,0,0.2,0,0.3-0.1c0.2-0.1,0.5-0.3,0.7-0.5C4,5.8,4.1,5.4,4,5
			C4,4.8,4.1,5.1,4,5z"/>
	</g>
	<g>
		<path d="M10.8,10.4c0,0,0-0.4-0.1-0.5c0,0-0.1-0.2-0.1-0.2s-0.1-0.1-0.1-0.1c0-0.1-0.2-0.1-0.2-0.2c0,0-0.1-0.2-0.2-0.3
			c0,0-0.3-0.1-0.3-0.1c0-0.1-0.8-0.2-0.9-0.2c-0.2,0-0.8-0.1-0.9,0C7.3,8.7,6.8,8.8,6.3,9.3c-0.1,0.1,0,0-0.1,0.1
			C6.1,9.5,6.1,9.5,6,9.6C5.9,9.8,5.7,10,5.7,10.2c0,0,0.1,0.1,0.1,0c0,0-0.1,0.2-0.1,0.1c-0.2,0.8,0,2,0.8,2.5c0,0,0,0,0.2,0.1
			c0,0,0.1,0.1,0.1,0.2c0,0,0.1-0.1,0.1,0c0,0,0.2,0.1,0.2,0.1c0.2,0.1,0.4,0.1,0.6,0.1c0.1,0,0.6,0,0.6,0c0.1,0,0.3,0,0.4,0
			c0,0,0.3,0,0.4-0.1c0.4-0.2,0.9-0.5,1.2-0.8C10.8,11.7,10.9,11.1,10.8,10.4C10.8,10.2,10.9,10.6,10.8,10.4z"/>
	</g>
	<g>
		<path d="M6.6,7.4c-0.1,0-0.5,0-0.5,0C5.6,7.5,6,7.4,5.6,7.3C5,7.2,5,7.4,4.9,6.8c-0.3-1.3-0.1-0.7-0.3-3C4.5,2.9,5.4,3.1,5.5,3
			c0.7-0.1,0.5,0,0.9,0l0.6-0.1c0.6,0,1.1,0.1,1.7,0c0,0,1.6-0.2,1.7,0.4c0.2,1,0.3,2.7,0.3,2.7c0,1.1-0.4,1.1-0.5,1.1
			c-0.1,0-0.3,0-0.3,0c-0.1,0.1,0,0-0.4,0c-0.2,0-0.4,0.1-0.4,0.1c0,0-0.3,0-0.3,0C8.1,7.5,7.6,6.9,7.1,7.4L6.6,7.4z"/>
	</g>
	<g>
		<path d="M12,9.5c0-0.1,0-0.4,0-0.4c-0.1-0.3,0-0.1,0-0.3c0.1-0.4,0-0.4,0.4-0.5C13.4,8,13.6,8.1,15.2,8c0.6,0,0.5,0.6,0.6,0.7
			c0.1,0.5,0,0.3,0,0.6l0.1,0.4c0,0.5,0,0.2,0,0.7c0,0,0.1,1.2-0.3,1.3C14.9,11.9,13,12,13.1,12c-0.8,0-0.8-0.3-0.8-0.4
			c0-0.1,0-0.2,0-0.2c-0.1-0.1,0,0,0-0.3c0-0.1,0-0.3-0.1-0.3c0,0,0-0.2,0-0.2c-0.3-0.5,0.2-0.2-0.2-0.6L12,9.5z"/>
	</g>
	<g>
		<path d="M14.8,5c-0.1-0.2-0.1-0.4-0.2-0.6c-0.1-0.2-0.3-0.5-0.3-0.5S14,3.3,13.7,3.3c-0.2,0-0.6,0.4-0.6,0.5C13,3.9,13,4,12.8,4.2
			c0,0.2-0.1,0.4-0.3,0.6c-0.1,0.3-0.2,0.6-0.4,0.9c0,0-0.2,0.4-0.1,0.5c0,0.2,0.3,0.2,0.3,0.2s0.8-0.1,0.9-0.1c0.1,0,1.3,0.1,1.4,0
			c0.2,0,0.6,0,0.6,0s0.2-0.1-0.2-0.6c-0.2-0.1,0-0.1,0-0.2C15,5.4,14.8,5,14.8,5z"/>
	</g>
	<g>
		<path d="M3.9,10.4c-0.1-0.2-0.1-0.6-0.3-0.8C3.5,9.2,3.3,8.8,3.3,8.8S2.9,8,2.5,8C2.2,8,1.7,8.6,1.6,8.7C1.4,8.8,1.4,9,1.2,9.2
			C1.1,9.5,1,9.8,0.8,10c-0.1,0.4-0.3,0.8-0.6,1.2C0.2,11.4,0,11.8,0,12s0.4,0.2,0.4,0.3c0,0,1.2-0.1,1.2-0.1c0.1,0,1.8,0.1,1.9,0
			c0.3,0.1,0.9,0,0.9,0s0.3-0.2-0.3-0.8c-0.3-0.1,0-0.1,0-0.2C4.2,10.8,3.9,10.4,3.9,10.4z"/>
	</g>
</g>
</svg>
