<!-- Generated by IcoMoon.io -->
<svg version="1.1" xmlns="http://www.w3.org/2000/svg" width="32" height="32" viewBox="0 0 32 32">
<path d="M26 20.375c0 0 0 0 0 0 0-0.25 0-0.25 0-0.25-0.063-0.438-0.125-1.438-0.25-1.625 0.063 0.063-0.313-0.625-0.25-0.625s-0.375-0.313-0.438-0.5c-0.188-0.25-0.625-0.438-0.875-0.75-0.063-0.063-0.563-0.813-0.563-1-0.063-0.063-1.25-0.25-1.25-0.5-0.063-0.313-2.813-0.625-3.25-0.688-0.063 0-0.188 0-0.25-0.063 0-0.188 0-0.375 0-0.563-0.125-1.438-0.5-3.188-0.25-4.5 0 0.063-0.063-0.25-0.188-0.625 0.813 0 1.625 0.063 2.375 0.063 0.563-0.5 1 0.125 1.625-0.25 0.125 0 0.5-0.375 0.5-0.375 0.063 0 0.125 0.313 0.313 0.313 0.438 0 1.125 0.063 1.25-0.063 0 0 0.188 0 0.313 0s0.5-0.25 0.5-0.375c0 0.063 0.563-1 0.25-1.75-0.188-0.625-0.688-1.125-0.875-1.75-0.125-0.625-2.313-0.438-2.313-0.375-0.688 0.063-1.125 0-1.75 0-0.313 0.063-0.125 0-0.313 0.438-0.063 0.125-0.563-0.313-0.563-0.313 0-0.063-0.813-0.063-1.563 0 0.063-0.563 0.125-1.625 0-1.875l-0.125-0.75c-0.063-0.125-0.063-0.563-0.063-0.563 0.188-0.563-0.125-2 0.313-2.313-0.438-0.625-1.063-0.5-1.688-0.625-1.5-0.25-2-0.25-3.25 0.5 0 0.063 0 0.125 0 0.125 0 0.125 0 0.313 0 0.375-0.063 0.938-0.375 2.563-0.375 3 0.063 0.25 0 1.188-0.063 1.75-0.188 0-0.313 0-0.313-0.063-0.375-0.063-1.813 0.125-2.438 0.188 0.188-0.063 0.438-0.125 0.438-0.125-0.188 0.063-1.5 0.25-1.688 0.25-0.375 0-1.75 0.375-2.438 0.5-0.063 0-0.188 0-0.313 0.063 0 0-0.063 0.063-0.063 0-0.625 1.188-0.563 1.625-0.25 2.875 0.125 0.563 0.25 0.875 0.875 1.063 0.375 0 1.125 0.188 1.625 0 0 0 0.375 0 0.5 0l0.688 0.063c0.313 0.063 0.063-0.063 0.063-0.063 0.75 0.313 1.75 0 2.5-0.125 0.25 0 0.563 0 0.875 0.063 0.063 0.25 0 1.063 0.188 1.563 0 0 0.438 0.563 0.438 0.563 0.063 0.25-0.313 1.063-0.25 1.188 0 0 0.438 1.75 0.5 1.75 0 0.063 0.063 0.438 0.125 0.813-1.375 0.313-2.625 0.75-3.813 1.688-0.25 0.25 0.063 0.25-0.313 0.5-0.25 0.25-0.438 0.313-0.625 0.75-0.375 0.75-0.938 1.313-1.063 2.125 0.063 0 0.375 0.25 0.375 0.125 0 0.125-0.563 0.75-0.5 0.25-0.688 3 0.063 6.75 2.688 8.5 0.188 0.188 0.188 0 0.625 0.313 0.25 0.188 0.25 0.5 0.5 0.625 0.188 0.063 0.188-0.313 0.5-0.188 0.188 0 0.625 0.25 0.813 0.375 0.75 0.313 1.563 0.313 2.063 0.25 0.375 0 2 0.063 1.938 0 0.438-0.063 0.938 0.063 1.438-0.188-0.125 0 1.188-0.188 1.5-0.375 1.5-0.813 3-1.625 4.063-2.875 1.5-1.438 1.938-3.688 1.813-5.938z"></path>
</svg>
