<?xml version="1.0" encoding="utf-8"?>
<!-- Generator: Adobe Illustrator 18.0.0, SVG Export Plug-In . SVG Version: 6.00 Build 0)  -->
<!DOCTYPE svg PUBLIC "-//W3C//DTD SVG 1.1//EN" "http://www.w3.org/Graphics/SVG/1.1/DTD/svg11.dtd">
<svg version="1.1" id="Layer_1" xmlns="http://www.w3.org/2000/svg" xmlns:xlink="http://www.w3.org/1999/xlink" x="0px" y="0px"
	 viewBox="0 0 16 16" enable-background="new 0 0 16 16" xml:space="preserve">
<g>
	<path d="M13.1,11.3C13.1,11.3,13.1,11.3,13.1,11.3C13.1,11.4,13.1,11.3,13.1,11.3z"/>
	<path d="M13.1,11.3L13.1,11.3c0-0.1,0-0.1,0-0.1c0-0.2-0.1-0.7-0.1-0.8c0,0-0.2-0.3-0.1-0.3c0,0-0.2-0.2-0.2-0.3
		c-0.1-0.1-0.3-0.2-0.4-0.4c-0.1-0.1-0.3-0.4-0.3-0.5c0,0-0.6-0.1-0.6-0.2c0-0.2-1.4-0.3-1.6-0.4c-0.1,0-0.1,0-0.2,0
		c0-0.1,0-0.2,0-0.3l0,0C9.5,7.3,9.3,6.4,9.4,5.7c0,0-0.1-0.1-0.1-0.3c0.4,0,0.8,0,1.2,0c0.3-0.3,0.5,0.1,0.8-0.1
		c0.1,0,0.3-0.2,0.3-0.2c0,0,0.1,0.2,0.2,0.2c0.2,0,0.6,0,0.6,0c0,0,0.1,0,0.2,0c0.1,0,0.3-0.2,0.3-0.2c0,0,0.3-0.5,0.1-0.9
		c-0.1-0.3-0.4-0.6-0.4-0.9s-1.2-0.2-1.2-0.2c-0.3,0.1-0.6,0-0.9,0c-0.2,0-0.1,0-0.2,0.2c0,0.1-0.3-0.2-0.3-0.2c0,0-0.4,0-0.8,0
		c0-0.3,0.1-0.8,0-0.9L9.1,1.9c0-0.1,0-0.3,0-0.3c0.1-0.3-0.1-1,0.2-1.2C9,0.1,8.7,0.1,8.4,0.1c-0.7-0.1-1-0.1-1.6,0.3
		c0,0,0,0.1,0,0.1c0,0.1,0,0.2,0,0.2c0,0.5-0.2,1.3-0.2,1.5c0,0.1,0,0.6,0,0.9c-0.1,0-0.2,0-0.2,0C6.2,2.9,5.5,3,5.2,3
		C5.2,3,5.4,3,5.4,3C5.3,3,4.6,3.1,4.5,3.1c-0.2,0-0.9,0.2-1.2,0.3c0,0-0.1,0-0.2,0.1c0,0,0,0-0.1,0C2.8,4,2.8,4.2,3,4.8
		c0.1,0.3,0.2,0.5,0.5,0.5c0.2,0,0.6,0.1,0.8,0c0,0,0.2,0,0.3,0l0.3,0.1c0.2,0,0.1,0,0.1,0c0.4,0.2,0.9,0,1.2-0.1c0.1,0,0.3,0,0.5,0
		c0,0.1,0,0.5,0.1,0.8l0.2,0.3c0,0.1-0.2,0.5-0.1,0.6C6.8,7,7,7.9,7,7.9c0,0.1,0.1,0.2,0.1,0.4C6.4,8.4,5.8,8.7,5.2,9.1
		C5,9.3,5.2,9.3,5,9.4C4.9,9.5,4.8,9.6,4.7,9.8c-0.2,0.4-0.5,0.7-0.5,1.1c0,0,0.2,0.1,0.2,0.1c0,0.1-0.3,0.4-0.3,0.1
		c-0.4,1.5,0,3.4,1.4,4.3c0.1,0.1,0.1,0,0.3,0.2c0.1,0.1,0.1,0.3,0.2,0.3c0.1,0.1,0.1-0.2,0.3-0.1c0.1,0,0.3,0.2,0.4,0.2
		C7.1,16,7.5,16,7.7,16c0.2,0,1,0,1,0c0.2,0,0.5,0,0.7-0.1c-0.1,0,0.6-0.1,0.8-0.2c0.8-0.4,1.5-0.8,2-1.5
		C13,13.5,13.2,12.4,13.1,11.3z"/>
	<path d="M5.4,3C5.4,3,5.4,3,5.4,3C5.4,3,5.4,3,5.4,3z"/>
</g>
</svg>
