<!-- Generated by IcoMoon.io -->
<svg version="1.1" xmlns="http://www.w3.org/2000/svg" width="32" height="32" viewBox="0 0 32 32">
<path d="M24.75 21.063l-1.063 0.188c0-1.375-0.25-2.875-0.313-2.813-0.25-1.063 0.188-1.688-0.5-2.063-0.25-0.063 0.688 0.063 0.688 0.063 0.125-0.313-0.563-1.375-0.563-1.75 0 0 0.625-1 0.625-1 0.375-0.875 0-2.5 0.25-2.438 0.063-0.625-0.25-3.188-0.438-4.188 0.063 0.313 0.188 0.625 0.188 0.813-0.063-0.375-0.375-2.688-0.313-3 0-0.688-0.688-3.063-0.938-4.25-0.063-0.188 0-0.375-0.125-0.563 0 0-0.063-0.125-0.063-0.188-0.625-0.375-6.813 0.063-6.813 0.063l-2.375-1.75-1.125 2.563-3.25-2.75 0.438 3.688-3.688 0.313 1.875 2.25c-0.063 0.5-0.813 2.438-0.813 2.438-0.5 1.25 0.125 2.375 0.25 3.688 0.063 0.875-0.25 2.75-0.313 2.625 0.5 2 0.188 2.625 0.188 4.625h0.063c0 0 1.188 1.125 1.188 1.125 0.063 0.125-0.75 0.75-0.75 1.125s0 0.813-0.063 1.25c-0.063 0-0.125 0-0.125 0-0.625 0-1.188 0.875-1.188 0.875l-1.938 2.375-0.125 3.125 1.688 2.125c0 0 0.063 0.313 0.75 0 0 0 0.563 0 0.75 0l0.938 0.188c0.438 0.063 0.188-0.125 0.188-0.125 1.125 0.438 2.625-0.063 3.688-0.188 0.813-0.063 5.75 0.25 5.625 0.313 1.688-0.5 3.875-0.188 5.75-0.188 0 0 0-0.125 0-0.125v-0.125c0.688-0.5-0.188 0.313 0.75-0.188 0.125 0 0.75-0.5 0.75-0.5 0.125-0.063 0.125 0.5 0.438 0.5 0.688 0 1.688 0.125 1.938-0.063l0.5 0.063c0 0 0.75-0.5 0.75-0.563 0 0 0.5-3.75 0.5-3.75zM20.813 13.25l-0.188-0.063c0 0 0.125 0.438 0 0.438-0.063-0.125-1.125-0.25-1.375-0.313 0 0-0.125-0.125-0.25-0.125l-0.125 0.188c-0.125 0-0.938 0-0.938 0-0.313 0.063-1.875 0-2.313 0-0.25 0-0.813-0.063-0.813-0.063-0.563-0.125-0.313 0.063-0.938 0.063l0.063 0.063c-0.563 0-1.188 0-1.688 0-0.313-0.188-0.875 0.188-1.188 0-0.063 0-0.25-0.125-0.25-0.125-0.063 0-0.063 0.063-0.188 0.063-0.188 0-0.5 0.063-0.625 0 0 0-0.625 0-0.688 0s-0.25-0.063-0.25-0.125c0 0 0.125-0.25 0.063-0.563-0.063-0.375 0-0.5 0.063-0.75s1.688-0.188 1.688-0.188c0.313 0.063 1 0 1.313 0 0.188 0 0.063 0 0.188 0.125 0 0.063 0.25-0.063 0.25-0.063 0-0.063 0.25-0.063 0.438-0.063 0 0 0.688-0.125 0.688-0.125 0.125-0.063 0.375 0.063 0.5 0.063 0 0 0.313-0.125 0.25-0.125 0.25-0.125 0.688-0.063 0.688-0.063 0.188-0.063 2.188 0.063 2.375 0.063-0.063 0 0.563 0 0.563 0s0.75 0.063 0.875 0.063c0.188 0 0.875-0.313 1.188-0.25 0.063 0 0.438 0 0.438 0v0.375l0.375 0.188-0.375 0.375zM20.688 8.438l0.125 0.938h-0.188c0 0 0.125 0.375 0 0.438-0.063-0.188-1.125-0.313-1.375-0.375 0 0-0.125-0.063-0.25-0.063l-0.125 0.125c-0.125 0-0.938-0.063-0.938-0.063-0.313 0.125-1.875 0-2.313 0-0.25 0-0.813-0.063-0.813-0.063-0.563-0.063-0.313 0-0.938 0.063l0.063 0.125c-0.563 0-1.188 0-1.688 0-0.313-0.188-0.875 0.125-1.188 0-0.063 0-0.25-0.188-0.25-0.188-0.063 0-0.063 0.125-0.188 0.125-0.188 0-0.5 0.063-0.625 0 0 0-0.625 0-0.688 0-0.063-0.063-0.25-0.125-0.25-0.125s0.125-0.25 0.063-0.563c-0.063-0.438 0-0.5 0.063-0.75s1.688-0.188 1.688-0.188c0.313 0 1 0 1.313 0 0.188 0 0.063 0 0.188 0.125 0 0.063 0.25-0.125 0.25-0.125s0.25 0 0.438 0c0 0 0.688-0.188 0.688-0.188 0.125-0.063 0.375 0.125 0.5 0.125 0 0 0.313-0.188 0.25-0.188 0.25-0.063 0.688 0 0.688 0 0.188-0.063 2.188 0 2.375 0-0.063 0 0.563 0 0.563 0s0.75 0.063 0.875 0.063c0.188 0 0.875-0.313 1.188-0.25 0.063 0 0.438 0 0.438 0.063v0.375l0.375 0.188z"></path>
</svg>
