<?xml version="1.0" encoding="UTF-8" standalone="no"?>
<!-- Generated by IcoMoon.io -->
<svg viewBox="0 0 32 32" width="32" xmlns="http://www.w3.org/2000/svg" version="1.1" height="32">
 <path d="m8.5 1s-0.875 0.25-1 0.25c0.563-0.125 3.25-0.438 3.875-0.375-0.063 0.125 1.25-0.125 2.063 0.188l0.875 0.563c0.313 0 1.25-0.563 1.5-0.5 0 0 2.125 0.438 2.125 0.5 0.563 0 4.188-0.25 4.188-0.063 0 0 0.688 0.563 0.75 0.375 0.313-0.563 0-0.563 0.5-0.563 0.938-0.063 1.625 0.125 2.563-0.063 0-0.125 3.25-0.375 3.5 0.563 0.25 1 0.938 1.688 1.25 2.625 0.438 1.125-0.375 2.625-0.375 2.625 0 0.063-0.625 0.438-0.75 0.5h-0.438c-0.25 0.125-1.25 0-1.875 0-0.313 0-0.375-0.5-0.438-0.438 0 0-0.625 0.563-0.75 0.563-0.938 0.563-1.688-0.375-2.5 0.375-1.563 0-3.438-0.125-5-0.063l0.063 0.063c-1.813 0-4-0.313-5.688 0.125 0.125-0.063-1.5-0.375-2.313-0.313-1.063 0.125-2.5 0.625-3.625 0.188 0 0 0.25 0.188-0.188 0.125l-0.938-0.125c-0.25-0.063-0.75 0-0.75 0-0.75 0.25-1.938 0.063-2.438 0-0.875-0.25-1.125-0.75-1.313-1.563-0.5-1.938-0.563-2.563 0.313-4.25 0.125 0 0.188-0.063 0.188-0.063 0.188-0.063 0.313-0.063 0.5-0.125 1-0.188 3-0.75 3.563-0.75 0.313 0 2.563-0.313 2.563-0.375v0 0zm3.875 25.75c-0.063-1.563 0.063-3.375 0-5.063v0.063c0-1.813 0.25-4-0.188-5.625 0.125 0.063 0.375-1.5 0.313-2.313-0.125-1.125-0.625-2.563-0.188-3.688 0 0-0.188 0.25-0.063-0.188l0.125-0.938c0.063-0.188 0-0.75 0-0.75-0.25-0.688-0.063-1.875 0-2.375 0.25-0.938 0.75-1.188 1.563-1.375 1.938-0.5 2.563-0.563 4.25 0.375 0 0.063 0.063 0.125 0.063 0.125 0.063 0.188 0.063 0.375 0.125 0.5 0.188 1 0.75 3.063 0.75 3.625 0 0.313 0.313 2.563 0.313 2.563s-0.063 0 0 0-0.063 0 0 0-0.25-0.875-0.25-1c0.125 0.563 0.438 3.25 0.438 3.875-0.188-0.063 0.063 1.313-0.25 2.063l-0.5 0.875c0 0.313 0.5 1.25 0.438 1.5l-0.438 2.125c0 0.563 0.188 4.188 0 4.188 0 0-0.563 0.688-0.375 0.813 0.625 0.25 0.563 0 0.563 0.438l-2.563 0.563h-3.125zm-12.375-10.562c0.188-0.875 0.75-1.125 1.563-1.313 1.875-0.5 2.563-0.563 4.25 0.313 0 0.125 0.063 0.188 0.063 0.188 0 0.188 0 0.313 0.063 0.5 0.188 1 0.75 3 0.813 3.563-0.063 0.375 0.313 2.625 0.313 2.625s-0.063 0 0 0-0.063 0 0 0-0.25-0.938-0.25-1c0.063 0.563 0.438 2.75 0.375 3.313-0.125 0 0 1-0.313 1h-5s-1.688-1-1.75-1.75m24.936 2.748c0.063 0.125-0.125-1.5-0.188-2.25-0.063-1.125-0.563-2.563-0.188-3.688 0 0-0.125 0.25-0.063-0.188l0.188-0.938c0.063-0.188 0-0.75 0-0.75-0.313-0.688-0.125-1.938 0-2.438 0.188-0.875 0.688-1.313 1.563-1.313 2.063-0.125 4.313 0.813 4.375 0.938 0.188 1 0.75 3.063 0.813 3.625-0.063 0.313 0.313 2.563 0.313 2.563s-0.063 0 0 0-0.063 0 0 0-0.688-0.063-0.75-0.063c0.25 0.125 0.938 2.313 0.875 2.938-0.125-0.063 0 0.625-0.313 1.375z"/>
</svg>
