<?xml version="1.0" encoding="utf-8"?>
<!-- Generator: Adobe Illustrator 18.0.0, SVG Export Plug-In . SVG Version: 6.00 Build 0)  -->
<!DOCTYPE svg PUBLIC "-//W3C//DTD SVG 1.1//EN" "http://www.w3.org/Graphics/SVG/1.1/DTD/svg11.dtd">
<svg version="1.1" id="Layer_1" xmlns="http://www.w3.org/2000/svg" xmlns:xlink="http://www.w3.org/1999/xlink" x="0px" y="0px"
	 viewBox="0 0 16 16" enable-background="new 0 0 16 16" xml:space="preserve">
<g>
	<path d="M13,4.9c0.1,0,0.4-0.3,0.4-0.3c0,0,0.1,0.2,0.2,0.2c0.3,0,0.8,0,0.9,0c0,0,0.1,0,0.2,0c0.1,0,0.4-0.2,0.4-0.3
		c0,0,0.4-0.7,0.2-1.3c-0.2-0.5-0.5-0.8-0.6-1.3C14.6,1.5,13,1.6,13,1.7c-0.5,0.1-0.8,0-1.3,0c-0.2,0-0.1,0-0.2,0.3
		c0,0.1-0.4-0.2-0.4-0.2c0-0.1-1.8,0-2.1,0c0,0-1.1-0.2-1.1-0.2c-0.1,0-0.6,0.2-0.7,0.2L6.7,1.5c-0.4-0.1-1.1,0-1-0.1
		C5.4,1.4,4,1.6,3.8,1.6c0,0-0.6,0.1-0.8,0C2.7,1.7,1.7,2,1.2,2.1c-0.1,0-0.1,0-0.2,0c0,0,0,0-0.1,0C0.4,3,0.4,3.3,0.7,4.3
		C0.8,4.7,0.9,5,1.4,5.1c0.2,0,0.8,0.1,1.2,0c0,0,0.3,0,0.4,0l0.5,0.1c0.2,0,0.1,0,0.1,0C4.1,5.3,4.8,5,5.3,5c0.2,0,0.6,0,0.9,0.1
		c0,0,0,0.1,0,0.1c0,0,0,0.3,0,0.4L6.1,6c0,0.2,0,0.1,0,0.1C6,6.6,6.2,7.4,6.3,7.9c0,0.4-0.1,1.2-0.1,1.1c0.2,0.8,0.1,1.9,0.1,2.8
		l0,0c0,0.8,0,1.7,0,2.5l0.5,0.2l1.5,0l1.3-0.3c0-0.2,0-0.1-0.3-0.2c-0.1,0,0.2-0.4,0.2-0.4c0.1,0,0-1.8,0-2.1c0,0,0.2-1.1,0.2-1.1
		c0-0.1-0.2-0.6-0.2-0.7l0.3-0.4c0.1-0.4,0-1.1,0.1-1c0-0.3-0.1-1.4-0.1-1.4S9.6,5.7,9.6,5.6c0-0.1-0.1-0.3-0.1-0.5
		c0.8,0,1.6,0,2.3,0C12.2,4.7,12.6,5.2,13,4.9z"/>
	<path d="M3.5,12c0,0-0.2-1.1-0.1-1.3c0-0.3-0.3-1.3-0.4-1.8c0-0.1,0-0.1,0-0.2c0,0,0,0,0-0.1C2.1,8.2,1.7,8.2,0.8,8.4
		C0.4,8.5,0.1,8.7,0,9.1l0,3.7c0,0.4,0.9,0.8,0.9,0.8h2.5c0.1,0,0.1-0.5,0.1-0.5c0-0.3-0.1-1.4-0.2-1.7C3.4,11.6,3.5,12,3.5,12z"/>
	<path d="M15.6,12c0,0,0.4,0,0.4,0s-0.2-1.1-0.1-1.3c0-0.3-0.3-1.3-0.4-1.8c0,0-1.1-0.5-2.2-0.5c-0.4,0-0.7,0.2-0.8,0.7
		c0,0.2-0.1,0.8,0,1.2c0,0,0,0.3,0,0.4l-0.1,0.5c0,0.2,0,0.1,0,0.1c-0.2,0.5,0,1.3,0.1,1.8c0,0.4,0.1,1.2,0.1,1.1l3.3-0.1
		c0.1-0.4,0.1-0.7,0.1-0.7C16,13.1,15.7,12,15.6,12z"/>
</g>
</svg>
