<?xml version="1.0" encoding="utf-8"?>
<!-- Generator: Adobe Illustrator 18.0.0, SVG Export Plug-In . SVG Version: 6.00 Build 0)  -->
<!DOCTYPE svg PUBLIC "-//W3C//DTD SVG 1.1//EN" "http://www.w3.org/Graphics/SVG/1.1/DTD/svg11.dtd">
<svg version="1.1" id="Layer_1" xmlns="http://www.w3.org/2000/svg" xmlns:xlink="http://www.w3.org/1999/xlink" x="0px" y="0px"
	 viewBox="0 0 16 16" enable-background="new 0 0 16 16" xml:space="preserve">
<path d="M15.8,4.4l-0.5,0c0,0-0.1-0.1-0.1-0.1c0,0,0,0,0,0c-0.2,0.1-1,0.6-1,0.6c-0.1,0-0.3,0.2-0.3,0.2c-0.1,0-0.8,0.4-0.8,0.4
	c0.1-0.1-0.6,0.1-0.6,0.1s0.4-0.4,0.4-0.4c0.2-0.2,0.4-0.4,0.4-0.5c0,0,0.1-0.1,0.1-0.2c0.1-0.1,0.7-1.3,0.8-1.4
	c0-0.1-0.1-0.4-0.1-0.4s-0.7,0.1-0.7,0.1c0,0-0.2,0.2-0.2,0.2l-0.7,0.5l0,0.1l-0.1,0c0,0-1.3,1.3-1.5,1.5c0,0,0.2-1,0.2-1L11.9,3
	L12,2.6l0.4-1.3L12.2,1v0c0-0.7-0.6,0.3-0.7,0.3l0,0c0,0-0.5,0.6-0.5,0.6c0,0.1-0.5,0.8-0.5,0.8l-0.1,0.4L10,3.6
	c0,0-0.3,0.9-0.3,0.9c0,0,0.1,0.3,0.1,0.4c0,0.1-0.1,0.8-0.1,1.1C9.5,6.2,9.3,6.6,9.2,6.7C9.1,6.8,8.5,7.3,8.5,7.3
	c0,0-0.4,0.5-0.4,0.4c0,0,0,0,0,0C8,7.7,8,7.7,7.9,7.7c0,0-0.6-0.7-0.7-0.7L7.1,7c0.1-0.1,0.1-0.3,0.1-0.3c0,0-0.1-0.1-0.3-0.2
	c0.3-0.8-0.2-1.7-0.6-2.4c0,0-0.9-1.1-1.4-1.7l-0.2,0l-1-0.8L2.9,1.2L1.8,1.6l-0.3,0L1.3,1.8L0.8,2.1L0.1,3.1C0,3.5,0,3.8,0,4.3
	C0,4.2,0.1,5,0.2,5c0,0,0.4,0.8,0.5,1l1.3,1l0.1,0c0,0,0.3,0.4,0.3,0.4c0.5,0.1,2.9,0.8,2.9,0.8l0-0.3l0.2,0.2l0.1,0
	c0,0,0.1,0,0.1,0.1c0.1,0.1,0.6,0.7,0.6,0.7c0,0,0.2,0.1,0.3,0.2C6.4,9.3,6.3,9.5,6.2,9.5c0,0-0.3,0.3-0.5,0.6c0,0-0.1,0.3-0.1,0.3
	c-0.1,0.1-0.4,0.2-0.5,0.3c0,0-0.5,0.6-0.4,0.6c-0.1,0.1-0.4,0.4-0.3,0.4c0,0-0.1,0.3-0.1,0.3c-0.2,0-0.1-0.1-0.2,0
	c-0.3,0.2-0.7,0.8-1,1c0,0-0.8,0.7-0.7,1c0.1,0.2,0.1,0.4,0.5,0.7c0.3,0.2,0.4,0.5,0.4,0.5c0,0,0.2-0.1,0.3-0.1c0,0,0.3-0.4,0.5-0.5
	c0,0,0,0,0-0.1c0.1-0.1,0-0.2,0-0.2c0,0,0.3-0.1,0.3-0.1c0.4-0.2,0.6-0.9,0.9-0.9c0.4-0.4,0.9-0.9,1.3-1.3l-0.1,0
	c0.4-0.5,0.2-0.4,0.7-0.7c0,0,0.5-0.4,0.7-0.6c0,0,0.1,0,0.1-0.1c0.3,0.3,0.5,0.5,0.6,0.6c0,0,0.3,0.3,0.6,0.5c0,0,0.3,0.1,0.3,0.1
	c0.1,0.1,0.2,0.4,0.3,0.5c0,0,0.6,0.5,0.6,0.4c0.1,0.1,0.4,0.4,0.4,0.3c0,0,0.3,0.1,0.3,0.1c0,0.2-0.1,0.1,0,0.2
	c0.2,0.3,0.8,0.7,1,1c0,0,0.7,0.8,1,0.7c0.2-0.1,0.4-0.1,0.7-0.5c0.2-0.3,0.5-0.4,0.5-0.4c0,0-0.1-0.2-0.1-0.3c0,0-0.4-0.3-0.5-0.5
	c0,0,0,0-0.1,0c-0.1-0.1-0.2,0-0.2,0c0,0-0.1-0.3-0.1-0.3c-0.2-0.4-0.9-0.6-0.9-0.9c-0.4-0.4-0.9-0.9-1.3-1.3l0,0.1
	c-0.5-0.4-0.4-0.2-0.7-0.7c0,0-0.4-0.5-0.6-0.7C9.6,9.4,9.5,9.3,9.4,9.2c0.1-0.1,0.2-0.3,0.3-0.3c0,0,0.7-0.6,0.7-0.7L10.4,8
	c0-0.1,0.3-0.1,0.3-0.1c0.1-0.1,0.3-0.2,0.6-0.4c0.4,0,1.1,0,1.1,0c0,0,0.7-0.3,0.7-0.3c0,0,0,0,0,0c0,0,0.6-0.3,0.6-0.3l-0.2-0.1
	l0.2,0c0,0,0.5-0.3,0.7-0.4c0,0,0.1,0,0.1,0l0.2-0.4l1-0.9l0.1-0.2c0,0,0,0,0.1,0L15.8,4.4z"/>
</svg>
