<!-- Generated by IcoMoon.io -->
<svg version="1.1" xmlns="http://www.w3.org/2000/svg" width="32" height="32" viewBox="0 0 32 32">
<path d="M25.313 20.875c0 0-0.938-1.813-1.75-3-0.813-1.125-1.625-3.063-1.75-3.188l-0.688-0.313-0.25-1.063c0 0-1.25-2.313-2.188-2.063 0-0.063-0.125 0.5 0 0.438-0.063 0-0.313-0.75-0.375-0.375 0.063-0.25-1.25 1.125-1.25 1.125l-1.813 2.813 0.5 0.188c0 0-1.313 1.188-1.438 1.5-1.688 2.938-2.375 5.5-2.375 5.438-0.063 0.625-0.063 1.875-0.063 1.875s0.25 1.5 0.25 1.563h0.188c0.188 0.563-0.125 0.188 0.063 0.75 0.25 0.125 0.375 0.813 0.563 1 0 0 0.188 0.25 0.063 0.25 0.125 0 0.563-0.5 0.688-0.438 0.063 0.063 0.375 0.5 0.188 0.313 0.188 0.188 1.125 1.188 1.125 1.188l2.438 1 4.125-0.75c0 0-0.5 0.25-0.688 0.188 0.25-0.188 0.438-0.188 0.5-0.313 0.25 0.125 0.688-0.313 1-0.25v-0.125l0.125-0.063c1.063-0.938 0.25-0.188 1.188-0.938 0.5-0.5 0.688-0.875 0.813-0.875 0.125-0.125 0.375-0.625 0.188-0.563 0.125-0.063 0.438-0.5 0.5-0.563 0 0 0.313-0.625 0.313-1l-0.125 0.188c0.125-0.375 0.188-0.625 0.375-0.688l-0.063 0.313c0.188-0.563 0.063-1.75 0.063-1.75l-1.063-1.813zM11.875 14.375c0 0-0.438-0.625-0.75-1.125-0.375-0.5-0.688-1.188-0.75-1.25l-0.313-0.125-0.063-0.375c0 0-0.563-0.938-0.875-0.875 0 0-0.063 0.25 0 0.25-0.063 0-0.188-0.313-0.188-0.188 0-0.063-0.5 0.5-0.5 0.5l-0.75 1.188 0.188 0.063c0 0-0.5 0.5-0.563 0.688-0.688 1.25-1 2.25-1 2.25-0.063 0.25-0.063 0.75-0.063 0.75s0.125 0.688 0.125 0.688v0c0.063 0.25 0 0.063 0.063 0.313 0.125 0 0.188 0.313 0.25 0.375 0 0 0.063 0.125 0 0.125 0.063 0 0.25-0.25 0.313-0.188 0.063 0 0.125 0.188 0.125 0.125 0 0.063 0.438 0.5 0.438 0.5l1.063 0.438 1.688-0.313c0 0-0.188 0.125-0.313 0.063 0.125-0.063 0.188-0.063 0.25-0.125 0.125 0.063 0.313-0.125 0.375-0.063v-0.063h0.063c0.438-0.375 0.125-0.125 0.5-0.375 0.188-0.25 0.313-0.375 0.375-0.375 0.063-0.063 0.125-0.25 0.063-0.188 0.063 0 0.25-0.188 0.25-0.25 0 0 0.125-0.25 0.125-0.438l-0.063 0.125c0.063-0.125 0.063-0.25 0.188-0.313v0.188c0-0.25 0-0.938 0-0.938l-0.438-0.938h0.188zM10.688 4.063c0 0 0.625-1.188 1.125-1.875 0.5-0.75 1-1.938 1.063-2l0.5-0.188 0.188-0.625 1.188-1.375c0 0 0.25 0.313 0.125 0.25 0.125 0 0.313-0.125 0.375-0.063-0.063-0.125 0.625 0.625 0.625 0.625l1.125 1.813 0.375 0.313c0 0 0.125 0.563 0.25 0.75 1 1.875 1.625 3.313 1.625 3.25 0.063 0.375-0.063 1.375-0.063 1.375s-0.188 0.938-0.188 1h-0.125c-0.063 0.313-0.25 0.5-0.25 0.5v0.313l-0.375 0.375c0 0-0.125-0.375-0.188-0.25 0 0.5-0.313 0.563-0.25 0.5-0.125 0.125-0.625 0.375-0.625 0.375l-1.563 0.688-2.563-0.5c0 0 0.313 0.125 0.438 0.063-0.125-0.063-0.313-0.063-0.375-0.188-0.125 0.125-0.375-0.188-0.563-0.125v-0.125h-0.125c-0.625-0.563-0.125-0.125-0.75-0.563-0.313-0.313-0.375-0.5-0.5-0.563-0.063-0.125-0.25-0.438-0.063-0.375-0.063-0.063-0.313-0.313-0.313-0.375 0 0-0.188-0.438-0.188-0.688v0.125c0-0.188-0.063-0.375-0.188-0.438l0.063 0.188c-0.125-0.375-0.063-1.125-0.063-1.125l0.375-0.813z"></path>
</svg>
