<?xml version="1.0" encoding="utf-8"?>
<!-- Generator: Adobe Illustrator 18.0.0, SVG Export Plug-In . SVG Version: 6.00 Build 0)  -->
<!DOCTYPE svg PUBLIC "-//W3C//DTD SVG 1.1//EN" "http://www.w3.org/Graphics/SVG/1.1/DTD/svg11.dtd">
<svg version="1.1" id="Layer_1" xmlns="http://www.w3.org/2000/svg" xmlns:xlink="http://www.w3.org/1999/xlink" x="0px" y="0px"
	 viewBox="0 0 16 16" enable-background="new 0 0 16 16" xml:space="preserve">
<g>
	<g>
		<path d="M12.7,11.5c0,0-0.5-0.9-0.9-1.5S11,8.4,10.9,8.4l-0.4-0.2l-0.1-0.5c0,0-0.6-1.2-1.1-1c0,0-0.1,0.3,0,0.2
			c-0.1,0-0.2-0.4-0.2-0.2c0-0.1-0.6,0.6-0.6,0.6L7.6,8.7l0.3,0.1c0,0-0.7,0.6-0.7,0.8C6.3,11,6,12.3,6,12.2
			c-0.1,0.3-0.1,0.9-0.1,0.9s0.2,0.8,0.2,0.8h0.1c0.1,0.3-0.1,0.1,0.1,0.4c0.1,0.1,0.2,0.4,0.3,0.5c0,0,0.1,0.1,0,0.1
			c0.1,0,0.3-0.3,0.4-0.2c0,0,0.2,0.2,0.1,0.2C7,15,7.5,15.5,7.5,15.5L8.7,16l2.1-0.4c0,0-0.3,0.1-0.4,0.1c0.1-0.1,0.2-0.1,0.3-0.2
			c0.1,0.1,0.3-0.2,0.5-0.1v-0.1l0.1,0c0.5-0.5,0.1-0.1,0.6-0.5c0.3-0.3,0.3-0.4,0.4-0.4c0.1-0.1,0.2-0.3,0.1-0.3
			c0.1,0,0.2-0.3,0.3-0.3c0,0,0.2-0.3,0.2-0.5l-0.1,0.1c0.1-0.2,0.1-0.3,0.2-0.4l0,0.2c0.1-0.3,0-0.9,0-0.9l-0.5-0.9L12.7,11.5z"/>
	</g>
	<g>
		<path d="M5.9,8.2c0,0-0.2-0.3-0.4-0.6S5.2,7,5.2,7L5,7l0-0.2c0,0-0.3-0.5-0.5-0.4c0,0,0,0.1,0,0.1c0,0-0.1-0.2-0.1-0.1
			c0-0.1-0.3,0.3-0.3,0.3L3.8,7.2l0.1,0.1c0,0-0.3,0.3-0.3,0.3C3.3,8.2,3.1,8.7,3.1,8.7c0,0.1,0,0.4,0,0.4l0.1,0.3h0
			c0,0.1,0,0.1,0,0.2c0.1,0,0.1,0.2,0.1,0.2c0,0,0,0.1,0,0.1c0,0,0.1-0.1,0.2-0.1c0,0,0.1,0.1,0.1,0.1c0,0.1,0.2,0.3,0.2,0.3
			l0.5,0.2l0.9-0.2c0,0-0.1,0.1-0.2,0c0.1,0,0.1,0,0.1-0.1c0.1,0,0.2-0.1,0.2-0.1v0h0C5.6,9.9,5.4,10,5.6,9.8
			c0.1-0.1,0.2-0.2,0.2-0.2c0,0,0.1-0.1,0.1-0.1c0,0,0.1-0.1,0.1-0.1c0,0,0.1-0.1,0.1-0.2l0,0.1C6,9.2,6,9.2,6,9.1v0.1
			c0-0.1,0-0.5,0-0.5L5.9,8.2L5.9,8.2L5.9,8.2z"/>
	</g>
	<g>
		<path d="M5.3,3c0,0,0.3-0.6,0.6-0.9c0.3-0.4,0.5-1,0.6-1L6.7,1l0.1-0.3L7.4,0c0,0,0.1,0.2,0.1,0.1c0.1,0,0.2-0.1,0.2,0
			c0-0.1,0.3,0.3,0.3,0.3l0.6,0.9l0.2,0.2c0,0,0.1,0.3,0.1,0.4c0.5,0.9,0.8,1.7,0.8,1.6c0,0.2,0,0.7,0,0.7S9.5,4.6,9.5,4.7H9.4
			C9.4,4.8,9.3,4.9,9.3,4.9v0.2L9.1,5.3c0,0-0.1-0.2-0.1-0.1c0,0.3-0.2,0.3-0.1,0.3C8.8,5.5,8.6,5.6,8.6,5.6L7.8,5.9L6.5,5.7
			c0,0,0.2,0.1,0.2,0.1C6.7,5.7,6.6,5.7,6.6,5.6C6.5,5.7,6.4,5.5,6.3,5.5V5.5H6.2C5.9,5.2,6.1,5.4,5.8,5.2C5.7,5,5.6,4.9,5.6,4.9
			c0-0.1-0.1-0.2-0.1-0.2c0,0-0.2-0.2-0.2-0.2c0,0-0.1-0.2-0.1-0.3l0,0.1c0-0.1-0.1-0.2-0.1-0.2l0,0.1c-0.1-0.2,0-0.6,0-0.6l0.2-0.4
			L5.3,3z"/>
	</g>
</g>
</svg>
