<?xml version="1.0" encoding="utf-8"?>
<!-- Generator: Adobe Illustrator 18.0.0, SVG Export Plug-In . SVG Version: 6.00 Build 0)  -->
<!DOCTYPE svg PUBLIC "-//W3C//DTD SVG 1.1//EN" "http://www.w3.org/Graphics/SVG/1.1/DTD/svg11.dtd">
<svg version="1.1" id="Layer_1" xmlns="http://www.w3.org/2000/svg" xmlns:xlink="http://www.w3.org/1999/xlink" x="0px" y="0px"
	 viewBox="0 0 841.9 595.3" enable-background="new 0 0 841.9 595.3" xml:space="preserve">
<g>
	<g>
		<g>
			<path d="M345.3,77.8c-0.2,0.1-0.8-2.6-1.5-2.6h-2c1.2,0,2.3,2.4,3.3,2.8C346.8,77,347.7,75.4,345.3,77.8z"/>
			<path d="M542.2,76.5c-11-8.4-20.8-11.9-29-16.5c-9-2.8-16.9-6.9-27.7-9.5l-7.2-1.1c-3.3-1.1-8.8,4.6-14.9,4.1
				c-9-1-17.5,5.8-25.7,5.8c0,0-0.1,0-0.1,0c0,0-0.1,0-0.1,0c-3.4,0-6.7-6-10-5.5c-14.2,1.1,12.5-6.6,13.7-6.4
				c0-0.8-28.2,0.8-28.1,1.6c-14.9,4.3-26.9,8-38.1,13.1c-5.5,2.8-10.9,5-15.9,8.4c-2.6,1.6-5.1,3.1-7.6,5.1c-1.2,1-2.5,1.8-3.7,2.9
				c-0.7,0.7-1.5-1.1-2.4-0.3c0,0-0.1-0.1-0.2-0.2c-0.1,0-0.1,0.1-0.1,0.1c-0.9-0.5-10.8-2.5-16-3.7c0.1-0.3-9-0.5-9-0.5
				c-7.1,0.1-11.2-2.1-27,1.2c-15.8,2.8-42.3,12-52.9,22c-4.7,4.1-6.8,5.5-2.8,1.9c0,0-1.7,1.2-3.7,3.4c-2,2.2-4.9,5-7.5,8.1
				c-5.1,6.2-9.5,12.9-9.5,12.9c-3.6,8.5-11.6,20.4-18.3,38.1c-4,12.1-5.3,16.3-9.1,33.1c-10.5,42.8-9.2,69.4-9.6,108.5
				c1.6,6,3.6,30.1,3.7,11.4c2.3,40.5,7.8,77.1,22.5,114.1c1.1,2.5,2.4,5.2,3.9,7.4c1.5,2,4.1,5.4,6.9,8.9
				c15.8,30.1,37.9,54.4,68,67.9c1.2,0.7,2.3,1.4,3.7,2.1l3.8,2c1.3,0.6,3,2.1,2.9-0.1l2.2-8.8l2-7.9c0.7-2,0.9-5.1,1.9-6
				c4.4,3.3,6.7,5.1,12.9,8.8c5.6,3.3,11.5,6.4,17.7,9.2c10.4,4.8,21.8,8.4,33.7,11.2c0.5,0.6,0.9,1.3,1.4,1.9l0.8-1.4
				c1.6,0.4,3.2,0.9,4.8,1.2l12.6,2.4l-7.9-10.9c-1-1.4-2-3-3-4.5l0.3-0.6c-0.3,0-0.5-0.1-0.8-0.2c-1.1-1.6-2.2-3.1-3.2-4.8
				c-1.8-2.4-2.9-3.7-4.6-6.3l-2.3-3.9c-0.6-1.2-2.4-3.8-0.3-2.5l0.1,0c0,0,4.2,1.7,8.3,3.5c0.9,0.3,1.8,0.7,2.7,1
				c1.6,0.5,3,0.9,4.3,1.3c2.8,0.8,4.6,1.3,4.6,1.3c7.4,1.7,15.3,3,23.2,3.7l5.9,0.5c0.6,0,3.4,0.6,5,0.9l11.2,2.1
				c14.7,2.6,28.1,4.2,37.5,4.8c4.3,0.9,6.4,1.4,10.7,2.3c10.7,1,32.3,3.7,43.1,3.3c13.6,1.2,13.6,1.9,21.9,2.7
				c14.1-0.3,30-0.6,46.1-2.8l8.1-1.1l-5.2-8c-0.9-1.4-1.6-3.8-1.8-5.7c-0.2-2-16-30-13.4-28.3c5.7,1.8,26.3,28.8,32.9,30.9
				c10.7,5.7,33.9,11.3,49.5,17.4l3.8-10.1c-2-1.3-3.9-2.6-5.5-3.9c-13.4-7.4-24.1-19.5-27.2-32.1c-3.6-12.4-3-23.2-3.5-27.1
				c0.3,0.1,0.6,10.5,2.2-2.6c0.3-2.6,0.8-7.9,0.8-7.9c0.1-1.3,2-7.8,3.8-15c2.1-6.7,4-12.4,6-18.8c1-3.2,1.1-4.3,0.7-3.6
				c-6.3,14.9-4.5,5.3,0.3-11.3c1.3-4.6,3-9.6,4.7-14.9c8.1-19.4,15.3-36.5,15.7-48c0.6-17,0.4-32.4-0.4-46.5c0.2,2.2,0.4,3.9,0.6,4
				c1.3,5,0.4-25-1.8-38.1c-2.8-13.4,0.9,8.4,1.2,18.1c0,0-0.8-4.8-1.6-9.6c-0.5-2.3-1-4.6-1.4-6.4c-0.7-4.7-1.3-9.4-2.1-13.8
				c-0.1-1.3-0.2-2.3-0.1-2.2c-0.9-6,1.7,0.6-0.7-9.9c-7.9-30-1.2-1.5-9.2-26c0.1,0.4,0.3,1.3,0.5,2c-3.2-9-6.7-17.2-10.6-24.4
				c-1.9-4.8-3.6-8.7,2.5,0.7c-4.6-8.5-6.2-13.3-14.3-24.1c-11.5-14.1-20.8-22.9-29.3-31.7c-8.4-8.8-16.9-17-28.8-27.6
				c3,3-1.9-1-2.8-1.4L542.2,76.5z M286.2,316.9l-2.9-7.7c-0.2-0.5-0.4-1.2-0.7-1.8l0,0l0.7,1.3l0.2,0.5l2.3,6.4l-1.4-6.7
				c-0.2-0.8-0.3-1.5-0.5-2.3l1.2-0.6c-0.6-0.9-1.2-1.8-1.8-2.6c-0.4-2-0.7-3.6-1-4.9l-1.4-5.2c-1.6-4-3.2-12.6-3.7-22.2
				c-0.4-4.8-0.2-9.9,0.3-14.9c0.2-2.3,0.3-4.6,0.5-6.9c0.2-1.5-0.4-3.6,1.4-3.8c2.3-0.9,3.2-0.9,1.4-0.1c0,0,4.1-1.6,8.1-3.1
				c4.4-1.8,8.7-3.6,8.7-3.6c4.2-3.8,12.5-6,22.3-11.6c6.5-4.3,8.2-6.2,16.8-11.9c22.9-12.8,33.9-24.8,53.3-37.4
				c1.4-1.8,4.1-4.2,5.8-5.7c1.8-1.6,2.9-2.8-1.9-0.7c1.6-0.9,3.2-2,4.7-2.5c12.5,17.8,27,33.3,44.4,46.6c1.5,0.8,2.9,1.6,4.4,2.5
				c1.5,0.4,3.9,1.1,6.5,1.8c0.1,0.1,0.2,0.2,0.3,0.2c17.7,11.6,36,20.2,53.6,25.8c0.7,0.4,1.1,0.7,2,1.1c9.6,4.1,21.1,7.9,34.3,9.9
				c6.6,0.8,13.5,1.6,20.8,1.2c1.7,0,3.8-0.2,5.3-0.3l2.6-0.2c0.7,0.1,1.9-0.6,2.1,0.1l0,2.9c0.7,1.3,1.1,8.7,0.9,15.1
				c0,0-0.8,4.6-1.5,9.1c-1,4.5-2,9-2,9c-0.4,2-0.9,4.1-1.4,6.1c-1.2,1.7-2.4,3.5-3.5,5.1c0.7,0.4,1.4,0.8,2,1.1
				c-0.2,0.9-0.4,1.9-0.6,2.8l-7.9,30l16.7-25.2c0.5-0.8,1-1.6,1.5-2.3c0.8,0.4,1.6,0.9,2.4,1.3c0.8-2.7,1.5-5.3,2.5-8.7l1.1-1.7
				l0.6-1.1c0.5-0.5,0.7-2,1.5-1.8c2.7-0.4,7.2,1.7,10.2,4.1c1.8,2.4,1.6,2.6,2.9,5.2c3.9,4.7,4.4,17.6,2.3,23.3
				c-3.6,6.7-4.8,6-8,8.3c-2,1.9-4.6,3.3-7.5,3.8c-1.5,0.3-2.7,0.4-4.6,0.1c-2.8-0.6-6.1-2.2-9.1-3.6c-2.2,3.3-3.8,9.1-5.6,13.2
				c-1.1,3-2.6,5.8-3.9,8.7c-2.5,5.8-5.7,10.9-8,16.1c-5.9,6-14.2,22.3-22.8,27.9c-14.2,13.6-31.8,24.9-35.4,28.4
				c-0.2-0.4,4.9-4.4-2.4-0.8c-1.4,0.8-4.2,2.3-4.2,2.4c-1.4,0.9-14.9,6-19.3,7.8c-1.8,0.8-2.3,1.1-1.9,1.2c9.3-1.9,4.4,1.1-5,5.6
				c-2.1,0.9-4.5,1.8-7,2.7c-10.2,2.1-20.7,3.6-31.6,3.6c-9.1,0-18-0.9-26.7-2.4c0.9,0.1,1.7,0.1,1.7-0.1c3-0.4-14.1-4.1-21.3-6.9
				c-7.8-1.8,4.5,2.3,9.9,3.8l-8-1.2c-3.4-1-6.8-2.1-10.1-3.4c-0.2-0.1-0.4-0.3-0.4-0.3c-3.2-1.7,1-1.3-4.9-3.4
				c-16.3-8.1-1.6,1.2-15.2-5.8c0.1,0.1,0.4,0.4,0.6,0.5c-4.8-2.6-9.4-5.7-13.9-8.8c-1.8-1.9-2.7-3.2,2.5-0.3
				c-4.7-3.3-6.6-5.6-12.8-10.5c-17.2-13.1-21.9-22.1-32.7-37.8c1.3,2.3-1.2-0.7-1.7-1.2L281.8,355c-1.7-3.4-2.5-8.4-4.6-9.4
				c-6,3.1-10.8,3.4-16.3,1.2c0,0.1-3.1-1-3.8-1.4c-1-0.6-1.9-1.4-2.8-2.2c-1.4-1.2-2.6-2.7-4-4.5c-0.1-0.2-0.2-0.4-0.3-0.6l2.3,2.3
				c-3.1-3.9-4.2-7.1-5-10.3c-1.5-5.5-0.8,1,1.4,5.6c-0.3-0.6-0.7-1.2-1-1.8c-0.4-0.9-0.8-1.8-1.1-2.7c-0.8-2.6-1.2-5.3-1.4-8.2
				c2.3-20.6,0.3,2,2.1,2.3c0,0-0.5-4.2,0.3-8.3c0.6-4.1,2.5-7.8,2.5-7.8c2.8-8.5,11.5-13.1,16.5-12.5c0.7,0.1,1.4,0.1,1.3-0.2
				l1,1.8c0.9,1.5,1.7,2.8,2.4,3.9c0.5,0.7,1,1.4,1.5,2.1c0.6,2.5,1.1,5,1.8,7.5l1.7-0.9c0.2,0.5,0.6,1.2,1,1.9l12.7,22.5l-2.2-10.9
				"/>
			<path d="M276.8,310.7l0.4-0.2c0.4,0.5,0.7,1.1,1.1,1.6"/>
		</g>
		<path d="M468.3,296.5c-0.2-0.9-0.9-1-1.1-1.6l0.2,1.3L468.3,296.5z"/>
		<path d="M505,253.9c0.3,0.2,0.2,0.4,0.3,0.6c0,0,0.1,0,0.2-0.1C505.2,254.2,505.1,254.1,505,253.9z"/>
		<path d="M385.6,271.3l-0.9-0.3c0.2,0.9,0.9,1,1.1,1.6L385.6,271.3z"/>
		<path d="M348,313.6c-0.3-0.2-0.2-0.4-0.3-0.6c0,0-0.1,0-0.2,0.1C347.8,313.3,347.9,313.4,348,313.6z"/>
		<path d="M473,364.6c-0.1,1.1,0.1-0.8,0.1-1.8v-0.7c0-0.3,2.9-1.6,2.3-3.3c-0.8-1.8-0.9-2.2-2.2-2.4c-0.4-0.2,0.5-0.4,1-0.3
			L473,355c-3.2,1.1-1.8-0.3-3.9-0.3c-2.4,0.7-4.7,1.3-6.4,1.8c-1.8-0.8-4.9,0-7.7,0.4c-0.3,0.1-0.6,0.1-0.9,0.2
			c-6.4,4-13.8,6.5-21.2,7c-4.5,0.3-9.5-0.1-13.8-1.7c-0.2-0.1-6-1.2-4.2-1.4c-2.6,0-5.3,0-7.9-1.1c-0.3,0.1-0.5-0.3-0.6-0.9
			c-2.6-1.1-4.7-2.8-6.6-4.7c-2.1,0.7-4.2,1.4-6.8,1.4c-0.7,0-1.2-0.3-1.9-0.4c-1,1.2-2.4,4.1-2.4,4.6l-2.1,0.5
			c0,3.1-1.5,2.8-1.5,4.8c3,3.5,4.6,7.9,8.2,9.2c0.1,2.7,4,2.2,4.9,4.4c2.4,0.3,4.7,0.5,7,1.1c3,0.8,5.5,1.8,7.9,2.6
			c0.9-0.4,1.8-0.8,2.9-1.1c1.8,0.6,3.5,1.1,5.2,1.4c1.8,0.3,3.7,0.3,5.5,0.3c-0.5,0.1-1.1,0.3-1.1,0.6c-0.1,0.1,0,0.3,0.1,0.4
			c0.3,0,0.6,0,0.9-0.1c1-0.2,1.9-0.5,2.9-0.8l0.1,0c0,0,0.1,0,0.1,0c14.8-3.4,28.3-10.3,42.5-15.7c1.8-1.1,3.5-2.3,3-3.3L473,364.6
			z"/>
	</g>
	<g>
		<path d="M366.8,286.6l0.4,0.2C367.2,286.7,367,286.6,366.8,286.6z"/>
		<path d="M363.2,290.1c-0.1,0-0.2,0.1-0.2,0.1C363.1,290.3,363.2,290.2,363.2,290.1z"/>
		<path d="M363.2,290.1l0.1-0.1C363.3,290,363.2,290.1,363.2,290.1z"/>
		<path d="M368.8,282.3c-0.4,0,0.1,0.5-0.3,0.7C369.1,282.9,368.8,282.5,368.8,282.3z"/>
		<path d="M355.9,259.6L355.9,259.6l0.1,0C356.1,259.6,356,259.6,355.9,259.6L355.9,259.6z"/>
		<path d="M393.3,270.5c-0.5-2.9-1.1-5.8-2-8c-0.4-1.3-1.2,0.2-1.1-1.4c0,0.2-0.2,0.4-0.3,0.5c-0.5-0.9-1.1-1.9-1.7-2
			c0-0.6,0.4-0.5,0.4-0.7c-0.3,0-0.6,0.4-0.9-0.1c0.5-0.5-0.2-1.3-0.5-1.5c0.1,0.5,0.6,0.7,0.3,1.4c-0.6,0.1-0.5-0.5-0.6-1.1l0,0.7
			c-0.6-1.1-0.9,0.6-1.5-0.6c0-0.4,0.3,0,0.4-0.4c-0.7-0.9-1.6,0.3-2.3-0.3c0,0.1,0.1,0.2,0.1,0.3l-0.4-0.1c0.1,0.1-0.1,0.4-0.1,0.6
			c0,0.1,0,0.1-0.1,0.1c-0.1,0-0.3-0.1-0.5,0c-0.4-0.6,0.8-1-0.2-1.3c0.2,0.4-0.1,0.5-0.4,0.5c-0.3,0.1-0.6,0.1-0.5,0.3
			c-1.7,0.5-2.9,0.2-4.6,0.9c0.1,0.5-0.2,0.9-0.1,1.4l-0.4-0.1l0,0.1c-0.4,0.6-1,0.2-0.7-0.3c0.3-0.2,0.5,0.2,0.6-0.4
			c-0.3,0.6-1.3,0.2-1.4,1.1c0.1,0,0.1,0.1,0.1,0.3l-0.5,0.3l-0.2-0.6c-1.7,1.4-3.6,2.9-4.9,4.2c-0.4,0.9-1.3,2-1.1,2.6
			c-0.5,1.1-1.6,2-2.2,2.7c0.2,0.6-1.5,1.8-0.5,2.2l-0.8,0.5l0.3,0.1c-0.6,0.4,0,0.3-0.2,0.9l-0.6-0.1c0,0.3-0.2,0.7-0.4,1.1
			c-0.2,0.3-0.4,0.7-0.4,1l0.1,0c-0.1,0.3-0.5,0.3-0.4,0.6l0.5,0.1c-1.9,1.6-0.7,3.6-1.5,5.6c1.2,1.2-1,2,0.9,3.1
			c0.3,0.4-0.8,0.7-0.8,0.1c0,2.3,0.7,4.9,2.2,7.4l3.1,2.2l3.8,1.6c1.9-0.1,3.8-0.3,5.7-0.5c1.7-0.5,3.7-1.2,5.4-2
			c1.7-0.8,3-1.8,3.5-2.7c0.2,0.1,0.1,0.4,0,0.5c0.7-0.2,0-0.5-0.1-0.7c0.3-0.1,0.7-0.2,1.1-0.3c0,0,0,0,0,0.1c0,0,0.1-0.1,0.3-0.1
			c0,0,0.1,0,0.1,0l0,0.4c0.5-0.5,1-1,1.6-1.5c0.2-0.1,0.4-0.1,0.5-0.1c1-2,2-4,2.4-6.1c0.7-3.1,0.3-6.3,0.4-9.4
			C392.3,272.2,392.7,271.2,393.3,270.5z M378.8,276.6C378.8,276.6,378.8,276.6,378.8,276.6c0.1,0,0.1,0,0.2,0.1L378.8,276.6z"/>
		<path d="M367.2,279.7c0.1-0.1,0.1-0.2,0-0.2C367.2,279.5,367.2,279.6,367.2,279.7z"/>
		<polygon points="367.2,278.9 367.4,279.2 367.3,278.9 		"/>
		<path d="M368.5,281c0.1-0.1,0.1-0.2-0.1-0.4C368.5,280.8,368.5,280.9,368.5,281z"/>
		<polygon points="368,277.7 368.1,277.5 367.9,277.7 		"/>
		<path d="M368.9,282.1c-0.1,0-0.1,0.1-0.1,0.2c0,0,0.1,0,0.2,0L368.9,282.1z"/>
	</g>
	<g>
		<path d="M458.1,285.7l0.3-0.3C458.3,285.5,458.1,285.6,458.1,285.7z"/>
		<path d="M462.1,289.9c-0.1-0.1-0.1-0.1-0.2-0.2C462,289.8,462,289.9,462.1,289.9z"/>
		<path d="M461.8,289.7l0.1,0.1C461.9,289.7,461.9,289.7,461.8,289.7z"/>
		<path d="M456.5,280.2c0.1,0.3-0.2,0.7,0.3,0.8C456.4,280.8,456.8,280.2,456.5,280.2z"/>
		<path d="M468.9,252.7L468.9,252.7c-0.1,0-0.1,0-0.1,0L468.9,252.7L468.9,252.7z"/>
		<path d="M489.1,282.2c-0.7-2.4,0.5-4.9-1.4-6.9l0.5-0.2c0.1-0.4-0.2-0.4-0.4-0.7l0.1,0c0-0.4-0.2-0.9-0.4-1.3
			c-0.2-0.5-0.5-1-0.4-1.4l-0.6,0.2c-0.3-0.6,0.3-0.5-0.2-1.1l0.3-0.1l-0.8-0.6c1-0.4-0.6-1.9-0.5-2.7c-0.5-0.7-1.6-2-2.1-3.2
			c0.3-0.6-0.6-2-1-3.1c-1.2-1.6-3.1-3.4-4.7-5.1l-0.2,0.7l-0.5-0.3c0.1-0.2,0-0.3,0.1-0.3c-0.1-1.1-1.1-0.6-1.4-1.3
			c0.1,0.8,0.3,0.3,0.6,0.5c0.3,0.6-0.2,1.1-0.6,0.4l0-0.2l-0.4,0.2c0.1-0.6-0.2-1.1-0.1-1.7c-1.6-0.8-2.8-0.5-4.4-1.1
			c0.1-0.3-0.2-0.3-0.5-0.4c-0.3,0-0.6-0.1-0.4-0.6c-1,0.4,0.2,0.9-0.2,1.6c-0.2,0-0.4,0.1-0.5,0.1c0,0-0.1-0.1-0.1-0.2
			c0-0.3-0.2-0.6-0.1-0.7l-0.4,0.1c0-0.1,0-0.2,0.1-0.3c-0.7,0.8-1.5-0.7-2.2,0.4c0,0.5,0.3,0,0.4,0.5c-0.6,1.5-0.9-0.6-1.4,0.7
			l0-0.9c-0.1,0.7-0.1,1.4-0.6,1.3c-0.3-0.8,0.1-1.2,0.2-1.7c-0.3,0.2-0.9,1.3-0.5,1.8c-0.2,0.6-0.6,0.1-0.8,0.1
			c0.1,0.2,0.5,0.1,0.4,0.8c-0.6,0.1-1.2,1.4-1.7,2.4c-0.1-0.2-0.2-0.4-0.3-0.6c0.1,2-0.7,0.1-1.1,1.7c-0.8,2.6-1.4,6.2-1.9,9.7
			c0.6,1,1,2.1,1,3.6c0.1,3.8-0.3,7.7,0.4,11.5c0.5,2.5,1.4,5,2.4,7.4c0.2,0,0.3,0.1,0.5,0.2c0.5,0.6,1.1,1.1,1.5,1.7l0-0.6
			c0,0,0.1,0,0.1,0c0.1,0-1.6,0.4-1.6,0.3c0,0,0-0.1,0-0.1c0,0.1,1.6,0.2,2,0.3c-0.1,0.2-0.3,0.6,0.3,0.9c0-0.2,0.1-0.5,0.3-0.7
			c0.5,1.1,1.8,2.3,3.5,3.3c1.6,1,3.6,1.8,5.2,2.4c1.8,0.3,3.7,0.5,5.5,0.6l3.7-1.9l3-2.6c1.4-3.1,2.2-6.2,2.1-9
			c0,0.7-1.1,0.3-0.8-0.2C490,284.6,487.9,283.6,489.1,282.2z M473,276.5c0-0.1,0.1-0.1,0.1-0.2c0,0,0,0,0,0.1L473,276.5z"/>
		<path d="M458,277c0-0.1,0-0.2,0-0.3C457.9,276.9,458,277,458,277z"/>
		<polygon points="457.9,276.4 458,276.1 457.9,276.1 		"/>
		<path d="M456.8,278.7c0-0.1,0-0.3,0.1-0.4C456.7,278.4,456.7,278.6,456.8,278.7z"/>
		<polygon points="457.3,274.6 457.3,274.6 457.2,274.4 		"/>
		<path d="M456.3,280.3c0.1,0,0.1,0,0.2,0c0-0.1,0-0.1-0.1-0.2L456.3,280.3z"/>
	</g>
</g>
</svg>
