<?xml version="1.0" encoding="utf-8"?>
<!-- Generator: Adobe Illustrator 18.0.0, SVG Export Plug-In . SVG Version: 6.00 Build 0)  -->
<!DOCTYPE svg PUBLIC "-//W3C//DTD SVG 1.1//EN" "http://www.w3.org/Graphics/SVG/1.1/DTD/svg11.dtd">
<svg version="1.1" id="Layer_1" xmlns="http://www.w3.org/2000/svg" xmlns:xlink="http://www.w3.org/1999/xlink" x="0px" y="0px"
	 viewBox="0 0 16 16" enable-background="new 0 0 16 16" xml:space="preserve">
<g>
	<path d="M5.5,1C5.5,1.1,5.5,1,5.5,1C5.5,1,5.6,1,5.5,1z"/>
	<path d="M7,13.5L7,13.5C6.9,13.4,6.9,13.4,7,13.5z"/>
	<path d="M15.8,15.4c-0.4-0.2-0.8-0.6-0.9-1.1c-0.1-0.4-0.1-0.8-0.1-0.9c0,0,0,0.3,0.1-0.1c0-0.1,0-0.3,0-0.3c0,0,0.1-0.3,0.1-0.5
		c0.1-0.2,0.1-0.4,0.2-0.6c0-0.1-0.1,0.1,0-0.5c0-0.2,0.1-0.3,0.2-0.5c0.3-0.6,0.5-1.2,0.5-1.6c0-0.6,0-1.1,0-1.5c0,0.1,0,0.1,0,0.1
		c0,0.2-0.1-1.1-0.1-1.2c0-0.2,0-0.3-0.1-0.5c0,0,0-0.1,0-0.1c0-0.2,0.1,0,0-0.3c-0.3-1,0,0-0.3-0.9c0,0,0,0,0,0.1
		c-0.1-0.3-0.2-0.6-0.4-0.8C15,4.1,15,4,15.2,4.3C15,4,15,3.9,14.7,3.5c-0.4-0.5-0.7-0.8-1-1.1c-0.3-0.3-0.6-0.6-1-0.9
		c0.1,0.1-0.1,0-0.1,0L12,1c-0.4-0.3-0.7-0.4-1-0.5c-0.3-0.1-0.6-0.2-0.9-0.3l-0.2,0c-0.1,0-0.3,0.2-0.5,0.1c-0.3,0-0.6,0.2-0.9,0.2
		h0h0C8.4,0.4,8.6,0,8.7,0c0,0-0.9,0-0.9,0.1C7.3,0.2,6.9,0.4,6.5,0.5C6.3,0.6,6.1,0.7,6,0.8C5.9,0.9,5.8,0.9,5.7,1
		c0,0-0.1,0.1-0.1,0.1c0,0-0.4-0.1-0.6-0.1c0,0-0.3,0-0.3,0c-0.2,0-0.4-0.1-0.9,0C3.2,1.1,2.4,1.4,2,1.7C1.9,1.8,1.8,1.9,1.9,1.8
		c0,0-0.1,0-0.1,0.1C1.7,1.9,1.6,2,1.5,2.1C1.4,2.3,1.2,2.6,1.2,2.6C1.1,2.8,0.8,3.2,0.6,3.8C0.5,4.2,0.4,4.4,0.3,4.9
		C0,6.3,0,7.2,0,8.5c0.1,0.2,0.1,1,0.1,0.4c0.1,1.3,0.3,2.6,0.7,3.8c0,0.1,0.1,0.2,0.1,0.2c0,0.1,0.1,0.2,0.2,0.3
		c0.5,1,1.3,1.8,2.3,2.3c0,0,0.1,0,0.1,0.1l0.1,0.1c0,0,0.1,0.1,0.1,0l0.1-0.3L4,15.1C4,15,4,14.9,4,14.9C4.2,15,4.3,15,4.5,15.2
		c0.2,0.1,0.4,0.2,0.6,0.3c0.3,0.2,0.7,0.3,1.1,0.4c0,0,0,0,0,0.1l0,0c0.1,0,0.1,0,0.2,0L6.8,16l-0.3-0.4c0,0-0.1-0.1-0.1-0.1l0,0
		c0,0,0,0,0,0c0-0.1-0.1-0.1-0.1-0.2c-0.1-0.1-0.1-0.1-0.2-0.2l-0.1-0.1c0,0-0.1-0.1,0-0.1h0c0,0,0.1,0.1,0.3,0.1c0,0,0.1,0,0.1,0
		c0.1,0,0.1,0,0.1,0c0.1,0,0.2,0,0.2,0c0.2,0.1,0.5,0.1,0.8,0.1l0.2,0c0,0,0.1,0,0.2,0l0.4,0.1c0.5,0.1,0.9,0.1,1.2,0.2
		c0.1,0,0.2,0,0.4,0.1c0.4,0,1.1,0.1,1.4,0.1c0.5,0,0.5,0.1,0.7,0.1c0.5,0,1,0,1.5-0.1l0.3,0l-0.2-0.3c0,0-0.1-0.1-0.1-0.2
		c0-0.1-0.5-1-0.4-0.9c0.2,0.1,0.9,1,1.1,1c0.4,0.2,1.1,0.4,1.6,0.6l0.1-0.3C15.9,15.5,15.9,15.4,15.8,15.4z M14,9.5
		c-0.1,0.2-0.2,0.2-0.3,0.3c-0.1,0.1-0.2,0.1-0.2,0.1c0,0-0.1,0-0.2,0c-0.1,0-0.2-0.1-0.3-0.1c-0.1,0.1-0.1,0.3-0.2,0.4
		c0,0.1-0.1,0.2-0.1,0.3c-0.1,0.2-0.2,0.4-0.3,0.5c-0.2,0.2-0.5,0.7-0.8,0.9c-0.5,0.5-1.1,0.8-1.2,0.9c0,0-0.2,0-0.2,0.1
		c0,0-0.5,0.2-0.6,0.3c-0.1,0,0.1,0.1-0.2,0.2c-0.1,0-0.1,0.1-0.2,0.1c-0.3,0.1-0.7,0.1-1,0.1c-0.3,0-0.6,0-0.9-0.1
		c0,0-0.3-0.1-0.3-0.1l-0.2,0c-0.1,0-0.2-0.1-0.3-0.1c0,0,0,0,0,0c-0.1-0.1,0,0-0.2-0.1c-0.5-0.3-0.1,0-0.5-0.2c0,0,0,0,0,0
		c-0.2-0.1-0.3-0.2-0.5-0.3c-0.1-0.1-0.1-0.1,0.1,0c-0.2-0.1-0.2-0.2-0.4-0.3c-0.6-0.4-0.7-0.7-1.1-1.3c0,0.1,0,0-0.1,0l-0.4-0.8
		C3.3,10.1,3.3,10,3.2,9.9C3,10,2.9,10,2.7,10c0,0-0.1,0-0.1,0c0,0-0.1,0-0.1-0.1c0,0-0.1-0.1-0.1-0.1C2.3,9.6,2.2,9.5,2.3,9.6
		c0,0,0,0,0-0.1c0,0,0-0.1,0-0.1c0-0.1,0-0.2,0-0.2c0,0,0-0.1,0-0.3c0-0.1,0.1-0.3,0.1-0.3c0.1-0.3,0.4-0.4,0.5-0.4
		c0,0,0.1,0.1,0.2,0.2c0,0,0,0,0,0.1c0,0.1,0,0.2,0.1,0.2l0.1,0c0,0,0,0,0,0.1l0.4,0.7L3.6,9.2L3.5,8.7c0,0,0-0.2,0-0.2
		c0-0.1,0-0.1,0-0.2l0-0.2C3.3,8.1,3.3,7.8,3.2,7.5c0-0.2,0-0.3,0-0.5c0-0.1,0-0.2,0-0.2c0,0,0-0.1,0-0.1c0.1,0,0.1,0,0,0
		c0,0,0.1-0.1,0.3-0.1c0.1-0.1,0.3-0.1,0.3-0.1C4.1,6.3,4.3,6.2,4.7,6c0.2-0.1,0.3-0.2,0.6-0.4C6,5.2,6.3,4.8,7,4.4
		c0-0.1,0.1-0.1,0.2-0.2c0.1-0.1,0-0.1,0.1-0.1c0.4,0.6,0.9,1.1,1.5,1.5c0,0,0.1,0.1,0.1,0.1c0,0,0.1,0,0.2,0.1c0,0,0,0,0,0
		c0.6,0.4,1.2,0.7,1.8,0.9c0,0,0,0,0.1,0c0.3,0.1,0.7,0.3,1.1,0.3c0.2,0,0.4,0.1,0.7,0c0.1,0,0.1,0,0.2,0L13,7c0,0,0.1,0.1,0.1,0.1
		c0,0,0,0.3,0,0.5c0,0,0,0.2,0,0.3c0,0.1-0.1,0.3-0.1,0.3c0,0.1,0,0.1,0,0.2c0,0.1-0.1,0.1-0.1,0.2c0,0,0,0,0.1,0c0,0,0,0.1,0,0.1
		l-0.3,1l0.6-0.8c0,0,0-0.1,0-0.1c0,0,0.1,0,0.1,0c0-0.1,0-0.2,0.1-0.3l0-0.1l0,0c0,0,0-0.1,0-0.1c0.1,0,0.2,0.1,0.3,0.1
		c0.1,0.1,0.1,0.1,0.1,0.2C14.1,8.9,14.1,9.3,14,9.5z"/>
	<path d="M9.8,10.3L9.8,10.3c-0.1,0-0.1,0-0.2,0c-0.1,0-0.2,0-0.2,0.1c-0.1,0-0.3,0-0.3,0c-0.2,0.1-0.5,0.2-0.7,0.2
		c-0.1,0-0.3,0-0.5-0.1c0,0-0.2,0-0.1,0c-0.1,0-0.3,0-0.3-0.1c-0.1,0-0.2-0.1-0.2-0.2c-0.1,0-0.1,0-0.2,0c0,0,0,0-0.1,0
		c0,0-0.1,0.1-0.1,0.2l-0.1,0c0,0.1,0,0.1,0,0.2c0.1,0.1,0.2,0.3,0.3,0.3C7.1,11,7.2,11,7.3,11c0.1,0,0.4,0.1,0.5,0.1
		c0,0,0.5,0,0.5,0h0h0c0.5-0.1,0.9-0.3,1.4-0.5c0.1,0,0.1-0.1,0.1-0.1C9.8,10.6,9.8,10.4,9.8,10.3C9.8,10.3,9.8,10.3,9.8,10.3z"/>
	<path d="M6.8,8.1C6.8,8.1,6.8,8.1,6.8,8.1C6.9,8.1,6.9,8.1,6.8,8.1C6.9,8.1,6.8,8.1,6.8,8.1C6.8,8.1,6.9,8.1,6.8,8.1
		C6.9,8.1,6.9,8,7,8C7,8,7,7.9,7,7.9c0,0,0,0,0,0c0-0.1,0-0.2,0-0.3c0,0,0-0.1,0-0.1c0,0,0-0.1,0-0.1c0-0.1,0-0.1,0-0.2c0,0,0,0,0,0
		c0,0,0,0,0,0c0,0,0,0,0,0c0,0,0,0,0,0C6.8,7,6.7,7,6.5,7.1c0,0,0,0,0,0l0,0v0c0,0,0,0,0,0c0,0,0,0,0,0c0,0,0,0,0,0l0,0l0,0
		C6.3,7.3,6.1,7.6,6.1,7.8c0,0,0,0,0,0.1c0,0,0,0,0,0c0,0.1,0,0.2,0.1,0.2l0.1,0.1l0.1,0.1c0.1,0,0.1,0,0.2,0c0.1,0,0.1,0,0.2-0.1
		C6.8,8.2,6.8,8.1,6.8,8.1C6.9,8.1,6.8,8.1,6.8,8.1z"/>
	<path d="M10.3,7.9c0-0.1-0.1-0.2-0.1-0.4l0,0c0,0,0,0,0,0c0,0,0,0,0,0l0,0c0,0,0,0,0,0c0,0,0-0.1,0-0.1c0,0,0-0.1-0.1-0.1
		c0,0,0-0.1,0-0.1c0,0,0-0.1-0.1-0.1C9.9,7,9.9,7,9.8,7c0,0,0,0,0,0c0,0-0.2-0.1-0.2,0c0,0-0.1,0-0.1,0.1c0,0,0,0-0.1,0c0,0,0,0,0,0
		c0,0,0,0,0,0c0,0,0,0,0,0c0,0,0,0,0,0c0,0.1,0,0.2-0.1,0.3c0,0,0,0.1,0,0.1c0,0.1,0,0.3,0,0.4c0,0.1,0,0.2,0.1,0.2c0,0,0,0,0,0
		c0,0,0,0,0,0c0,0,0,0,0.1,0c0,0,0,0,0,0c0,0,0,0,0,0c0,0,0,0,0,0.1c0,0,0,0,0.1,0c0.1,0,0.1,0.1,0.2,0.1c0.1,0,0.1,0,0.2,0l0.1-0.1
		l0.1-0.1C10.2,8.2,10.3,8.1,10.3,7.9C10.3,8,10.2,8,10.3,7.9C10.3,7.9,10.3,7.9,10.3,7.9z"/>
</g>
</svg>
