<?xml version="1.0" encoding="utf-8"?>
<!-- Generator: Adobe Illustrator 18.0.0, SVG Export Plug-In . SVG Version: 6.00 Build 0)  -->
<!DOCTYPE svg PUBLIC "-//W3C//DTD SVG 1.1//EN" "http://www.w3.org/Graphics/SVG/1.1/DTD/svg11.dtd">
<svg version="1.1" id="Layer_1" xmlns="http://www.w3.org/2000/svg" xmlns:xlink="http://www.w3.org/1999/xlink" x="0px" y="0px"
	 viewBox="0 0 16 16" enable-background="new 0 0 16 16" xml:space="preserve">
<g>
	<g>
		<path d="M10.9,3.4c0,0-0.1,0.1-0.3,0.5c0.1,0.2-0.4,1.4-0.4,1.3c-0.1,0.3-0.3,1.2-0.4,1.9c-0.1,0.8,0,2.5-0.1,3
			c0,0.3,0.2,0.9-0.1,0.6c0,0,0.4,1.3,0.3,1.6c-0.1,0.4-0.2,3.3-0.2,3.3c-0.1,0.1,1.5,0.4,0.6,0l1.4,0.1c0.2-0.7,0.2-3.4,0.5-4.3
			c0.1-0.2-0.4-0.1-0.3-0.3c0,0,0.6-0.5,0.6-0.6c0.1-0.5,0.1-0.9,0-1.2c0.1-0.2,0,0.5-0.1,0c0-0.3,0-1.1,0-1.8
			c0.1-0.7,0.1-1.3,0.3-1.5C12.7,5.8,13,5.3,13,5.3c0-0.1,0.4-0.6,0.4-0.6s1.4-0.6,1.6-0.6c0,0,0-0.2,0-0.4c0-0.1-0.6,0.1-0.6,0
			C14.4,3.5,15,3.3,15,3c0-0.2-0.2-0.6-0.2-0.8c-0.2-0.5-0.5-0.9-1-0.8c0,0-2.2,1-2.2,1L10.9,3.4z"/>
	</g>
	<g>
		<path d="M5.2,4.1c0,0,0.1,0.1,0.3,0.5C5.4,4.7,5.9,5.9,5.9,5.8c0.1,0.3,0,1.3,0.1,2.1C6,8.7,6.3,9.1,6.3,9.6
			c0,0.3-0.3,0.7-0.3,0.9c0,0,0.3,0,0.3,0L6.2,11c0,0.1,0,0.4,0.1,0.4c0,0,0.2,0.9,0.3,1.2c0.1,0.4-0.1,3.3-0.1,3.3
			c0.1,0.2-1.2-0.1-1.3-0.3l-1,0.1c-0.2-0.7-0.1-2.3-0.4-3.2c-0.1-0.2,0-0.5,0-0.8c0,0-0.1-0.6-0.1-0.7c0-0.5,0-0.8,0-1.1
			c-0.1-0.2,0,0.3,0-0.2c0-0.3-0.1-1-0.2-1.7c0-0.7-0.2-1.3-0.3-1.5C3.2,6.5,3,6,3,6c0-0.1-0.4-0.6-0.4-0.6S1.2,4.9,1,4.9
			c0,0-0.1-1.5,0.4-2.2c0.1-0.2,0.5,0,0.6,0c0.4,0.2,0-0.5,0.2-0.5c0,0,2.2,1,2.2,1L5.2,4.1z"/>
	</g>
	<g>
		<path d="M9.2,11.6c0-0.7,0-1.5,0-2.3L9.1,9.4c0-0.8-0.2-0.4-0.1-1.2c0,0.1,0.1-0.8,0.1-1.1c0-0.5,0.2-2.5,0-3c0,0,0.1-1,0.1-1.2
			L8.9,2.8C8.9,2.7,9,2.5,9,2.5c0.1-0.3,0.3-1.7,0.4-1.9C9.4,0.4,8.9,0.7,8.9,0.7L9,0.4L7.7,0.5L7.3,0L7,0.5L6.6,0.5
			c0,0.1,0,0.6-0.1,0.6C6.5,1.5,6.9,2.5,6.9,2.7c0,0.2-0.1,1.1-0.1,1.1c0,0,0,0.7,0,0.7c0,0.3-0.1,2.8-0.1,3.1c0.1,0,0,0.6,0.1,0.9
			L7,8.9C7,9,6.9,9.4,6.9,9.6c0,0,0.2,0.9,0.2,0.9c0,0.2,0,0.6,0.1,0.6c0,0,0.2,0.3,0.2,0.4c-0.2,0.1-0.2,0-0.2,0.2
			c0,0.4,0.1,1.3,0,1.7c0,0-0.1,1.3,0.2,1.4c0.3,0.1,0.5,0.3,1,0.1C8.7,14.8,9.1,15,9.1,15c0,0,0.1-0.3,0.2-0.4c0-0.1,0-0.6,0-0.8
			c0,0,0-0.1,0-0.1c0-0.1-0.2-0.1-0.1-0.2c0,0,0.2-0.3,0.2-0.3C9.4,12.7,9,11.9,9.2,11.6z"/>
	</g>
</g>
</svg>
