<!-- Generated by IcoMoon.io -->
<svg version="1.1" xmlns="http://www.w3.org/2000/svg" width="32" height="32" viewBox="0 0 32 32">
<path d="M21.625 4.75c0 0-0.188 0.25-0.5 0.938 0.188 0.438-0.875 2.813-0.813 2.625-0.188 0.563-0.625 2.313-0.688 3.875-0.188 1.625-0.063 5-0.125 6.063 0 0.625 0.25-1.563 0.125-1.188 0-0.063 0.063 0.688 0.063 0.688s-0.063 0.75-0.125 0.75c-0.063 0.125 0.313 1.563-0.25 0.875 0 0 0.688 2.688 0.5 3.313-0.188 0.688-0.438 6.688-0.375 6.688-0.188 0.25 3.063 0.75 1.25 0l2.813 0.25c0.375-1.438 0.438-6.938 1-8.688 0.125-0.438-0.75-0.188-0.625-0.563 0 0 1.063-1 1.125-1.313 0.125-1 0.125-1.75 0.063-2.375 0.125-0.313-0.063 1.063-0.125-0.063-0.063-0.625-0.063-2.125 0.063-3.5 0.125-1.438 0.313-2.563 0.5-3-0.125-0.5 0.375-1.5 0.375-1.5 0.063-0.188 0.813-1.188 0.813-1.188s2.875-1.125 3.25-1.125c0 0 0-0.375 0-0.875 0-0.188-1.25 0.25-1.25 0-0.063-0.438 1.313-0.938 1.25-1.375-0.063-0.313-0.313-1.188-0.438-1.5-0.375-0.938-0.938-1.688-1.938-1.563-0.063-0.063-4.438 1.938-4.438 1.938s-1.5 1.813-1.5 1.813zM10.375 6.125c0 0 0.188 0.25 0.5 1-0.188 0.375 0.875 2.75 0.813 2.563 0.188 0.625 0 2.5 0.125 4.125 0.125 1.563 0.625 2.375 0.688 3.438 0 0.625-0.688 1.375-0.625 1.688 0-0.063 0.563 0 0.563 0s-0.063 1-0.063 1c0 0.188 0 0.875 0.25 0.938 0 0 0.25 1.75 0.5 2.375 0.188 0.688-0.125 6.625-0.188 6.625 0.188 0.313-2.375-0.063-2.5-0.5l-2.063 0.25c-0.375-1.375-0.188-4.5-0.75-6.25-0.125-0.5 0.063-1.063-0.063-1.5 0 0-0.188-1.125-0.25-1.375-0.125-1-0.125-1.5-0.125-2.125-0.125-0.313-0.063 0.688 0-0.438 0.063-0.625-0.25-1.938-0.313-3.375-0.125-1.438-0.313-2.563-0.5-2.938 0-0.563-0.438-1.5-0.438-1.5-0.063-0.25-0.813-1.25-0.813-1.25s-2.813-1.125-3.25-1.125c0 0-0.125-2.938 0.813-4.438 0.188-0.313 1-0.125 1.25 0.063 0.75 0.313 0-1 0.375-0.938 0.063-0.063 4.375 1.938 4.375 1.938s1.688 1.75 1.688 1.75zM18.375 21.125c0-1.375 0-3.063 0-4.5l-0.25 0.063c-0.063-1.563-0.438-0.875-0.188-2.375-0.063 0.063 0.125-1.5 0.125-2.188 0.063-1 0.313-5.063 0.063-6 0 0 0.125-2 0.063-2.375l-0.438-0.25c-0.063-0.125 0.25-0.625 0.25-0.625 0.188-0.563 0.625-3.313 0.875-3.688-0.125-0.313-1.188 0.125-1.188 0.125l0.188-0.5-2.5 0.25-0.875-1.063-0.5 1.063-0.938-0.125c-0.063 0.188-0.063 1.188-0.125 1.25-0.063 0.938 0.688 2.688 0.688 3.188 0.063 0.313-0.063 2.25-0.125 2.313 0 0 0.063 1.438 0.063 1.438-0.063 0.5-0.188 5.625-0.188 6.125 0.125-0.063 0 1.125 0.25 1.813 0 0 0.375 0.688 0.375 0.688 0 0.25-0.375 1.125-0.25 1.375 0 0 0.313 1.813 0.375 1.813 0 0.438 0 1.188 0.063 1.188 0 0 0.438 0.625 0.313 0.75-0.375 0.25-0.375 0-0.375 0.438 0 0.813 0.125 2.563 0 3.375 0 0-0.125 2.625 0.5 2.813 0.625 0.125 0.938 0.5 2 0.313 0.75-0.188 1.5 0.125 1.438 0.188 0.063 0 0.313-0.563 0.313-0.688s0-1.188 0-1.688c0 0 0-0.063 0-0.125 0-0.25-0.375-0.25-0.313-0.375 0 0 0.313-0.5 0.313-0.625 0.313-1.063-0.5-2.625 0-3.375z"></path>
</svg>
